<svg width="193" height="92" viewBox="0 0 193 92" fill="none" xmlns="http://www.w3.org/2000/svg">
<path d="M14.1731 16.823L15.8509 17.1747L15.4993 18.8525L13.8215 18.5009L14.1731 16.823ZM14.5247 15.1452L16.2025 15.4968L15.8509 17.1747L14.1731 16.823L14.5247 15.1452ZM14.8763 13.4674L16.5542 13.819L16.2025 15.4968L14.5247 15.1452L14.8763 13.4674ZM12.8469 14.7936L14.5247 15.1452L14.1731 16.823L12.4952 16.4714L12.8469 14.7936ZM13.1985 13.1157L14.8763 13.4674L14.5247 15.1452L12.8469 14.7936L13.1985 13.1157ZM11.5207 12.7641L13.1985 13.1157L12.8469 14.7936L11.169 14.4419L11.5207 12.7641ZM13.5501 11.4379L15.228 11.7895L14.8763 13.4674L13.1985 13.1157L13.5501 11.4379ZM16.5542 13.819L18.232 14.1706L17.8804 15.8484L16.2025 15.4968L16.5542 13.819ZM16.2025 15.4968L17.8804 15.8484L17.5287 17.5263L15.8509 17.1747L16.2025 15.4968ZM18.232 14.1706L19.9098 14.5222L19.5582 16.2001L17.8804 15.8484L18.232 14.1706ZM11.8723 11.0863L13.5501 11.4379L13.1985 13.1157L11.5207 12.7641L11.8723 11.0863ZM13.9017 9.76006L15.5796 10.1117L15.228 11.7895L13.5501 11.4379L13.9017 9.76006ZM12.2239 9.40844L13.9017 9.76006L13.5501 11.4379L11.8723 11.0863L12.2239 9.40844ZM12.5755 7.7306L14.2534 8.08223L13.9017 9.76006L12.2239 9.40844L12.5755 7.7306ZM14.2534 8.08223L15.9312 8.43385L15.5796 10.1117L13.9017 9.76006L14.2534 8.08223ZM14.605 6.40439L16.2828 6.75601L15.9312 8.43385L14.2534 8.08223L14.605 6.40439ZM12.9272 6.05276L14.605 6.40439L14.2534 8.08223L12.5755 7.7306L12.9272 6.05276ZM13.2788 4.37493L14.9566 4.72655L14.605 6.40439L12.9272 6.05276L13.2788 4.37493ZM14.9566 4.72655L16.6345 5.07818L16.2828 6.75601L14.605 6.40439L14.9566 4.72655ZM13.982 1.01926L15.6599 1.37088L15.3082 3.04872L13.6304 2.69709L13.982 1.01926ZM15.6599 1.37088L17.3377 1.72251L16.9861 3.40034L15.3082 3.04872L15.6599 1.37088ZM15.3082 3.04872L16.9861 3.40034L16.6345 5.07818L14.9566 4.72655L15.3082 3.04872ZM13.6304 2.69709L15.3082 3.04872L14.9566 4.72655L13.2788 4.37493L13.6304 2.69709ZM22.5623 18.5812L24.2401 18.9328L23.8885 20.6106L22.2106 20.259L22.5623 18.5812ZM22.9139 16.9033L24.5917 17.2549L24.2401 18.9328L22.5623 18.5812L22.9139 16.9033ZM23.2655 15.2255L24.9433 15.5771L24.5917 17.2549L22.9139 16.9033L23.2655 15.2255ZM21.236 16.5517L22.9139 16.9033L22.5623 18.5812L20.8844 18.2295L21.236 16.5517ZM21.5877 14.8739L23.2655 15.2255L22.9139 16.9033L21.236 16.5517L21.5877 14.8739ZM19.9098 14.5222L21.5877 14.8739L21.236 16.5517L19.5582 16.2001L19.9098 14.5222ZM20.2615 12.8444L21.9393 13.196L21.5877 14.8739L19.9098 14.5222L20.2615 12.8444ZM24.9433 15.5771L26.6212 15.9287L26.2696 17.6066L24.5917 17.2549L24.9433 15.5771ZM24.5917 17.2549L26.2696 17.6066L25.9179 19.2844L24.2401 18.9328L24.5917 17.2549ZM25.295 13.8993L26.9728 14.2509L26.6212 15.9287L24.9433 15.5771L25.295 13.8993ZM26.6212 15.9287L28.299 16.2804L27.9474 17.9582L26.2696 17.6066L26.6212 15.9287ZM26.9728 14.2509L28.6506 14.6025L28.299 16.2804L26.6212 15.9287L26.9728 14.2509ZM18.5836 12.4928L20.2615 12.8444L19.9098 14.5222L18.232 14.1706L18.5836 12.4928ZM27.4047 3.83226L29.0826 4.18388L28.7309 5.86172L27.0531 5.51009L27.4047 3.83226ZM29.0826 4.18388L30.7604 4.53551L30.4088 6.21334L28.7309 5.86172L29.0826 4.18388ZM28.7309 5.86172L30.4088 6.21334L30.0571 7.89118L28.3793 7.53955L28.7309 5.86172ZM28.3793 7.53955L30.0571 7.89118L29.7055 9.56902L28.0277 9.21739L28.3793 7.53955ZM28.0277 9.21739L29.7055 9.56902L29.3539 11.2469L27.6761 10.8952L28.0277 9.21739ZM27.6761 10.8952L29.3539 11.2469L29.0023 12.9247L27.3244 12.5731L27.6761 10.8952ZM25.9982 10.5436L27.6761 10.8952L27.3244 12.5731L25.6466 12.2214L25.9982 10.5436ZM25.6466 12.2214L27.3244 12.5731L26.9728 14.2509L25.295 13.8993L25.6466 12.2214ZM26.3498 8.86577L28.0277 9.21739L27.6761 10.8952L25.9982 10.5436L26.3498 8.86577ZM26.7015 7.18793L28.3793 7.53955L28.0277 9.21739L26.3498 8.86577L26.7015 7.18793ZM27.0531 5.51009L28.7309 5.86172L28.3793 7.53955L26.7015 7.18793L27.0531 5.51009ZM27.3244 12.5731L29.0023 12.9247L28.6506 14.6025L26.9728 14.2509L27.3244 12.5731ZM20.6131 11.1666L22.2909 11.5182L21.9393 13.196L20.2615 12.8444L20.6131 11.1666ZM18.9353 10.8149L20.6131 11.1666L20.2615 12.8444L18.5836 12.4928L18.9353 10.8149ZM19.2869 9.1371L20.9647 9.48873L20.6131 11.1666L18.9353 10.8149L19.2869 9.1371ZM20.9647 9.48873L22.6425 9.84035L22.2909 11.5182L20.6131 11.1666L20.9647 9.48873ZM21.3163 7.81089L22.9942 8.16252L22.6425 9.84035L20.9647 9.48873L21.3163 7.81089ZM19.6385 7.45926L21.3163 7.81089L20.9647 9.48873L19.2869 9.1371L19.6385 7.45926ZM19.9901 5.78143L21.668 6.13305L21.3163 7.81089L19.6385 7.45926L19.9901 5.78143ZM21.668 6.13305L23.3458 6.48468L22.9942 8.16252L21.3163 7.81089L21.668 6.13305ZM20.6934 2.42576L22.3712 2.77738L22.0196 4.45522L20.3418 4.10359L20.6934 2.42576ZM22.3712 2.77738L24.049 3.12901L23.6974 4.80684L22.0196 4.45522L22.3712 2.77738ZM22.0196 4.45522L23.6974 4.80684L23.3458 6.48468L21.668 6.13305L22.0196 4.45522ZM20.3418 4.10359L22.0196 4.45522L21.668 6.13305L19.9901 5.78143L20.3418 4.10359ZM31.3702 9.91789L33.0481 10.2695L32.6965 11.9474L31.0186 11.5957L31.3702 9.91789ZM31.7219 8.24006L33.3997 8.59168L33.0481 10.2695L31.3702 9.91789L31.7219 8.24006ZM33.3997 8.59168L35.0775 8.94331L34.7259 10.6211L33.0481 10.2695L33.3997 8.59168ZM33.0481 10.2695L34.7259 10.6211L34.3743 12.299L32.6965 11.9474L33.0481 10.2695ZM32.6965 11.9474L34.3743 12.299L34.0227 13.9768L32.3448 13.6252L32.6965 11.9474ZM32.3448 13.6252L34.0227 13.9768L33.671 15.6547L31.9932 15.303L32.3448 13.6252ZM31.9932 15.303L33.671 15.6547L33.3194 17.3325L31.6416 16.9809L31.9932 15.303ZM30.3154 14.9514L31.9932 15.303L31.6416 16.9809L29.9637 16.6292L30.3154 14.9514ZM30.667 13.2736L32.3448 13.6252L31.9932 15.303L30.3154 14.9514L30.667 13.2736ZM31.0186 11.5957L32.6965 11.9474L32.3448 13.6252L30.667 13.2736L31.0186 11.5957ZM29.9637 16.6292L31.6416 16.9809L31.29 18.6587L29.6121 18.3071L29.9637 16.6292ZM31.6416 16.9809L33.3194 17.3325L32.9678 19.0103L31.29 18.6587L31.6416 16.9809ZM31.29 18.6587L32.9678 19.0103L32.6162 20.6882L30.9383 20.3365L31.29 18.6587ZM30.9383 20.3365L32.6162 20.6882L32.2645 22.366L30.5867 22.0144L30.9383 20.3365ZM29.2605 19.9849L30.9383 20.3365L30.5867 22.0144L28.9089 21.6627L29.2605 19.9849ZM29.6121 18.3071L31.29 18.6587L30.9383 20.3365L29.2605 19.9849L29.6121 18.3071ZM34.7259 10.6211L36.4038 10.9728L36.0521 12.6506L34.3743 12.299L34.7259 10.6211ZM36.4038 10.9728L38.0816 11.3244L37.73 13.0022L36.0521 12.6506L36.4038 10.9728ZM38.0816 11.3244L39.7594 11.676L39.4078 13.3539L37.73 13.0022L38.0816 11.3244ZM38.4332 9.64656L40.1111 9.99818L39.7594 11.676L38.0816 11.3244L38.4332 9.64656ZM36.7554 9.29493L38.4332 9.64656L38.0816 11.3244L36.4038 10.9728L36.7554 9.29493ZM34.3743 12.299L36.0521 12.6506L35.7005 14.3284L34.0227 13.9768L34.3743 12.299ZM39.7594 11.676L41.4373 12.0276L41.0856 13.7055L39.4078 13.3539L39.7594 11.676ZM37.73 13.0022L39.4078 13.3539L39.0562 15.0317L37.3783 14.6801L37.73 13.0022ZM44.17 7.34576L47.5257 8.04901L46.8224 11.4047L43.4667 10.7014L44.17 7.34576ZM43.1151 12.3793L46.4708 13.0825L44.0094 24.8274L40.6537 24.1241L43.1151 12.3793ZM53.1149 23.2326L54.7928 23.5842L54.4411 25.262L52.7633 24.9104L53.1149 23.2326ZM52.7633 24.9104L54.4411 25.262L54.0895 26.9399L52.4117 26.5882L52.7633 24.9104ZM51.0855 24.5588L52.7633 24.9104L52.4117 26.5882L50.7339 26.2366L51.0855 24.5588ZM51.4371 22.881L53.1149 23.2326L52.7633 24.9104L51.0855 24.5588L51.4371 22.881ZM49.4076 24.2072L51.0855 24.5588L50.7339 26.2366L49.056 25.885L49.4076 24.2072ZM49.7593 22.5293L51.4371 22.881L51.0855 24.5588L49.4076 24.2072L49.7593 22.5293ZM48.0814 22.1777L49.7593 22.5293L49.4076 24.2072L47.7298 23.8555L48.0814 22.1777ZM48.4331 20.4999L50.1109 20.8515L49.7593 22.5293L48.0814 22.1777L48.4331 20.4999ZM48.7847 18.822L50.4625 19.1737L50.1109 20.8515L48.4331 20.4999L48.7847 18.822ZM49.1363 17.1442L50.8141 17.4958L50.4625 19.1737L48.7847 18.822L49.1363 17.1442ZM49.4879 15.4664L51.1658 15.818L50.8141 17.4958L49.1363 17.1442L49.4879 15.4664ZM49.8396 13.7885L51.5174 14.1401L51.1658 15.818L49.4879 15.4664L49.8396 13.7885ZM50.4625 19.1737L52.1404 19.5253L51.7887 21.2031L50.1109 20.8515L50.4625 19.1737ZM50.1109 20.8515L51.7887 21.2031L51.4371 22.881L49.7593 22.5293L50.1109 20.8515ZM50.8141 17.4958L52.492 17.8474L52.1404 19.5253L50.4625 19.1737L50.8141 17.4958ZM51.1658 15.818L52.8436 16.1696L52.492 17.8474L50.8141 17.4958L51.1658 15.818ZM52.5723 9.10664L54.2501 9.45826L53.8985 11.1361L52.2206 10.7845L52.5723 9.10664ZM52.2206 10.7845L53.8985 11.1361L53.5469 12.8139L51.869 12.4623L52.2206 10.7845ZM51.869 12.4623L53.5469 12.8139L53.1952 14.4918L51.5174 14.1401L51.869 12.4623ZM51.5174 14.1401L53.1952 14.4918L52.8436 16.1696L51.1658 15.818L51.5174 14.1401ZM50.1912 12.1107L51.869 12.4623L51.5174 14.1401L49.8396 13.7885L50.1912 12.1107ZM48.1617 13.4369L49.8396 13.7885L49.4879 15.4664L47.8101 15.1147L48.1617 13.4369ZM53.1952 14.4918L54.8731 14.8434L54.5214 16.5212L52.8436 16.1696L53.1952 14.4918ZM54.8731 14.8434L56.5509 15.195L56.1993 16.8729L54.5214 16.5212L54.8731 14.8434ZM50.5428 10.4328L52.2206 10.7845L51.869 12.4623L50.1912 12.1107L50.5428 10.4328ZM47.8101 15.1147L49.4879 15.4664L49.1363 17.1442L47.4585 16.7926L47.8101 15.1147ZM52.8436 16.1696L54.5214 16.5212L54.1698 18.1991L52.492 17.8474L52.8436 16.1696ZM54.5214 16.5212L56.1993 16.8729L55.8477 18.5507L54.1698 18.1991L54.5214 16.5212ZM61.9317 14.5711L63.6095 14.9228L63.2579 16.6006L61.58 16.249L61.9317 14.5711ZM60.2538 14.2195L61.9317 14.5711L61.58 16.249L59.9022 15.8974L60.2538 14.2195ZM59.9022 15.8974L61.58 16.249L61.2284 17.9268L59.5506 17.5752L59.9022 15.8974ZM61.58 16.249L63.2579 16.6006L62.9063 18.2784L61.2284 17.9268L61.58 16.249ZM63.6095 14.9228L65.2873 15.2744L64.9357 16.9522L63.2579 16.6006L63.6095 14.9228ZM65.2873 15.2744L66.9652 15.626L66.6136 17.3039L64.9357 16.9522L65.2873 15.2744ZM66.9652 15.626L68.643 15.9776L68.2914 17.6555L66.6136 17.3039L66.9652 15.626ZM66.6136 17.3039L68.2914 17.6555L67.9398 19.3333L66.2619 18.9817L66.6136 17.3039ZM64.9357 16.9522L66.6136 17.3039L66.2619 18.9817L64.5841 18.6301L64.9357 16.9522ZM68.2914 17.6555L69.9692 18.0071L69.6176 19.6849L67.9398 19.3333L68.2914 17.6555ZM67.9398 19.3333L69.6176 19.6849L69.266 21.3628L67.5881 21.0112L67.9398 19.3333ZM66.5333 26.0447L68.2111 26.3963L67.8595 28.0741L66.1816 27.7225L66.5333 26.0447ZM64.8554 25.693L66.5333 26.0447L66.1816 27.7225L64.5038 27.3709L64.8554 25.693ZM66.2619 18.9817L67.9398 19.3333L67.5881 21.0112L65.9103 20.6595L66.2619 18.9817ZM63.1776 25.3414L64.8554 25.693L64.5038 27.3709L62.826 27.0192L63.1776 25.3414ZM64.5038 27.3709L66.1816 27.7225L65.83 29.4003L64.1522 29.0487L64.5038 27.3709ZM62.826 27.0192L64.5038 27.3709L64.1522 29.0487L62.4743 28.6971L62.826 27.0192ZM61.1481 26.6676L62.826 27.0192L62.4743 28.6971L60.7965 28.3455L61.1481 26.6676ZM59.4703 26.316L61.1481 26.6676L60.7965 28.3455L59.1187 27.9938L59.4703 26.316ZM57.7925 25.9644L59.4703 26.316L59.1187 27.9938L57.4408 27.6422L57.7925 25.9644ZM58.1441 24.2865L59.8219 24.6382L59.4703 26.316L57.7925 25.9644L58.1441 24.2865ZM59.8219 24.6382L61.4998 24.9898L61.1481 26.6676L59.4703 26.316L59.8219 24.6382ZM58.4957 22.6087L60.1735 22.9603L59.8219 24.6382L58.1441 24.2865L58.4957 22.6087ZM56.4662 23.9349L58.1441 24.2865L57.7925 25.9644L56.1146 25.6127L56.4662 23.9349ZM56.8179 22.2571L58.4957 22.6087L58.1441 24.2865L56.4662 23.9349L56.8179 22.2571ZM57.1695 20.5792L58.8473 20.9309L58.4957 22.6087L56.8179 22.2571L57.1695 20.5792ZM57.5211 18.9014L59.199 19.253L58.8473 20.9309L57.1695 20.5792L57.5211 18.9014ZM57.8727 17.2236L59.5506 17.5752L59.199 19.253L57.5211 18.9014L57.8727 17.2236ZM58.2244 15.5457L59.9022 15.8974L59.5506 17.5752L57.8727 17.2236L58.2244 15.5457ZM59.5506 17.5752L61.2284 17.9268L60.8768 19.6047L59.199 19.253L59.5506 17.5752ZM59.199 19.253L60.8768 19.6047L60.5252 21.2825L58.8473 20.9309L59.199 19.253ZM58.8473 20.9309L60.5252 21.2825L60.1735 22.9603L58.4957 22.6087L58.8473 20.9309ZM61.4998 24.9898L63.1776 25.3414L62.826 27.0192L61.1481 26.6676L61.4998 24.9898ZM63.2579 16.6006L64.9357 16.9522L64.5841 18.6301L62.9063 18.2784L63.2579 16.6006ZM65.9103 20.6595L67.5881 21.0112L67.2365 22.689L65.5587 22.3374L65.9103 20.6595ZM67.5881 21.0112L69.266 21.3628L68.9143 23.0406L67.2365 22.689L67.5881 21.0112ZM60.5252 21.2825L62.203 21.6341L61.8514 23.312L60.1735 22.9603L60.5252 21.2825ZM62.203 21.6341L63.8808 21.9857L63.5292 23.6636L61.8514 23.312L62.203 21.6341ZM63.8808 21.9857L65.5587 22.3374L65.207 24.0152L63.5292 23.6636L63.8808 21.9857ZM65.5587 22.3374L67.2365 22.689L66.8849 24.3668L65.207 24.0152L65.5587 22.3374ZM67.2365 22.689L68.9143 23.0406L68.5627 24.7185L66.8849 24.3668L67.2365 22.689ZM64.2325 20.3079L65.9103 20.6595L65.5587 22.3374L63.8808 21.9857L64.2325 20.3079ZM62.5546 19.9563L64.2325 20.3079L63.8808 21.9857L62.203 21.6341L62.5546 19.9563ZM60.8768 19.6047L62.5546 19.9563L62.203 21.6341L60.5252 21.2825L60.8768 19.6047ZM78.3497 19.7634L80.0275 20.115L79.6759 21.7929L77.998 21.4412L78.3497 19.7634ZM79.6759 21.7929L81.3537 22.1445L81.0021 23.8223L79.3243 23.4707L79.6759 21.7929ZM77.998 21.4412L79.6759 21.7929L79.3243 23.4707L77.6464 23.1191L77.998 21.4412ZM77.6464 23.1191L79.3243 23.4707L78.9726 25.1485L77.2948 24.7969L77.6464 23.1191ZM79.3243 23.4707L81.0021 23.8223L80.6505 25.5002L78.9726 25.1485L79.3243 23.4707ZM78.9726 25.1485L80.6505 25.5002L80.2988 27.178L78.621 26.8264L78.9726 25.1485ZM80.6505 25.5002L82.3283 25.8518L81.9767 27.5296L80.2988 27.178L80.6505 25.5002ZM82.3283 25.8518L84.0061 26.2034L83.6545 27.8812L81.9767 27.5296L82.3283 25.8518ZM84.3578 24.5256L86.0356 24.8772L85.684 26.555L84.0061 26.2034L84.3578 24.5256ZM82.6799 24.1739L84.3578 24.5256L84.0061 26.2034L82.3283 25.8518L82.6799 24.1739ZM81.0021 23.8223L82.6799 24.1739L82.3283 25.8518L80.6505 25.5002L81.0021 23.8223ZM84.0061 26.2034L85.684 26.555L85.3323 28.2329L83.6545 27.8812L84.0061 26.2034ZM85.684 26.555L87.3618 26.9067L87.0102 28.5845L85.3323 28.2329L85.684 26.555ZM85.3323 28.2329L87.0102 28.5845L86.6586 30.2623L84.9807 29.9107L85.3323 28.2329ZM83.6545 27.8812L85.3323 28.2329L84.9807 29.9107L83.3029 29.5591L83.6545 27.8812ZM83.3029 29.5591L84.9807 29.9107L84.6291 31.5885L82.9513 31.2369L83.3029 29.5591ZM84.9807 29.9107L86.6586 30.2623L86.3069 31.9402L84.6291 31.5885L84.9807 29.9107ZM82.9513 31.2369L84.6291 31.5885L84.2775 33.2664L82.5996 32.9148L82.9513 31.2369ZM81.625 29.2075L83.3029 29.5591L82.9513 31.2369L81.2734 30.8853L81.625 29.2075ZM79.9472 28.8558L81.625 29.2075L81.2734 30.8853L79.5956 30.5337L79.9472 28.8558ZM78.2694 28.5042L79.9472 28.8558L79.5956 30.5337L77.9178 30.182L78.2694 28.5042ZM76.5915 28.1526L78.2694 28.5042L77.9178 30.182L76.2399 29.8304L76.5915 28.1526ZM77.9178 30.182L79.5956 30.5337L79.244 32.2115L77.5661 31.8599L77.9178 30.182ZM79.5956 30.5337L81.2734 30.8853L80.9218 32.5631L79.244 32.2115L79.5956 30.5337ZM81.2734 30.8853L82.9513 31.2369L82.5996 32.9148L80.9218 32.5631L81.2734 30.8853ZM86.7388 21.5215L88.4167 21.8732L88.0651 23.551L86.3872 23.1994L86.7388 21.5215ZM85.061 21.1699L86.7388 21.5215L86.3872 23.1994L84.7094 22.8477L85.061 21.1699ZM85.4126 19.4921L87.0905 19.8437L86.7388 21.5215L85.061 21.1699L85.4126 19.4921ZM83.7348 19.1404L85.4126 19.4921L85.061 21.1699L83.3832 20.8183L83.7348 19.1404ZM82.057 18.7888L83.7348 19.1404L83.3832 20.8183L81.7053 20.4667L82.057 18.7888ZM80.3791 18.4372L82.057 18.7888L81.7053 20.4667L80.0275 20.115L80.3791 18.4372ZM80.0275 20.115L81.7053 20.4667L81.3537 22.1445L79.6759 21.7929L80.0275 20.115ZM81.7053 20.4667L83.3832 20.8183L83.0316 22.4961L81.3537 22.1445L81.7053 20.4667ZM83.3832 20.8183L85.061 21.1699L84.7094 22.8477L83.0316 22.4961L83.3832 20.8183ZM93.8018 21.2502L95.4797 21.6018L95.128 23.2797L93.4502 22.928L93.8018 21.2502ZM92.124 20.8986L93.8018 21.2502L93.4502 22.928L91.7724 22.5764L92.124 20.8986ZM91.7724 22.5764L93.4502 22.928L93.0986 24.6059L91.4207 24.2542L91.7724 22.5764ZM93.4502 22.928L95.128 23.2797L94.7764 24.9575L93.0986 24.6059L93.4502 22.928ZM95.4797 21.6018L97.1575 21.9534L96.8059 23.6313L95.128 23.2797L95.4797 21.6018ZM97.1575 21.9534L98.8353 22.3051L98.4837 23.9829L96.8059 23.6313L97.1575 21.9534ZM98.8353 22.3051L100.513 22.6567L100.162 24.3345L98.4837 23.9829L98.8353 22.3051ZM98.4837 23.9829L100.162 24.3345L99.8099 26.0124L98.1321 25.6607L98.4837 23.9829ZM96.8059 23.6313L98.4837 23.9829L98.1321 25.6607L96.4542 25.3091L96.8059 23.6313ZM97.7805 27.3386L99.4583 27.6902L99.1067 29.368L97.4288 29.0164L97.7805 27.3386ZM100.162 24.3345L101.839 24.6862L101.488 26.364L99.8099 26.0124L100.162 24.3345ZM99.8099 26.0124L101.488 26.364L101.136 28.0418L99.4583 27.6902L99.8099 26.0124ZM99.4583 27.6902L101.136 28.0418L100.785 29.7197L99.1067 29.368L99.4583 27.6902ZM99.1067 29.368L100.785 29.7197L100.433 31.3975L98.755 31.0459L99.1067 29.368ZM98.755 31.0459L100.433 31.3975L100.081 33.0753L98.4034 32.7237L98.755 31.0459ZM98.4034 32.7237L100.081 33.0753L99.7296 34.7532L98.0518 34.4015L98.4034 32.7237ZM96.7256 32.3721L98.4034 32.7237L98.0518 34.4015L96.374 34.0499L96.7256 32.3721ZM97.0772 30.6942L98.755 31.0459L98.4034 32.7237L96.7256 32.3721L97.0772 30.6942ZM97.4288 29.0164L99.1067 29.368L98.755 31.0459L97.0772 30.6942L97.4288 29.0164ZM98.1321 25.6607L99.8099 26.0124L99.4583 27.6902L97.7805 27.3386L98.1321 25.6607ZM95.0477 32.0205L96.7256 32.3721L96.374 34.0499L94.6961 33.6983L95.0477 32.0205ZM96.374 34.0499L98.0518 34.4015L97.7002 36.0794L96.0223 35.7278L96.374 34.0499ZM94.6961 33.6983L96.374 34.0499L96.0223 35.7278L94.3445 35.3761L94.6961 33.6983ZM93.0183 33.3467L94.6961 33.6983L94.3445 35.3761L92.6667 35.0245L93.0183 33.3467ZM91.3404 32.995L93.0183 33.3467L92.6667 35.0245L90.9888 34.6729L91.3404 32.995ZM89.6626 32.6434L91.3404 32.995L90.9888 34.6729L89.311 34.3213L89.6626 32.6434ZM90.0142 30.9656L91.6921 31.3172L91.3404 32.995L89.6626 32.6434L90.0142 30.9656ZM91.6921 31.3172L93.3699 31.6688L93.0183 33.3467L91.3404 32.995L91.6921 31.3172ZM90.3659 29.2877L92.0437 29.6394L91.6921 31.3172L90.0142 30.9656L90.3659 29.2877ZM88.3364 30.614L90.0142 30.9656L89.6626 32.6434L87.9848 32.2918L88.3364 30.614ZM88.688 28.9361L90.3659 29.2877L90.0142 30.9656L88.3364 30.614L88.688 28.9361ZM89.0396 27.2583L90.7175 27.6099L90.3659 29.2877L88.688 28.9361L89.0396 27.2583ZM89.3913 25.5805L91.0691 25.9321L90.7175 27.6099L89.0396 27.2583L89.3913 25.5805ZM89.7429 23.9026L91.4207 24.2542L91.0691 25.9321L89.3913 25.5805L89.7429 23.9026ZM90.0945 22.2248L91.7724 22.5764L91.4207 24.2542L89.7429 23.9026L90.0945 22.2248ZM91.4207 24.2542L93.0986 24.6059L92.7469 26.2837L91.0691 25.9321L91.4207 24.2542ZM91.0691 25.9321L92.7469 26.2837L92.3953 27.9615L90.7175 27.6099L91.0691 25.9321ZM90.7175 27.6099L92.3953 27.9615L92.0437 29.6394L90.3659 29.2877L90.7175 27.6099ZM93.3699 31.6688L95.0477 32.0205L94.6961 33.6983L93.0183 33.3467L93.3699 31.6688ZM95.128 23.2797L96.8059 23.6313L96.4542 25.3091L94.7764 24.9575L95.128 23.2797ZM103.522 25.0387L105.199 25.3903L104.848 27.0682L103.17 26.7165L103.522 25.0387ZM103.873 23.3609L105.551 23.7125L105.199 25.3903L103.522 25.0387L103.873 23.3609ZM105.551 23.7125L107.229 24.0641L106.877 25.7419L105.199 25.3903L105.551 23.7125ZM105.199 25.3903L106.877 25.7419L106.526 27.4198L104.848 27.0682L105.199 25.3903ZM104.848 27.0682L106.526 27.4198L106.174 29.0976L104.496 28.746L104.848 27.0682ZM104.496 28.746L106.174 29.0976L105.822 30.7755L104.145 30.4238L104.496 28.746ZM104.145 30.4238L105.822 30.7755L105.471 32.4533L103.793 32.1017L104.145 30.4238ZM102.467 30.0722L104.145 30.4238L103.793 32.1017L102.115 31.75L102.467 30.0722ZM102.818 28.3944L104.496 28.746L104.145 30.4238L102.467 30.0722L102.818 28.3944ZM103.17 26.7165L104.848 27.0682L104.496 28.746L102.818 28.3944L103.17 26.7165ZM102.115 31.75L103.793 32.1017L103.441 33.7795L101.763 33.4279L102.115 31.75ZM103.793 32.1017L105.471 32.4533L105.119 34.1311L103.441 33.7795L103.793 32.1017ZM103.441 33.7795L105.119 34.1311L104.768 35.809L103.09 35.4573L103.441 33.7795ZM103.09 35.4573L104.768 35.809L104.416 37.4868L102.738 37.1352L103.09 35.4573ZM101.412 35.1057L103.09 35.4573L102.738 37.1352L101.06 36.7835L101.412 35.1057ZM101.763 33.4279L103.441 33.7795L103.09 35.4573L101.412 35.1057L101.763 33.4279ZM108.123 36.5122L109.801 36.8638L109.449 38.5417L107.772 38.1901L108.123 36.5122ZM109.801 36.8638L111.479 37.2155L111.127 38.8933L109.449 38.5417L109.801 36.8638ZM110.153 35.186L111.83 35.5376L111.479 37.2155L109.801 36.8638L110.153 35.186ZM110.504 33.5082L112.182 33.8598L111.83 35.5376L110.153 35.186L110.504 33.5082ZM110.856 31.8303L112.534 32.182L112.182 33.8598L110.504 33.5082L110.856 31.8303ZM111.208 30.1525L112.885 30.5041L112.534 32.182L110.856 31.8303L111.208 30.1525ZM111.559 28.4747L113.237 28.8263L112.885 30.5041L111.208 30.1525L111.559 28.4747ZM111.911 26.7968L113.589 27.1484L113.237 28.8263L111.559 28.4747L111.911 26.7968ZM109.53 29.8009L111.208 30.1525L110.856 31.8303L109.178 31.4787L109.53 29.8009ZM109.178 31.4787L110.856 31.8303L110.504 33.5082L108.826 33.1565L109.178 31.4787ZM108.826 33.1565L110.504 33.5082L110.153 35.186L108.475 34.8344L108.826 33.1565ZM108.475 34.8344L110.153 35.186L109.801 36.8638L108.123 36.5122L108.475 34.8344ZM109.881 28.123L111.559 28.4747L111.208 30.1525L109.53 29.8009L109.881 28.123ZM106.877 25.7419L108.555 26.0936L108.203 27.7714L106.526 27.4198L106.877 25.7419ZM108.555 26.0936L110.233 26.4452L109.881 28.123L108.203 27.7714L108.555 26.0936ZM110.585 24.7674L112.262 25.119L111.911 26.7968L110.233 26.4452L110.585 24.7674ZM110.233 26.4452L111.911 26.7968L111.559 28.4747L109.881 28.123L110.233 26.4452ZM108.907 24.4157L110.585 24.7674L110.233 26.4452L108.555 26.0936L108.907 24.4157ZM114.835 37.9187L116.512 38.2703L116.161 39.9482L114.483 39.5966L114.835 37.9187ZM116.512 38.2703L118.19 38.622L117.839 40.2998L116.161 39.9482L116.512 38.2703ZM116.864 36.5925L118.542 36.9441L118.19 38.622L116.512 38.2703L116.864 36.5925ZM117.216 34.9147L118.893 35.2663L118.542 36.9441L116.864 36.5925L117.216 34.9147ZM117.567 33.2368L119.245 33.5885L118.893 35.2663L117.216 34.9147L117.567 33.2368ZM117.919 31.559L119.597 31.9106L119.245 33.5885L117.567 33.2368L117.919 31.559ZM118.27 29.8812L119.948 30.2328L119.597 31.9106L117.919 31.559L118.27 29.8812ZM118.622 28.2033L120.3 28.5549L119.948 30.2328L118.27 29.8812L118.622 28.2033ZM116.241 31.2074L117.919 31.559L117.567 33.2368L115.889 32.8852L116.241 31.2074ZM115.889 32.8852L117.567 33.2368L117.216 34.9147L115.538 34.563L115.889 32.8852ZM115.538 34.563L117.216 34.9147L116.864 36.5925L115.186 36.2409L115.538 34.563ZM115.186 36.2409L116.864 36.5925L116.512 38.2703L114.835 37.9187L115.186 36.2409ZM116.593 29.5295L118.27 29.8812L117.919 31.559L116.241 31.2074L116.593 29.5295ZM113.589 27.1484L115.266 27.5001L114.915 29.1779L113.237 28.8263L113.589 27.1484ZM115.266 27.5001L116.944 27.8517L116.593 29.5295L114.915 29.1779L115.266 27.5001ZM117.296 26.1739L118.974 26.5255L118.622 28.2033L116.944 27.8517L117.296 26.1739ZM116.944 27.8517L118.622 28.2033L118.27 29.8812L116.593 29.5295L116.944 27.8517ZM115.618 25.8222L117.296 26.1739L116.944 27.8517L115.266 27.5001L115.618 25.8222ZM125.672 27.9292L127.35 28.2809L126.998 29.9587L125.32 29.6071L125.672 27.9292ZM123.994 27.5776L125.672 27.9292L125.32 29.6071L123.643 29.2555L123.994 27.5776ZM123.643 29.2555L125.32 29.6071L124.969 31.2849L123.291 30.9333L123.643 29.2555ZM125.32 29.6071L126.998 29.9587L126.647 31.6365L124.969 31.2849L125.32 29.6071ZM127.35 28.2809L129.028 28.6325L128.676 30.3103L126.998 29.9587L127.35 28.2809ZM129.028 28.6325L130.705 28.9841L130.354 30.662L128.676 30.3103L129.028 28.6325ZM130.705 28.9841L132.383 29.3357L132.032 31.0136L130.354 30.662L130.705 28.9841ZM130.354 30.662L132.032 31.0136L131.68 32.6914L130.002 32.3398L130.354 30.662ZM128.676 30.3103L130.354 30.662L130.002 32.3398L128.324 31.9882L128.676 30.3103ZM132.032 31.0136L133.71 31.3652L133.358 33.043L131.68 32.6914L132.032 31.0136ZM131.68 32.6914L133.358 33.043L133.006 34.7209L131.328 34.3693L131.68 32.6914ZM130.274 39.4028L131.951 39.7544L131.6 41.4322L129.922 41.0806L130.274 39.4028ZM128.596 39.0511L130.274 39.4028L129.922 41.0806L128.244 40.729L128.596 39.0511ZM130.002 32.3398L131.68 32.6914L131.328 34.3693L129.651 34.0176L130.002 32.3398ZM126.918 38.6995L128.596 39.0511L128.244 40.729L126.566 40.3773L126.918 38.6995ZM128.244 40.729L129.922 41.0806L129.57 42.7584L127.892 42.4068L128.244 40.729ZM126.566 40.3773L128.244 40.729L127.892 42.4068L126.215 42.0552L126.566 40.3773ZM124.888 40.0257L126.566 40.3773L126.215 42.0552L124.537 41.7036L124.888 40.0257ZM123.211 39.6741L124.888 40.0257L124.537 41.7036L122.859 41.3519L123.211 39.6741ZM121.533 39.3225L123.211 39.6741L122.859 41.3519L121.181 41.0003L121.533 39.3225ZM121.884 37.6446L123.562 37.9963L123.211 39.6741L121.533 39.3225L121.884 37.6446ZM123.562 37.9963L125.24 38.3479L124.888 40.0257L123.211 39.6741L123.562 37.9963ZM122.236 35.9668L123.914 36.3184L123.562 37.9963L121.884 37.6446L122.236 35.9668ZM120.207 37.293L121.884 37.6446L121.533 39.3225L119.855 38.9708L120.207 37.293ZM120.558 35.6152L122.236 35.9668L121.884 37.6446L120.207 37.293L120.558 35.6152ZM120.91 33.9373L122.588 34.289L122.236 35.9668L120.558 35.6152L120.91 33.9373ZM121.261 32.2595L122.939 32.6111L122.588 34.289L120.91 33.9373L121.261 32.2595ZM121.613 30.5817L123.291 30.9333L122.939 32.6111L121.261 32.2595L121.613 30.5817ZM121.965 28.9038L123.643 29.2555L123.291 30.9333L121.613 30.5817L121.965 28.9038ZM123.291 30.9333L124.969 31.2849L124.617 32.9627L122.939 32.6111L123.291 30.9333ZM122.939 32.6111L124.617 32.9627L124.265 34.6406L122.588 34.289L122.939 32.6111ZM122.588 34.289L124.265 34.6406L123.914 36.3184L122.236 35.9668L122.588 34.289ZM125.24 38.3479L126.918 38.6995L126.566 40.3773L124.888 40.0257L125.24 38.3479ZM126.998 29.9587L128.676 30.3103L128.324 31.9882L126.647 31.6365L126.998 29.9587ZM129.651 34.0176L131.328 34.3693L130.977 36.0471L129.299 35.6955L129.651 34.0176ZM131.328 34.3693L133.006 34.7209L132.655 36.3987L130.977 36.0471L131.328 34.3693ZM124.265 34.6406L125.943 34.9922L125.592 36.67L123.914 36.3184L124.265 34.6406ZM125.943 34.9922L127.621 35.3438L127.27 37.0217L125.592 36.67L125.943 34.9922ZM127.621 35.3438L129.299 35.6955L128.947 37.3733L127.27 37.0217L127.621 35.3438ZM129.299 35.6955L130.977 36.0471L130.625 37.7249L128.947 37.3733L129.299 35.6955ZM130.977 36.0471L132.655 36.3987L132.303 38.0765L130.625 37.7249L130.977 36.0471ZM127.973 33.666L129.651 34.0176L129.299 35.6955L127.621 35.3438L127.973 33.666ZM126.295 33.3144L127.973 33.666L127.621 35.3438L125.943 34.9922L126.295 33.3144ZM124.617 32.9627L126.295 33.3144L125.943 34.9922L124.265 34.6406L124.617 32.9627ZM140.345 41.5134L142.023 41.8651L141.671 43.5429L139.993 43.1913L140.345 41.5134ZM139.993 43.1913L141.671 43.5429L141.32 45.2207L139.642 44.8691L139.993 43.1913ZM138.315 42.8396L139.993 43.1913L139.642 44.8691L137.964 44.5175L138.315 42.8396ZM138.667 41.1618L140.345 41.5134L139.993 43.1913L138.315 42.8396L138.667 41.1618ZM136.638 42.488L138.315 42.8396L137.964 44.5175L136.286 44.1658L136.638 42.488ZM136.989 40.8102L138.667 41.1618L138.315 42.8396L136.638 42.488L136.989 40.8102ZM135.311 40.4586L136.989 40.8102L136.638 42.488L134.96 42.1364L135.311 40.4586ZM135.663 38.7807L137.341 39.1323L136.989 40.8102L135.311 40.4586L135.663 38.7807ZM136.015 37.1029L137.693 37.4545L137.341 39.1323L135.663 38.7807L136.015 37.1029ZM136.366 35.425L138.044 35.7767L137.693 37.4545L136.015 37.1029L136.366 35.425ZM136.718 33.7472L138.396 34.0988L138.044 35.7767L136.366 35.425L136.718 33.7472ZM137.07 32.0694L138.747 32.421L138.396 34.0988L136.718 33.7472L137.07 32.0694ZM137.693 37.4545L139.37 37.8061L139.019 39.484L137.341 39.1323L137.693 37.4545ZM137.341 39.1323L139.019 39.484L138.667 41.1618L136.989 40.8102L137.341 39.1323ZM138.044 35.7767L139.722 36.1283L139.37 37.8061L137.693 37.4545L138.044 35.7767ZM138.396 34.0988L140.074 34.4505L139.722 36.1283L138.044 35.7767L138.396 34.0988ZM139.802 27.3875L141.48 27.7391L141.128 29.4169L139.451 29.0653L139.802 27.3875ZM139.451 29.0653L141.128 29.4169L140.777 31.0948L139.099 30.7432L139.451 29.0653ZM139.099 30.7432L140.777 31.0948L140.425 32.7726L138.747 32.421L139.099 30.7432ZM138.747 32.421L140.425 32.7726L140.074 34.4505L138.396 34.0988L138.747 32.421ZM137.421 30.3915L139.099 30.7432L138.747 32.421L137.07 32.0694L137.421 30.3915ZM135.392 31.7177L137.07 32.0694L136.718 33.7472L135.04 33.3956L135.392 31.7177ZM140.425 32.7726L142.103 33.1242L141.751 34.8021L140.074 34.4505L140.425 32.7726ZM142.103 33.1242L143.781 33.4759L143.429 35.1537L141.751 34.8021L142.103 33.1242ZM137.773 28.7137L139.451 29.0653L139.099 30.7432L137.421 30.3915L137.773 28.7137ZM135.04 33.3956L136.718 33.7472L136.366 35.425L134.688 35.0734L135.04 33.3956ZM140.074 34.4505L141.751 34.8021L141.4 36.4799L139.722 36.1283L140.074 34.4505ZM141.751 34.8021L143.429 35.1537L143.078 36.8315L141.4 36.4799L141.751 34.8021ZM145.454 33.8266L147.132 34.1782L146.781 35.856L145.103 35.5044L145.454 33.8266ZM145.806 32.1487L147.484 32.5004L147.132 34.1782L145.454 33.8266L145.806 32.1487ZM147.484 32.5004L149.162 32.852L148.81 34.5298L147.132 34.1782L147.484 32.5004ZM147.132 34.1782L148.81 34.5298L148.458 36.2077L146.781 35.856L147.132 34.1782ZM146.781 35.856L148.458 36.2077L148.107 37.8855L146.429 37.5339L146.781 35.856ZM146.429 37.5339L148.107 37.8855L147.755 39.5633L146.077 39.2117L146.429 37.5339ZM146.077 39.2117L147.755 39.5633L147.404 41.2412L145.726 40.8895L146.077 39.2117ZM144.4 38.8601L146.077 39.2117L145.726 40.8895L144.048 40.5379L144.4 38.8601ZM144.751 37.1823L146.429 37.5339L146.077 39.2117L144.4 38.8601L144.751 37.1823ZM145.103 35.5044L146.781 35.856L146.429 37.5339L144.751 37.1823L145.103 35.5044ZM144.048 40.5379L145.726 40.8895L145.374 42.5674L143.696 42.2158L144.048 40.5379ZM145.726 40.8895L147.404 41.2412L147.052 42.919L145.374 42.5674L145.726 40.8895ZM145.374 42.5674L147.052 42.919L146.7 44.5968L145.022 44.2452L145.374 42.5674ZM145.022 44.2452L146.7 44.5968L146.349 46.2747L144.671 45.9231L145.022 44.2452ZM143.345 43.8936L145.022 44.2452L144.671 45.9231L142.993 45.5714L143.345 43.8936ZM143.696 42.2158L145.374 42.5674L145.022 44.2452L143.345 43.8936L143.696 42.2158ZM151.734 45.6517L153.412 46.0033L153.06 47.6812L151.382 47.3296L151.734 45.6517ZM153.412 46.0033L155.089 46.355L154.738 48.0328L153.06 47.6812L153.412 46.0033ZM153.763 44.3255L155.441 44.6771L155.089 46.355L153.412 46.0033L153.763 44.3255ZM154.115 42.6477L155.793 42.9993L155.441 44.6771L153.763 44.3255L154.115 42.6477ZM154.467 40.9698L156.144 41.3215L155.793 42.9993L154.115 42.6477L154.467 40.9698ZM154.818 39.292L156.496 39.6436L156.144 41.3215L154.467 40.9698L154.818 39.292ZM155.17 37.6142L156.848 37.9658L156.496 39.6436L154.818 39.292L155.17 37.6142ZM155.521 35.9363L157.199 36.288L156.848 37.9658L155.17 37.6142L155.521 35.9363ZM153.14 38.9404L154.818 39.292L154.467 40.9698L152.789 40.6182L153.14 38.9404ZM152.789 40.6182L154.467 40.9698L154.115 42.6477L152.437 42.2961L152.789 40.6182ZM152.437 42.2961L154.115 42.6477L153.763 44.3255L152.085 43.9739L152.437 42.2961ZM152.085 43.9739L153.763 44.3255L153.412 46.0033L151.734 45.6517L152.085 43.9739ZM153.492 37.2625L155.17 37.6142L154.818 39.292L153.14 38.9404L153.492 37.2625ZM148.81 34.5298L150.488 34.8815L150.136 36.5593L148.458 36.2077L148.81 34.5298ZM150.488 34.8815L152.166 35.2331L151.814 36.9109L150.136 36.5593L150.488 34.8815ZM152.166 35.2331L153.844 35.5847L153.492 37.2625L151.814 36.9109L152.166 35.2331ZM152.517 33.5552L154.195 33.9069L153.844 35.5847L152.166 35.2331L152.517 33.5552ZM154.195 33.9069L155.873 34.2585L155.521 35.9363L153.844 35.5847L154.195 33.9069ZM153.844 35.5847L155.521 35.9363L155.17 37.6142L153.492 37.2625L153.844 35.5847ZM150.84 33.2036L152.517 33.5552L152.166 35.2331L150.488 34.8815L150.84 33.2036ZM146.509 28.7931L148.187 29.1447L147.835 30.8225L146.158 30.4709L146.509 28.7931ZM148.187 29.1447L149.865 29.4963L149.513 31.1742L147.835 30.8225L148.187 29.1447ZM147.835 30.8225L149.513 31.1742L149.162 32.852L147.484 32.5004L147.835 30.8225ZM146.158 30.4709L147.835 30.8225L147.484 32.5004L145.806 32.1487L146.158 30.4709ZM159.936 31.607L163.292 32.3102L162.589 35.6659L159.233 34.9627L159.936 31.607ZM158.881 36.6405L162.237 37.3437L159.776 49.0886L156.42 48.3854L158.881 36.6405ZM163.928 37.6981L165.606 38.0497L165.254 39.7276L163.576 39.376L163.928 37.6981ZM164.28 36.0203L165.958 36.3719L165.606 38.0497L163.928 37.6981L164.28 36.0203ZM165.958 36.3719L167.635 36.7235L167.284 38.4014L165.606 38.0497L165.958 36.3719ZM165.606 38.0497L167.284 38.4014L166.932 40.0792L165.254 39.7276L165.606 38.0497ZM165.254 39.7276L166.932 40.0792L166.58 41.757L164.903 41.4054L165.254 39.7276ZM164.903 41.4054L166.58 41.757L166.229 43.4349L164.551 43.0833L164.903 41.4054ZM164.551 43.0833L166.229 43.4349L165.877 45.1127L164.199 44.7611L164.551 43.0833ZM162.873 42.7316L164.551 43.0833L164.199 44.7611L162.522 44.4095L162.873 42.7316ZM163.225 41.0538L164.903 41.4054L164.551 43.0833L162.873 42.7316L163.225 41.0538ZM163.576 39.376L165.254 39.7276L164.903 41.4054L163.225 41.0538L163.576 39.376ZM162.522 44.4095L164.199 44.7611L163.848 46.4389L162.17 46.0873L162.522 44.4095ZM164.199 44.7611L165.877 45.1127L165.526 46.7906L163.848 46.4389L164.199 44.7611ZM163.848 46.4389L165.526 46.7906L165.174 48.4684L163.496 48.1168L163.848 46.4389ZM163.496 48.1168L165.174 48.4684L164.822 50.1462L163.145 49.7946L163.496 48.1168ZM161.818 47.7651L163.496 48.1168L163.145 49.7946L161.467 49.443L161.818 47.7651ZM162.17 46.0873L163.848 46.4389L163.496 48.1168L161.818 47.7651L162.17 46.0873ZM170.207 49.5233L171.885 49.8749L171.534 51.5527L169.856 51.2011L170.207 49.5233ZM171.885 49.8749L173.563 50.2265L173.212 51.9044L171.534 51.5527L171.885 49.8749ZM172.237 48.1971L173.915 48.5487L173.563 50.2265L171.885 49.8749L172.237 48.1971ZM172.589 46.5192L174.266 46.8708L173.915 48.5487L172.237 48.1971L172.589 46.5192ZM172.94 44.8414L174.618 45.193L174.266 46.8708L172.589 46.5192L172.94 44.8414ZM173.292 43.1635L174.97 43.5152L174.618 45.193L172.94 44.8414L173.292 43.1635ZM173.643 41.4857L175.321 41.8373L174.97 43.5152L173.292 43.1635L173.643 41.4857ZM173.995 39.8079L175.673 40.1595L175.321 41.8373L173.643 41.4857L173.995 39.8079ZM171.614 42.8119L173.292 43.1635L172.94 44.8414L171.262 44.4898L171.614 42.8119ZM171.262 44.4898L172.94 44.8414L172.589 46.5192L170.911 46.1676L171.262 44.4898ZM170.911 46.1676L172.589 46.5192L172.237 48.1971L170.559 47.8454L170.911 46.1676ZM170.559 47.8454L172.237 48.1971L171.885 49.8749L170.207 49.5233L170.559 47.8454ZM171.966 41.1341L173.643 41.4857L173.292 43.1635L171.614 42.8119L171.966 41.1341ZM167.284 38.4014L168.962 38.753L168.61 40.4308L166.932 40.0792L167.284 38.4014ZM168.962 38.753L170.639 39.1046L170.288 40.7825L168.61 40.4308L168.962 38.753ZM170.639 39.1046L172.317 39.4562L171.966 41.1341L170.288 40.7825L170.639 39.1046ZM170.991 37.4268L172.669 37.7784L172.317 39.4562L170.639 39.1046L170.991 37.4268ZM172.669 37.7784L174.347 38.13L173.995 39.8079L172.317 39.4562L172.669 37.7784ZM172.317 39.4562L173.995 39.8079L173.643 41.4857L171.966 41.1341L172.317 39.4562ZM169.313 37.0752L170.991 37.4268L170.639 39.1046L168.962 38.753L169.313 37.0752ZM187.774 40.944L189.452 41.2956L189.1 42.9734L187.422 42.6218L187.774 40.944ZM186.096 40.5923L187.774 40.944L187.422 42.6218L185.744 42.2702L186.096 40.5923ZM184.418 40.2407L186.096 40.5923L185.744 42.2702L184.066 41.9185L184.418 40.2407ZM182.74 39.8891L184.418 40.2407L184.066 41.9185L182.389 41.5669L182.74 39.8891ZM181.062 39.5375L182.74 39.8891L182.389 41.5669L180.711 41.2153L181.062 39.5375ZM180.711 41.2153L182.389 41.5669L182.037 43.2447L180.359 42.8931L180.711 41.2153ZM182.389 41.5669L184.066 41.9185L183.715 43.5964L182.037 43.2447L182.389 41.5669ZM184.066 41.9185L185.744 42.2702L185.393 43.948L183.715 43.5964L184.066 41.9185ZM185.744 42.2702L187.422 42.6218L187.071 44.2996L185.393 43.948L185.744 42.2702ZM187.422 42.6218L189.1 42.9734L188.748 44.6513L187.071 44.2996L187.422 42.6218ZM179.385 39.1858L181.062 39.5375L180.711 41.2153L179.033 40.8637L179.385 39.1858ZM179.033 40.8637L180.711 41.2153L180.359 42.8931L178.681 42.5415L179.033 40.8637ZM178.681 42.5415L180.359 42.8931L180.008 44.571L178.33 44.2193L178.681 42.5415ZM177.003 42.1899L178.681 42.5415L178.33 44.2193L176.652 43.8677L177.003 42.1899ZM177.355 40.512L179.033 40.8637L178.681 42.5415L177.003 42.1899L177.355 40.512ZM176.652 43.8677L178.33 44.2193L177.978 45.8972L176.3 45.5455L176.652 43.8677ZM176.3 45.5455L177.978 45.8972L177.626 47.575L175.949 47.2234L176.3 45.5455ZM177.626 47.575L179.304 47.9266L178.953 49.6045L177.275 49.2528L177.626 47.575ZM177.978 45.8972L179.656 46.2488L179.304 47.9266L177.626 47.575L177.978 45.8972ZM178.33 44.2193L180.008 44.571L179.656 46.2488L177.978 45.8972L178.33 44.2193ZM175.949 47.2234L177.626 47.575L177.275 49.2528L175.597 48.9012L175.949 47.2234ZM177.275 49.2528L178.953 49.6045L178.601 51.2823L176.923 50.9307L177.275 49.2528ZM178.953 49.6045L180.631 49.9561L180.279 51.6339L178.601 51.2823L178.953 49.6045ZM180.631 49.9561L182.308 50.3077L181.957 51.9856L180.279 51.6339L180.631 49.9561ZM183.986 50.6593L185.664 51.011L185.312 52.6888L183.635 52.3372L183.986 50.6593ZM185.664 51.011L187.342 51.3626L186.99 53.0404L185.312 52.6888L185.664 51.011ZM186.016 49.3331L187.693 49.6848L187.342 51.3626L185.664 51.011L186.016 49.3331ZM184.338 48.9815L186.016 49.3331L185.664 51.011L183.986 50.6593L184.338 48.9815ZM182.66 48.6299L184.338 48.9815L183.986 50.6593L182.308 50.3077L182.66 48.6299ZM180.982 48.2783L182.66 48.6299L182.308 50.3077L180.631 49.9561L180.982 48.2783ZM179.304 47.9266L180.982 48.2783L180.631 49.9561L178.953 49.6045L179.304 47.9266ZM184.689 47.3037L186.367 47.6553L186.016 49.3331L184.338 48.9815L184.689 47.3037ZM185.041 45.6258L186.719 45.9775L186.367 47.6553L184.689 47.3037L185.041 45.6258ZM185.393 43.948L187.071 44.2996L186.719 45.9775L185.041 45.6258L185.393 43.948ZM187.071 44.2996L188.748 44.6513L188.397 46.3291L186.719 45.9775L187.071 44.2996ZM186.719 45.9775L188.397 46.3291L188.045 48.0069L186.367 47.6553L186.719 45.9775ZM186.367 47.6553L188.045 48.0069L187.693 49.6848L186.016 49.3331L186.367 47.6553ZM183.635 52.3372L185.312 52.6888L184.961 54.3666L183.283 54.015L183.635 52.3372ZM183.283 54.015L184.961 54.3666L184.609 56.0445L182.931 55.6929L183.283 54.015ZM184.961 54.3666L186.639 54.7183L186.287 56.3961L184.609 56.0445L184.961 54.3666ZM185.312 52.6888L186.99 53.0404L186.639 54.7183L184.961 54.3666L185.312 52.6888ZM174.894 52.2569L176.572 52.6085L176.22 54.2864L174.542 53.9347L174.894 52.2569ZM176.572 52.6085L178.249 52.9601L177.898 54.638L176.22 54.2864L176.572 52.6085ZM176.22 54.2864L177.898 54.638L177.546 56.3158L175.868 55.9642L176.22 54.2864ZM177.898 54.638L179.576 54.9896L179.224 56.6674L177.546 56.3158L177.898 54.638ZM178.249 52.9601L179.927 53.3118L179.576 54.9896L177.898 54.638L178.249 52.9601ZM179.927 53.3118L181.605 53.6634L181.253 55.3412L179.576 54.9896L179.927 53.3118ZM181.605 53.6634L183.283 54.015L182.931 55.6929L181.253 55.3412L181.605 53.6634ZM182.931 55.6929L184.609 56.0445L184.258 57.7223L182.58 57.3707L182.931 55.6929ZM181.253 55.3412L182.931 55.6929L182.58 57.3707L180.902 57.0191L181.253 55.3412ZM179.576 54.9896L181.253 55.3412L180.902 57.0191L179.224 56.6674L179.576 54.9896ZM4.48482 33.7675L7.84049 34.4708L7.13724 37.8265L3.78157 37.1232L4.48482 33.7675ZM3.42995 38.801L6.78562 39.5043L4.32424 51.2491L0.96857 50.5459L3.42995 38.801ZM8.47656 39.8587L10.1544 40.2103L9.80277 41.8881L8.12494 41.5365L8.47656 39.8587ZM8.82819 38.1808L10.506 38.5325L10.1544 40.2103L8.47656 39.8587L8.82819 38.1808ZM10.506 38.5325L12.1839 38.8841L11.8322 40.5619L10.1544 40.2103L10.506 38.5325ZM10.1544 40.2103L11.8322 40.5619L11.4806 42.2398L9.80277 41.8881L10.1544 40.2103ZM9.80277 41.8881L11.4806 42.2398L11.129 43.9176L9.45115 43.566L9.80277 41.8881ZM9.45115 43.566L11.129 43.9176L10.7774 45.5954L9.09952 45.2438L9.45115 43.566ZM9.09952 45.2438L10.7774 45.5954L10.4257 47.2733L8.7479 46.9216L9.09952 45.2438ZM7.42169 44.8922L9.09952 45.2438L8.7479 46.9216L7.07006 46.57L7.42169 44.8922ZM7.77331 43.2143L9.45115 43.566L9.09952 45.2438L7.42169 44.8922L7.77331 43.2143ZM8.12494 41.5365L9.80277 41.8881L9.45115 43.566L7.77331 43.2143L8.12494 41.5365ZM7.07006 46.57L8.7479 46.9216L8.39627 48.5995L6.71844 48.2478L7.07006 46.57ZM8.7479 46.9216L10.4257 47.2733L10.0741 48.9511L8.39627 48.5995L8.7479 46.9216ZM8.39627 48.5995L10.0741 48.9511L9.72248 50.6289L8.04465 50.2773L8.39627 48.5995ZM8.04465 50.2773L9.72248 50.6289L9.37086 52.3068L7.69302 51.9551L8.04465 50.2773ZM6.36681 49.9257L8.04465 50.2773L7.69302 51.9551L6.01519 51.6035L6.36681 49.9257ZM6.71844 48.2478L8.39627 48.5995L8.04465 50.2773L6.36681 49.9257L6.71844 48.2478ZM14.756 51.6838L16.4338 52.0354L16.0822 53.7133L14.4044 53.3616L14.756 51.6838ZM16.4338 52.0354L18.1117 52.3871L17.76 54.0649L16.0822 53.7133L16.4338 52.0354ZM16.7855 50.3576L18.4633 50.7092L18.1117 52.3871L16.4338 52.0354L16.7855 50.3576ZM17.1371 48.6798L18.8149 49.0314L18.4633 50.7092L16.7855 50.3576L17.1371 48.6798ZM17.4887 47.0019L19.1665 47.3535L18.8149 49.0314L17.1371 48.6798L17.4887 47.0019ZM17.8403 45.3241L19.5182 45.6757L19.1665 47.3535L17.4887 47.0019L17.8403 45.3241ZM18.192 43.6463L19.8698 43.9979L19.5182 45.6757L17.8403 45.3241L18.192 43.6463ZM18.5436 41.9684L20.2214 42.32L19.8698 43.9979L18.192 43.6463L18.5436 41.9684ZM16.1625 44.9725L17.8403 45.3241L17.4887 47.0019L15.8109 46.6503L16.1625 44.9725ZM15.8109 46.6503L17.4887 47.0019L17.1371 48.6798L15.4592 48.3281L15.8109 46.6503ZM15.4592 48.3281L17.1371 48.6798L16.7855 50.3576L15.1076 50.006L15.4592 48.3281ZM15.1076 50.006L16.7855 50.3576L16.4338 52.0354L14.756 51.6838L15.1076 50.006ZM16.5141 43.2946L18.192 43.6463L17.8403 45.3241L16.1625 44.9725L16.5141 43.2946ZM11.8322 40.5619L13.5101 40.9135L13.1584 42.5914L11.4806 42.2398L11.8322 40.5619ZM13.5101 40.9135L15.1879 41.2652L14.8363 42.943L13.1584 42.5914L13.5101 40.9135ZM15.1879 41.2652L16.8657 41.6168L16.5141 43.2946L14.8363 42.943L15.1879 41.2652ZM15.5395 39.5873L17.2174 39.939L16.8657 41.6168L15.1879 41.2652L15.5395 39.5873ZM17.2174 39.939L18.8952 40.2906L18.5436 41.9684L16.8657 41.6168L17.2174 39.939ZM16.8657 41.6168L18.5436 41.9684L18.192 43.6463L16.5141 43.2946L16.8657 41.6168ZM13.8617 39.2357L15.5395 39.5873L15.1879 41.2652L13.5101 40.9135L13.8617 39.2357ZM28.6019 44.0763L30.2797 44.428L29.9281 46.1058L28.2502 45.7542L28.6019 44.0763ZM28.9535 42.3985L30.6313 42.7501L30.2797 44.428L28.6019 44.0763L28.9535 42.3985ZM30.6313 42.7501L32.3092 43.1017L31.9575 44.7796L30.2797 44.428L30.6313 42.7501ZM30.2797 44.428L31.9575 44.7796L31.6059 46.4574L29.9281 46.1058L30.2797 44.428ZM29.9281 46.1058L31.6059 46.4574L31.2543 48.1353L29.5764 47.7836L29.9281 46.1058ZM29.5764 47.7836L31.2543 48.1353L30.9027 49.8131L29.2248 49.4615L29.5764 47.7836ZM29.2248 49.4615L30.9027 49.8131L30.551 51.4909L28.8732 51.1393L29.2248 49.4615ZM27.547 49.1098L29.2248 49.4615L28.8732 51.1393L27.1954 50.7877L27.547 49.1098ZM27.8986 47.432L29.5764 47.7836L29.2248 49.4615L27.547 49.1098L27.8986 47.432ZM28.2502 45.7542L29.9281 46.1058L29.5764 47.7836L27.8986 47.432L28.2502 45.7542ZM27.1954 50.7877L28.8732 51.1393L28.5216 52.8171L26.8437 52.4655L27.1954 50.7877ZM28.8732 51.1393L30.551 51.4909L30.1994 53.1688L28.5216 52.8171L28.8732 51.1393ZM28.5216 52.8171L30.1994 53.1688L29.8478 54.8466L28.1699 54.495L28.5216 52.8171ZM28.1699 54.495L29.8478 54.8466L29.4962 56.5244L27.8183 56.1728L28.1699 54.495ZM26.4921 54.1434L28.1699 54.495L27.8183 56.1728L26.1405 55.8212L26.4921 54.1434ZM26.8437 52.4655L28.5216 52.8171L28.1699 54.495L26.4921 54.1434L26.8437 52.4655ZM33.2035 55.5499L34.8813 55.9015L34.5297 57.5793L32.8518 57.2277L33.2035 55.5499ZM34.8813 55.9015L36.5591 56.2531L36.2075 57.9309L34.5297 57.5793L34.8813 55.9015ZM35.2329 54.2236L36.9108 54.5753L36.5591 56.2531L34.8813 55.9015L35.2329 54.2236ZM35.5845 52.5458L37.2624 52.8974L36.9108 54.5753L35.2329 54.2236L35.5845 52.5458ZM35.9362 50.868L37.614 51.2196L37.2624 52.8974L35.5845 52.5458L35.9362 50.868ZM36.2878 49.1901L37.9656 49.5418L37.614 51.2196L35.9362 50.868L36.2878 49.1901ZM36.6394 47.5123L38.3173 47.8639L37.9656 49.5418L36.2878 49.1901L36.6394 47.5123ZM36.991 45.8345L38.6689 46.1861L38.3173 47.8639L36.6394 47.5123L36.991 45.8345ZM34.61 48.8385L36.2878 49.1901L35.9362 50.868L34.2583 50.5163L34.61 48.8385ZM34.2583 50.5163L35.9362 50.868L35.5845 52.5458L33.9067 52.1942L34.2583 50.5163ZM33.9067 52.1942L35.5845 52.5458L35.2329 54.2236L33.5551 53.872L33.9067 52.1942ZM33.5551 53.872L35.2329 54.2236L34.8813 55.9015L33.2035 55.5499L33.5551 53.872ZM34.9616 47.1607L36.6394 47.5123L36.2878 49.1901L34.61 48.8385L34.9616 47.1607ZM31.9575 44.7796L33.6354 45.1312L33.2837 46.809L31.6059 46.4574L31.9575 44.7796ZM33.6354 45.1312L35.3132 45.4828L34.9616 47.1607L33.2837 46.809L33.6354 45.1312ZM35.6648 43.805L37.3427 44.1566L36.991 45.8345L35.3132 45.4828L35.6648 43.805ZM35.3132 45.4828L36.991 45.8345L36.6394 47.5123L34.9616 47.1607L35.3132 45.4828ZM33.987 43.4534L35.6648 43.805L35.3132 45.4828L33.6354 45.1312L33.987 43.4534ZM39.9148 56.9564L41.5926 57.308L41.241 58.9858L39.5632 58.6342L39.9148 56.9564ZM41.5926 57.308L43.2705 57.6596L42.9188 59.3374L41.241 58.9858L41.5926 57.308ZM41.9443 55.6301L43.6221 55.9818L43.2705 57.6596L41.5926 57.308L41.9443 55.6301ZM42.2959 53.9523L43.9737 54.3039L43.6221 55.9818L41.9443 55.6301L42.2959 53.9523ZM42.6475 52.2745L44.3253 52.6261L43.9737 54.3039L42.2959 53.9523L42.6475 52.2745ZM42.9991 50.5966L44.677 50.9483L44.3253 52.6261L42.6475 52.2745L42.9991 50.5966ZM43.3508 48.9188L45.0286 49.2704L44.677 50.9483L42.9991 50.5966L43.3508 48.9188ZM43.7024 47.241L45.3802 47.5926L45.0286 49.2704L43.3508 48.9188L43.7024 47.241ZM41.3213 50.245L42.9991 50.5966L42.6475 52.2745L40.9697 51.9228L41.3213 50.245ZM40.9697 51.9228L42.6475 52.2745L42.2959 53.9523L40.6181 53.6007L40.9697 51.9228ZM40.6181 53.6007L42.2959 53.9523L41.9443 55.6301L40.2664 55.2785L40.6181 53.6007ZM40.2664 55.2785L41.9443 55.6301L41.5926 57.308L39.9148 56.9564L40.2664 55.2785ZM41.6729 48.5672L43.3508 48.9188L42.9991 50.5966L41.3213 50.245L41.6729 48.5672ZM38.6689 46.1861L40.3467 46.5377L39.9951 48.2155L38.3173 47.8639L38.6689 46.1861ZM40.3467 46.5377L42.0246 46.8893L41.6729 48.5672L39.9951 48.2155L40.3467 46.5377ZM42.3762 45.2115L44.054 45.5631L43.7024 47.241L42.0246 46.8893L42.3762 45.2115ZM42.0246 46.8893L43.7024 47.241L43.3508 48.9188L41.6729 48.5672L42.0246 46.8893ZM40.6983 44.8599L42.3762 45.2115L42.0246 46.8893L40.3467 46.5377L40.6983 44.8599ZM47.3966 46.2636L49.0744 46.6153L48.7228 48.2931L47.045 47.9415L47.3966 46.2636ZM49.0744 46.6153L50.7523 46.9669L50.4006 48.6447L48.7228 48.2931L49.0744 46.6153ZM48.7228 48.2931L50.4006 48.6447L50.049 50.3226L48.3712 49.9709L48.7228 48.2931ZM48.3712 49.9709L50.049 50.3226L49.6974 52.0004L48.0195 51.6488L48.3712 49.9709ZM48.0195 51.6488L49.6974 52.0004L49.3458 53.6782L47.6679 53.3266L48.0195 51.6488ZM46.6933 49.6193L48.3712 49.9709L48.0195 51.6488L46.3417 51.2971L46.6933 49.6193ZM47.045 47.9415L48.7228 48.2931L48.3712 49.9709L46.6933 49.6193L47.045 47.9415ZM46.3417 51.2971L48.0195 51.6488L47.6679 53.3266L45.9901 52.975L46.3417 51.2971ZM45.9901 52.975L47.6679 53.3266L47.3163 55.0044L45.6385 54.6528L45.9901 52.975ZM47.6679 53.3266L49.3458 53.6782L48.9941 55.3561L47.3163 55.0044L47.6679 53.3266ZM47.3163 55.0044L48.9941 55.3561L48.6425 57.0339L46.9647 56.6823L47.3163 55.0044ZM48.9941 55.3561L50.672 55.7077L50.3203 57.3855L48.6425 57.0339L48.9941 55.3561ZM48.6425 57.0339L50.3203 57.3855L49.9687 59.0634L48.2909 58.7117L48.6425 57.0339ZM50.3203 57.3855L51.9982 57.7371L51.6465 59.415L49.9687 59.0634L50.3203 57.3855ZM51.9982 57.7371L53.676 58.0888L53.3244 59.7666L51.6465 59.415L51.9982 57.7371ZM52.3498 56.0593L54.0276 56.4109L53.676 58.0888L51.9982 57.7371L52.3498 56.0593ZM52.7014 54.3815L54.3793 54.7331L54.0276 56.4109L52.3498 56.0593L52.7014 54.3815ZM54.3793 54.7331L56.0571 55.0847L55.7055 56.7626L54.0276 56.4109L54.3793 54.7331ZM54.0276 56.4109L55.7055 56.7626L55.3538 58.4404L53.676 58.0888L54.0276 56.4109ZM54.7309 53.0553L56.4087 53.4069L56.0571 55.0847L54.3793 54.7331L54.7309 53.0553ZM53.053 52.7036L54.7309 53.0553L54.3793 54.7331L52.7014 54.3815L53.053 52.7036ZM54.1079 47.6701L55.7858 48.0218L55.4341 49.6996L53.7563 49.348L54.1079 47.6701ZM55.7858 48.0218L57.4636 48.3734L57.112 50.0512L55.4341 49.6996L55.7858 48.0218ZM55.4341 49.6996L57.112 50.0512L56.7603 51.7291L55.0825 51.3774L55.4341 49.6996ZM55.0825 51.3774L56.7603 51.7291L56.4087 53.4069L54.7309 53.0553L55.0825 51.3774ZM53.7563 49.348L55.4341 49.6996L55.0825 51.3774L53.4047 51.0258L53.7563 49.348ZM53.4047 51.0258L55.0825 51.3774L54.7309 53.0553L53.053 52.7036L53.4047 51.0258ZM49.9687 59.0634L51.6465 59.415L51.2949 61.0928L49.6171 60.7412L49.9687 59.0634ZM48.2909 58.7117L49.9687 59.0634L49.6171 60.7412L47.9392 60.3896L48.2909 58.7117ZM47.9392 60.3896L49.6171 60.7412L49.2655 62.419L47.5876 62.0674L47.9392 60.3896ZM46.2614 60.0379L47.9392 60.3896L47.5876 62.0674L45.9098 61.7158L46.2614 60.0379ZM46.613 58.3601L48.2909 58.7117L47.9392 60.3896L46.2614 60.0379L46.613 58.3601ZM45.9098 61.7158L47.5876 62.0674L47.236 63.7452L45.5582 63.3936L45.9098 61.7158ZM44.232 61.3642L45.9098 61.7158L45.5582 63.3936L43.8803 63.042L44.232 61.3642ZM44.5836 59.6863L46.2614 60.0379L45.9098 61.7158L44.232 61.3642L44.5836 59.6863ZM50.672 55.7077L52.3498 56.0593L51.9982 57.7371L50.3203 57.3855L50.672 55.7077ZM49.3458 53.6782L51.0236 54.0299L50.672 55.7077L48.9941 55.3561L49.3458 53.6782ZM69.8986 47.4763L71.5764 47.828L71.2248 49.5058L69.547 49.1542L69.8986 47.4763ZM68.2208 47.1247L69.8986 47.4763L69.547 49.1542L67.8691 48.8025L68.2208 47.1247ZM67.8691 48.8025L69.547 49.1542L69.1953 50.832L67.5175 50.4804L67.8691 48.8025ZM69.547 49.1542L71.2248 49.5058L70.8732 51.1836L69.1953 50.832L69.547 49.1542ZM71.2248 49.5058L72.9026 49.8574L72.551 51.5353L70.8732 51.1836L71.2248 49.5058ZM71.5764 47.828L73.2543 48.1796L72.9026 49.8574L71.2248 49.5058L71.5764 47.828ZM73.2543 48.1796L74.9321 48.5312L74.5805 50.209L72.9026 49.8574L73.2543 48.1796ZM74.9321 48.5312L76.6099 48.8828L76.2583 50.5607L74.5805 50.209L74.9321 48.5312ZM74.5805 50.209L76.2583 50.5607L75.9067 52.2385L74.2289 51.8869L74.5805 50.209ZM72.9026 49.8574L74.5805 50.209L74.2289 51.8869L72.551 51.5353L72.9026 49.8574ZM74.2289 51.8869L75.9067 52.2385L75.5551 53.9163L73.8772 53.5647L74.2289 51.8869ZM76.2583 50.5607L77.9362 50.9123L77.5845 52.5901L75.9067 52.2385L76.2583 50.5607ZM75.9067 52.2385L77.5845 52.5901L77.2329 54.268L75.5551 53.9163L75.9067 52.2385ZM74.1486 60.6277L75.8264 60.9793L75.4748 62.6572L73.7969 62.3055L74.1486 60.6277ZM73.7969 62.3055L75.4748 62.6572L75.1231 64.335L73.4453 63.9834L73.7969 62.3055ZM72.1191 61.9539L73.7969 62.3055L73.4453 63.9834L71.7675 63.6317L72.1191 61.9539ZM72.4707 60.2761L74.1486 60.6277L73.7969 62.3055L72.1191 61.9539L72.4707 60.2761ZM70.4413 61.6023L72.1191 61.9539L71.7675 63.6317L70.0896 63.2801L70.4413 61.6023ZM71.7675 63.6317L73.4453 63.9834L73.0937 65.6612L71.4159 65.3096L71.7675 63.6317ZM70.0896 63.2801L71.7675 63.6317L71.4159 65.3096L69.738 64.958L70.0896 63.2801ZM68.4118 62.9285L70.0896 63.2801L69.738 64.958L68.0602 64.6063L68.4118 62.9285ZM68.7634 61.2507L70.4413 61.6023L70.0896 63.2801L68.4118 62.9285L68.7634 61.2507ZM66.734 62.5769L68.4118 62.9285L68.0602 64.6063L66.3823 64.2547L66.734 62.5769ZM65.0561 62.2252L66.734 62.5769L66.3823 64.2547L64.7045 63.9031L65.0561 62.2252ZM65.4078 60.5474L67.0856 60.899L66.734 62.5769L65.0561 62.2252L65.4078 60.5474ZM67.0856 60.899L68.7634 61.2507L68.4118 62.9285L66.734 62.5769L67.0856 60.899ZM67.4372 59.2212L69.1151 59.5728L68.7634 61.2507L67.0856 60.899L67.4372 59.2212ZM65.7594 58.8696L67.4372 59.2212L67.0856 60.899L65.4078 60.5474L65.7594 58.8696ZM63.7299 60.1958L65.4078 60.5474L65.0561 62.2252L63.3783 61.8736L63.7299 60.1958ZM64.0815 58.5179L65.7594 58.8696L65.4078 60.5474L63.7299 60.1958L64.0815 58.5179ZM64.4332 56.8401L66.111 57.1917L65.7594 58.8696L64.0815 58.5179L64.4332 56.8401ZM64.7848 55.1623L66.4626 55.5139L66.111 57.1917L64.4332 56.8401L64.7848 55.1623ZM65.1364 53.4844L66.8143 53.8361L66.4626 55.5139L64.7848 55.1623L65.1364 53.4844ZM65.488 51.8066L67.1659 52.1582L66.8143 53.8361L65.1364 53.4844L65.488 51.8066ZM65.8397 50.1288L67.5175 50.4804L67.1659 52.1582L65.488 51.8066L65.8397 50.1288ZM67.5175 50.4804L69.1953 50.832L68.8437 52.5098L67.1659 52.1582L67.5175 50.4804ZM66.1913 48.4509L67.8691 48.8025L67.5175 50.4804L65.8397 50.1288L66.1913 48.4509ZM69.1953 50.832L70.8732 51.1836L70.5216 52.8615L68.8437 52.5098L69.1953 50.832ZM67.1659 52.1582L68.8437 52.5098L68.4921 54.1877L66.8143 53.8361L67.1659 52.1582ZM66.8143 53.8361L68.4921 54.1877L68.1405 55.8655L66.4626 55.5139L66.8143 53.8361ZM66.4626 55.5139L68.1405 55.8655L67.7888 57.5434L66.111 57.1917L66.4626 55.5139ZM66.111 57.1917L67.7888 57.5434L67.4372 59.2212L65.7594 58.8696L66.111 57.1917ZM74.5002 58.9499L76.178 59.3015L75.8264 60.9793L74.1486 60.6277L74.5002 58.9499ZM72.8224 58.5982L74.5002 58.9499L74.1486 60.6277L72.4707 60.2761L72.8224 58.5982ZM73.174 56.9204L74.8518 57.272L74.5002 58.9499L72.8224 58.5982L73.174 56.9204ZM74.8518 57.272L76.5296 57.6236L76.178 59.3015L74.5002 58.9499L74.8518 57.272ZM75.2034 55.5942L76.8813 55.9458L76.5296 57.6236L74.8518 57.272L75.2034 55.5942ZM73.5256 55.2426L75.2034 55.5942L74.8518 57.272L73.174 56.9204L73.5256 55.2426ZM71.8478 54.8909L73.5256 55.2426L73.174 56.9204L71.4961 56.5688L71.8478 54.8909ZM70.1699 54.5393L71.8478 54.8909L71.4961 56.5688L69.8183 56.2171L70.1699 54.5393ZM69.8183 56.2171L71.4961 56.5688L71.1445 58.2466L69.4667 57.895L69.8183 56.2171ZM71.4961 56.5688L73.174 56.9204L72.8224 58.5982L71.1445 58.2466L71.4961 56.5688ZM81.2962 51.6165L82.974 51.9681L82.6224 53.6459L80.9446 53.2943L81.2962 51.6165ZM88.0075 53.023L89.6854 53.3746L89.3337 55.0524L87.6559 54.7008L88.0075 53.023ZM87.6559 54.7008L89.3337 55.0524L88.9821 56.7303L87.3043 56.3786L87.6559 54.7008ZM89.6854 53.3746L91.3632 53.7262L91.0116 55.4041L89.3337 55.0524L89.6854 53.3746ZM89.3337 55.0524L91.0116 55.4041L90.66 57.0819L88.9821 56.7303L89.3337 55.0524ZM88.9821 56.7303L90.66 57.0819L90.3083 58.7597L88.6305 58.4081L88.9821 56.7303ZM88.6305 58.4081L90.3083 58.7597L89.9567 60.4376L88.2789 60.0859L88.6305 58.4081ZM88.2789 60.0859L89.9567 60.4376L89.6051 62.1154L87.9272 61.7638L88.2789 60.0859ZM87.9272 61.7638L89.6051 62.1154L89.2535 63.7932L87.5756 63.4416L87.9272 61.7638ZM87.5756 63.4416L89.2535 63.7932L88.9018 65.4711L87.224 65.1194L87.5756 63.4416ZM87.224 65.1194L88.9018 65.4711L88.5502 67.1489L86.8724 66.7973L87.224 65.1194ZM85.5462 64.7678L87.224 65.1194L86.8724 66.7973L85.1945 66.4457L85.5462 64.7678ZM85.8978 63.09L87.5756 63.4416L87.224 65.1194L85.5462 64.7678L85.8978 63.09ZM86.2494 61.4121L87.9272 61.7638L87.5756 63.4416L85.8978 63.09L86.2494 61.4121ZM86.601 59.7343L88.2789 60.0859L87.9272 61.7638L86.2494 61.4121L86.601 59.7343ZM86.9527 58.0565L88.6305 58.4081L88.2789 60.0859L86.601 59.7343L86.9527 58.0565ZM87.3043 56.3786L88.9821 56.7303L88.6305 58.4081L86.9527 58.0565L87.3043 56.3786ZM84.22 62.7384L85.8978 63.09L85.5462 64.7678L83.8683 64.4162L84.22 62.7384ZM83.8683 64.4162L85.5462 64.7678L85.1945 66.4457L83.5167 66.094L83.8683 64.4162ZM85.1945 66.4457L86.8724 66.7973L86.5207 68.4751L84.8429 68.1235L85.1945 66.4457ZM83.5167 66.094L85.1945 66.4457L84.8429 68.1235L83.1651 67.7719L83.5167 66.094ZM81.8389 65.7424L83.5167 66.094L83.1651 67.7719L81.4872 67.4202L81.8389 65.7424ZM82.1905 64.0646L83.8683 64.4162L83.5167 66.094L81.8389 65.7424L82.1905 64.0646ZM80.161 65.3908L81.8389 65.7424L81.4872 67.4202L79.8094 67.0686L80.161 65.3908ZM78.4832 65.0392L80.161 65.3908L79.8094 67.0686L78.1316 66.717L78.4832 65.0392ZM78.8348 63.3613L80.5127 63.7129L80.161 65.3908L78.4832 65.0392L78.8348 63.3613ZM80.5127 63.7129L82.1905 64.0646L81.8389 65.7424L80.161 65.3908L80.5127 63.7129ZM80.8643 62.0351L82.5421 62.3867L82.1905 64.0646L80.5127 63.7129L80.8643 62.0351ZM79.1864 61.6835L80.8643 62.0351L80.5127 63.7129L78.8348 63.3613L79.1864 61.6835ZM77.157 63.0097L78.8348 63.3613L78.4832 65.0392L76.8054 64.6875L77.157 63.0097ZM77.5086 61.3319L79.1864 61.6835L78.8348 63.3613L77.157 63.0097L77.5086 61.3319ZM77.8602 59.654L79.5381 60.0056L79.1864 61.6835L77.5086 61.3319L77.8602 59.654ZM78.2119 57.9762L79.8897 58.3278L79.5381 60.0056L77.8602 59.654L78.2119 57.9762ZM78.5635 56.2984L80.2413 56.65L79.8897 58.3278L78.2119 57.9762L78.5635 56.2984ZM78.9151 54.6205L80.5929 54.9721L80.2413 56.65L78.5635 56.2984L78.9151 54.6205ZM79.2667 52.9427L80.9446 53.2943L80.5929 54.9721L78.9151 54.6205L79.2667 52.9427ZM80.9446 53.2943L82.6224 53.6459L82.2708 55.3238L80.5929 54.9721L80.9446 53.2943ZM79.6184 51.2648L81.2962 51.6165L80.9446 53.2943L79.2667 52.9427L79.6184 51.2648ZM80.5929 54.9721L82.2708 55.3238L81.9192 57.0016L80.2413 56.65L80.5929 54.9721ZM80.2413 56.65L81.9192 57.0016L81.5675 58.6794L79.8897 58.3278L80.2413 56.65ZM79.8897 58.3278L81.5675 58.6794L81.2159 60.3573L79.5381 60.0056L79.8897 58.3278ZM79.5381 60.0056L81.2159 60.3573L80.8643 62.0351L79.1864 61.6835L79.5381 60.0056ZM79.97 49.587L81.6478 49.9386L81.2962 51.6165L79.6184 51.2648L79.97 49.587ZM81.6478 49.9386L83.3257 50.2903L82.974 51.9681L81.2962 51.6165L81.6478 49.9386ZM88.3592 51.3451L90.037 51.6968L89.6854 53.3746L88.0075 53.023L88.3592 51.3451ZM90.037 51.6968L91.7148 52.0484L91.3632 53.7262L89.6854 53.3746L90.037 51.6968ZM93.397 52.4009L95.0749 52.7525L94.7233 54.4304L93.0454 54.0788L93.397 52.4009ZM95.0749 52.7525L96.7527 53.1042L96.4011 54.782L94.7233 54.4304L95.0749 52.7525ZM94.7233 54.4304L96.4011 54.782L96.0495 56.4598L94.3716 56.1082L94.7233 54.4304ZM94.3716 56.1082L96.0495 56.4598L95.6978 58.1377L94.02 57.7861L94.3716 56.1082ZM94.02 57.7861L95.6978 58.1377L95.3462 59.8155L93.6684 59.4639L94.02 57.7861ZM92.3422 57.4344L94.02 57.7861L93.6684 59.4639L91.9905 59.1123L92.3422 57.4344ZM92.6938 55.7566L94.3716 56.1082L94.02 57.7861L92.3422 57.4344L92.6938 55.7566ZM93.0454 54.0788L94.7233 54.4304L94.3716 56.1082L92.6938 55.7566L93.0454 54.0788ZM91.9905 59.1123L93.6684 59.4639L93.3168 61.1417L91.6389 60.7901L91.9905 59.1123ZM91.6389 60.7901L93.3168 61.1417L92.9651 62.8196L91.2873 62.4679L91.6389 60.7901ZM91.2873 62.4679L92.9651 62.8196L92.6135 64.4974L90.9357 64.1458L91.2873 62.4679ZM93.3168 61.1417L94.9946 61.4934L94.643 63.1712L92.9651 62.8196L93.3168 61.1417ZM93.6684 59.4639L95.3462 59.8155L94.9946 61.4934L93.3168 61.1417L93.6684 59.4639ZM92.9651 62.8196L94.643 63.1712L94.2913 64.849L92.6135 64.4974L92.9651 62.8196ZM92.6135 64.4974L94.2913 64.849L93.9397 66.5269L92.2619 66.1752L92.6135 64.4974ZM90.584 65.8236L92.2619 66.1752L91.9103 67.8531L90.2324 67.5014L90.584 65.8236ZM90.9357 64.1458L92.6135 64.4974L92.2619 66.1752L90.584 65.8236L90.9357 64.1458ZM90.2324 67.5014L91.9103 67.8531L91.5586 69.5309L89.8808 69.1793L90.2324 67.5014ZM91.9103 67.8531L93.5881 68.2047L93.2365 69.8825L91.5586 69.5309L91.9103 67.8531ZM92.2619 66.1752L93.9397 66.5269L93.5881 68.2047L91.9103 67.8531L92.2619 66.1752ZM93.5881 68.2047L95.2659 68.5563L94.9143 70.2342L93.2365 69.8825L93.5881 68.2047ZM95.2659 68.5563L96.9438 68.908L96.5921 70.5858L94.9143 70.2342L95.2659 68.5563ZM96.9438 68.908L98.6216 69.2596L98.27 70.9374L96.5921 70.5858L96.9438 68.908ZM97.2954 67.2301L98.9732 67.5817L98.6216 69.2596L96.9438 68.908L97.2954 67.2301ZM95.6175 66.8785L97.2954 67.2301L96.9438 68.908L95.2659 68.5563L95.6175 66.8785ZM93.9397 66.5269L95.6175 66.8785L95.2659 68.5563L93.5881 68.2047L93.9397 66.5269ZM96.7527 53.1042L98.4306 53.4558L98.0789 55.1336L96.4011 54.782L96.7527 53.1042ZM98.4306 53.4558L100.108 53.8074L99.7568 55.4853L98.0789 55.1336L98.4306 53.4558ZM100.108 53.8074L101.786 54.159L101.435 55.8369L99.7568 55.4853L100.108 53.8074ZM101.786 54.159L103.464 54.5107L103.112 56.1885L101.435 55.8369L101.786 54.159ZM99.7568 55.4853L101.435 55.8369L101.083 57.5147L99.4051 57.1631L99.7568 55.4853ZM98.0789 55.1336L99.7568 55.4853L99.4051 57.1631L97.7273 56.8115L98.0789 55.1336ZM96.4011 54.782L98.0789 55.1336L97.7273 56.8115L96.0495 56.4598L96.4011 54.782ZM94.9946 61.4934L96.6724 61.845L96.3208 63.5228L94.643 63.1712L94.9946 61.4934ZM97.0241 60.1671L98.7019 60.5188L98.3503 62.1966L96.6724 61.845L97.0241 60.1671ZM95.3462 59.8155L97.0241 60.1671L96.6724 61.845L94.9946 61.4934L95.3462 59.8155ZM96.6724 61.845L98.3503 62.1966L97.9986 63.8744L96.3208 63.5228L96.6724 61.845ZM101.435 55.8369L103.112 56.1885L102.761 57.8663L101.083 57.5147L101.435 55.8369ZM98.9732 67.5817L100.651 67.9334L100.299 69.6112L98.6216 69.2596L98.9732 67.5817ZM98.6216 69.2596L100.299 69.6112L99.9478 71.289L98.27 70.9374L98.6216 69.2596ZM98.7019 60.5188L100.38 60.8704L100.028 62.5482L98.3503 62.1966L98.7019 60.5188ZM98.3503 62.1966L100.028 62.5482L99.6765 64.2261L97.9986 63.8744L98.3503 62.1966ZM114.506 60.3277L116.184 60.6793L115.832 62.3572L114.154 62.0056L114.506 60.3277ZM112.828 59.9761L114.506 60.3277L114.154 62.0056L112.476 61.6539L112.828 59.9761ZM113.179 58.2983L114.857 58.6499L114.506 60.3277L112.828 59.9761L113.179 58.2983ZM114.857 58.6499L116.535 59.0015L116.184 60.6793L114.506 60.3277L114.857 58.6499ZM113.531 56.6204L115.209 56.9721L114.857 58.6499L113.179 58.2983L113.531 56.6204ZM111.853 56.2688L113.531 56.6204L113.179 58.2983L111.502 57.9466L111.853 56.2688ZM111.502 57.9466L113.179 58.2983L112.828 59.9761L111.15 59.6245L111.502 57.9466ZM109.824 57.595L111.502 57.9466L111.15 59.6245L109.472 59.2728L109.824 57.595ZM108.146 57.2434L109.824 57.595L109.472 59.2728L107.794 58.9212L108.146 57.2434ZM108.498 55.5655L110.175 55.9172L109.824 57.595L108.146 57.2434L108.498 55.5655ZM106.82 55.2139L108.498 55.5655L108.146 57.2434L106.468 56.8918L106.82 55.2139ZM110.175 55.9172L111.853 56.2688L111.502 57.9466L109.824 57.595L110.175 55.9172ZM106.468 56.8918L108.146 57.2434L107.794 58.9212L106.116 58.5696L106.468 56.8918ZM104.79 56.5401L106.468 56.8918L106.116 58.5696L104.439 58.218L104.79 56.5401ZM104.439 58.218L106.116 58.5696L105.765 60.2474L104.087 59.8958L104.439 58.218ZM106.116 58.5696L107.794 58.9212L107.443 60.5991L105.765 60.2474L106.116 58.5696ZM105.765 60.2474L107.443 60.5991L107.091 62.2769L105.413 61.9253L105.765 60.2474ZM105.413 61.9253L107.091 62.2769L106.739 63.9547L105.062 63.6031L105.413 61.9253ZM103.735 61.5736L105.413 61.9253L105.062 63.6031L103.384 63.2515L103.735 61.5736ZM104.087 59.8958L105.765 60.2474L105.413 61.9253L103.735 61.5736L104.087 59.8958ZM105.062 63.6031L106.739 63.9547L106.388 65.6326L104.71 65.2809L105.062 63.6031ZM106.739 63.9547L108.417 64.3064L108.066 65.9842L106.388 65.6326L106.739 63.9547ZM107.091 62.2769L108.769 62.6285L108.417 64.3064L106.739 63.9547L107.091 62.2769ZM108.769 62.6285L110.447 62.9801L110.095 64.658L108.417 64.3064L108.769 62.6285ZM110.447 62.9801L112.125 63.3318L111.773 65.0096L110.095 64.658L110.447 62.9801ZM112.125 63.3318L113.802 63.6834L113.451 65.3612L111.773 65.0096L112.125 63.3318ZM111.773 65.0096L113.451 65.3612L113.099 67.0391L111.421 66.6874L111.773 65.0096ZM110.095 64.658L111.773 65.0096L111.421 66.6874L109.743 66.3358L110.095 64.658ZM108.417 64.3064L110.095 64.658L109.743 66.3358L108.066 65.9842L108.417 64.3064ZM113.451 65.3612L115.129 65.7129L114.777 67.3907L113.099 67.0391L113.451 65.3612ZM113.099 67.0391L114.777 67.3907L114.425 69.0685L112.748 68.7169L113.099 67.0391ZM111.421 66.6874L113.099 67.0391L112.748 68.7169L111.07 68.3653L111.421 66.6874ZM109.04 69.6915L110.718 70.0431L110.366 71.721L108.689 71.3693L109.04 69.6915ZM110.718 70.0431L112.396 70.3947L112.044 72.0726L110.366 71.721L110.718 70.0431ZM111.07 68.3653L112.748 68.7169L112.396 70.3947L110.718 70.0431L111.07 68.3653ZM112.748 68.7169L114.425 69.0685L114.074 70.7464L112.396 70.3947L112.748 68.7169ZM112.396 70.3947L114.074 70.7464L113.722 72.4242L112.044 72.0726L112.396 70.3947ZM110.366 71.721L112.044 72.0726L111.693 73.7504L110.015 73.3988L110.366 71.721ZM108.689 71.3693L110.366 71.721L110.015 73.3988L108.337 73.0472L108.689 71.3693ZM107.011 71.0177L108.689 71.3693L108.337 73.0472L106.659 72.6955L107.011 71.0177ZM105.333 70.6661L107.011 71.0177L106.659 72.6955L104.981 72.3439L105.333 70.6661ZM103.655 70.3145L105.333 70.6661L104.981 72.3439L103.303 71.9923L103.655 70.3145ZM104.007 68.6366L105.685 68.9882L105.333 70.6661L103.655 70.3145L104.007 68.6366ZM105.685 68.9882L107.362 69.3399L107.011 71.0177L105.333 70.6661L105.685 68.9882ZM107.362 69.3399L109.04 69.6915L108.689 71.3693L107.011 71.0177L107.362 69.3399ZM102.329 68.285L104.007 68.6366L103.655 70.3145L101.977 69.9628L102.329 68.285ZM102.681 66.6072L104.358 66.9588L104.007 68.6366L102.329 68.285L102.681 66.6072ZM104.358 66.9588L106.036 67.3104L105.685 68.9882L104.007 68.6366L104.358 66.9588ZM118.569 57.6762L120.247 58.0278L119.895 59.7057L118.217 59.3541L118.569 57.6762ZM120.247 58.0278L121.925 58.3795L121.573 60.0573L119.895 59.7057L120.247 58.0278ZM121.925 58.3795L123.602 58.7311L123.251 60.4089L121.573 60.0573L121.925 58.3795ZM123.602 58.7311L125.28 59.0827L124.929 60.7606L123.251 60.4089L123.602 58.7311ZM125.28 59.0827L126.958 59.4343L126.607 61.1122L124.929 60.7606L125.28 59.0827ZM126.958 59.4343L128.636 59.786L128.284 61.4638L126.607 61.1122L126.958 59.4343ZM126.607 61.1122L128.284 61.4638L127.933 63.1416L126.255 62.79L126.607 61.1122ZM124.929 60.7606L126.607 61.1122L126.255 62.79L124.577 62.4384L124.929 60.7606ZM123.251 60.4089L124.929 60.7606L124.577 62.4384L122.899 62.0868L123.251 60.4089ZM121.573 60.0573L123.251 60.4089L122.899 62.0868L121.221 61.7351L121.573 60.0573ZM119.895 59.7057L121.573 60.0573L121.221 61.7351L119.544 61.3835L119.895 59.7057ZM118.217 59.3541L119.895 59.7057L119.544 61.3835L117.866 61.0319L118.217 59.3541ZM121.221 61.7351L122.899 62.0868L122.548 63.7646L120.87 63.413L121.221 61.7351ZM120.87 63.413L122.548 63.7646L122.196 65.4424L120.518 65.0908L120.87 63.413ZM120.518 65.0908L122.196 65.4424L121.844 67.1203L120.167 66.7686L120.518 65.0908ZM120.167 66.7686L121.844 67.1203L121.493 68.7981L119.815 68.4465L120.167 66.7686ZM119.815 68.4465L121.493 68.7981L121.141 70.4759L119.463 70.1243L119.815 68.4465ZM119.463 70.1243L121.141 70.4759L120.789 72.1538L119.112 71.8022L119.463 70.1243ZM121.493 68.7981L123.171 69.1497L122.819 70.8276L121.141 70.4759L121.493 68.7981ZM121.844 67.1203L123.522 67.4719L123.171 69.1497L121.493 68.7981L121.844 67.1203ZM122.196 65.4424L123.874 65.7941L123.522 67.4719L121.844 67.1203L122.196 65.4424ZM122.548 63.7646L124.225 64.1162L123.874 65.7941L122.196 65.4424L122.548 63.7646ZM122.899 62.0868L124.577 62.4384L124.225 64.1162L122.548 63.7646L122.899 62.0868ZM121.141 70.4759L122.819 70.8276L122.467 72.5054L120.789 72.1538L121.141 70.4759ZM120.789 72.1538L122.467 72.5054L122.116 74.1832L120.438 73.8316L120.789 72.1538ZM120.438 73.8316L122.116 74.1832L121.764 75.8611L120.086 75.5095L120.438 73.8316ZM118.76 73.48L120.438 73.8316L120.086 75.5095L118.408 75.1578L118.76 73.48ZM119.112 71.8022L120.789 72.1538L120.438 73.8316L118.76 73.48L119.112 71.8022ZM130.314 60.1376L131.992 60.4892L131.64 62.1671L129.962 61.8154L130.314 60.1376ZM131.992 60.4892L133.669 60.8408L133.318 62.5187L131.64 62.1671L131.992 60.4892ZM133.669 60.8408L135.347 61.1925L134.996 62.8703L133.318 62.5187L133.669 60.8408ZM135.347 61.1925L137.025 61.5441L136.674 63.2219L134.996 62.8703L135.347 61.1925ZM137.025 61.5441L138.703 61.8957L138.351 63.5736L136.674 63.2219L137.025 61.5441ZM138.703 61.8957L140.381 62.2473L140.029 63.9252L138.351 63.5736L138.703 61.8957ZM138.351 63.5736L140.029 63.9252L139.678 65.603L138 65.2514L138.351 63.5736ZM136.674 63.2219L138.351 63.5736L138 65.2514L136.322 64.8998L136.674 63.2219ZM134.996 62.8703L136.674 63.2219L136.322 64.8998L134.644 64.5481L134.996 62.8703ZM133.318 62.5187L134.996 62.8703L134.644 64.5481L132.966 64.1965L133.318 62.5187ZM131.64 62.1671L133.318 62.5187L132.966 64.1965L131.288 63.8449L131.64 62.1671ZM129.962 61.8154L131.64 62.1671L131.288 63.8449L129.611 63.4933L129.962 61.8154ZM140.029 63.9252L141.707 64.2768L141.355 65.9546L139.678 65.603L140.029 63.9252ZM139.678 65.603L141.355 65.9546L141.004 67.6325L139.326 67.2809L139.678 65.603ZM139.326 67.2809L141.004 67.6325L140.652 69.3103L138.974 68.9587L139.326 67.2809ZM137.648 66.9292L139.326 67.2809L138.974 68.9587L137.296 68.6071L137.648 66.9292ZM138 65.2514L139.678 65.603L139.326 67.2809L137.648 66.9292L138 65.2514ZM137.296 68.6071L138.974 68.9587L138.623 70.6365L136.945 70.2849L137.296 68.6071ZM135.619 68.2554L137.296 68.6071L136.945 70.2849L135.267 69.9333L135.619 68.2554ZM133.941 67.9038L135.619 68.2554L135.267 69.9333L133.589 69.5817L133.941 67.9038ZM132.263 67.5522L133.941 67.9038L133.589 69.5817L131.911 69.23L132.263 67.5522ZM130.585 67.2006L132.263 67.5522L131.911 69.23L130.234 68.8784L130.585 67.2006ZM130.937 65.5227L132.615 65.8744L132.263 67.5522L130.585 67.2006L130.937 65.5227ZM131.288 63.8449L132.966 64.1965L132.615 65.8744L130.937 65.5227L131.288 63.8449ZM129.611 63.4933L131.288 63.8449L130.937 65.5227L129.259 65.1711L129.611 63.4933ZM129.259 65.1711L130.937 65.5227L130.585 67.2006L128.907 66.8489L129.259 65.1711ZM128.907 66.8489L130.585 67.2006L130.234 68.8784L128.556 68.5268L128.907 66.8489ZM128.556 68.5268L130.234 68.8784L129.882 70.5562L128.204 70.2046L128.556 68.5268ZM130.234 68.8784L131.911 69.23L131.56 70.9079L129.882 70.5562L130.234 68.8784ZM131.911 69.23L133.589 69.5817L133.238 71.2595L131.56 70.9079L131.911 69.23ZM133.589 69.5817L135.267 69.9333L134.915 71.6111L133.238 71.2595L133.589 69.5817ZM135.267 69.9333L136.945 70.2849L136.593 71.9627L134.915 71.6111L135.267 69.9333ZM136.945 70.2849L138.623 70.6365L138.271 72.3144L136.593 71.9627L136.945 70.2849ZM138.623 70.6365L140.301 70.9882L139.949 72.666L138.271 72.3144L138.623 70.6365ZM138.271 72.3144L139.949 72.666L139.597 74.3438L137.919 73.9922L138.271 72.3144ZM136.593 71.9627L138.271 72.3144L137.919 73.9922L136.242 73.6406L136.593 71.9627ZM135.89 75.3184L137.568 75.67L137.216 77.3479L135.538 76.9962L135.89 75.3184ZM137.568 75.67L139.246 76.0217L138.894 77.6995L137.216 77.3479L137.568 75.67ZM137.919 73.9922L139.597 74.3438L139.246 76.0217L137.568 75.67L137.919 73.9922ZM136.242 73.6406L137.919 73.9922L137.568 75.67L135.89 75.3184L136.242 73.6406ZM135.538 76.9962L137.216 77.3479L136.865 79.0257L135.187 78.6741L135.538 76.9962ZM133.861 76.6446L135.538 76.9962L135.187 78.6741L133.509 78.3225L133.861 76.6446ZM132.183 76.293L133.861 76.6446L133.509 78.3225L131.831 77.9708L132.183 76.293ZM130.505 75.9414L132.183 76.293L131.831 77.9708L130.153 77.6192L130.505 75.9414ZM128.827 75.5897L130.505 75.9414L130.153 77.6192L128.475 77.2676L128.827 75.5897ZM127.149 75.2381L128.827 75.5897L128.475 77.2676L126.798 76.916L127.149 75.2381ZM127.501 73.5603L129.179 73.9119L128.827 75.5897L127.149 75.2381L127.501 73.5603ZM127.852 71.8824L129.53 72.2341L129.179 73.9119L127.501 73.5603L127.852 71.8824ZM128.204 70.2046L129.882 70.5562L129.53 72.2341L127.852 71.8824L128.204 70.2046ZM129.882 70.5562L131.56 70.9079L131.208 72.5857L129.53 72.2341L129.882 70.5562ZM129.53 72.2341L131.208 72.5857L130.856 74.2635L129.179 73.9119L129.53 72.2341ZM129.179 73.9119L130.856 74.2635L130.505 75.9414L128.827 75.5897L129.179 73.9119ZM130.856 74.2635L132.534 74.6152L132.183 76.293L130.505 75.9414L130.856 74.2635ZM132.534 74.6152L134.212 74.9668L133.861 76.6446L132.183 76.293L132.534 74.6152ZM134.212 74.9668L135.89 75.3184L135.538 76.9962L133.861 76.6446L134.212 74.9668ZM147.097 63.6548L148.774 64.0064L148.423 65.6842L146.745 65.3326L147.097 63.6548ZM145.419 63.3031L147.097 63.6548L146.745 65.3326L145.067 64.981L145.419 63.3031ZM145.067 64.981L146.745 65.3326L146.393 67.0104L144.715 66.6588L145.067 64.981ZM146.745 65.3326L148.423 65.6842L148.071 67.3621L146.393 67.0104L146.745 65.3326ZM148.423 65.6842L150.101 66.0358L149.749 67.7137L148.071 67.3621L148.423 65.6842ZM148.774 64.0064L150.452 64.358L150.101 66.0358L148.423 65.6842L148.774 64.0064ZM150.452 64.358L152.13 64.7096L151.778 66.3875L150.101 66.0358L150.452 64.358ZM152.13 64.7096L153.808 65.0613L153.456 66.7391L151.778 66.3875L152.13 64.7096ZM151.778 66.3875L153.456 66.7391L153.105 68.4169L151.427 68.0653L151.778 66.3875ZM150.101 66.0358L151.778 66.3875L151.427 68.0653L149.749 67.7137L150.101 66.0358ZM149.749 67.7137L151.427 68.0653L151.075 69.7431L149.397 69.3915L149.749 67.7137ZM151.427 68.0653L153.105 68.4169L152.753 70.0948L151.075 69.7431L151.427 68.0653ZM153.456 66.7391L155.134 67.0907L154.782 68.7686L153.105 68.4169L153.456 66.7391ZM153.105 68.4169L154.782 68.7686L154.431 70.4464L152.753 70.0948L153.105 68.4169ZM152.753 70.0948L154.431 70.4464L154.079 72.1242L152.401 71.7726L152.753 70.0948ZM152.401 71.7726L154.079 72.1242L153.728 73.8021L152.05 73.4504L152.401 71.7726ZM152.05 73.4504L153.728 73.8021L153.376 75.4799L151.698 75.1283L152.05 73.4504ZM151.698 75.1283L153.376 75.4799L153.024 77.1577L151.347 76.8061L151.698 75.1283ZM151.347 76.8061L153.024 77.1577L152.673 78.8356L150.995 78.484L151.347 76.8061ZM150.995 78.484L152.673 78.8356L152.321 80.5134L150.643 80.1618L150.995 78.484ZM149.317 78.1323L150.995 78.484L150.643 80.1618L148.965 79.8102L149.317 78.1323ZM149.669 76.4545L151.347 76.8061L150.995 78.484L149.317 78.1323L149.669 76.4545ZM150.02 74.7767L151.698 75.1283L151.347 76.8061L149.669 76.4545L150.02 74.7767ZM150.372 73.0988L152.05 73.4504L151.698 75.1283L150.02 74.7767L150.372 73.0988ZM150.724 71.421L152.401 71.7726L152.05 73.4504L150.372 73.0988L150.724 71.421ZM151.075 69.7431L152.753 70.0948L152.401 71.7726L150.724 71.421L151.075 69.7431ZM147.991 76.1029L149.669 76.4545L149.317 78.1323L147.639 77.7807L147.991 76.1029ZM147.639 77.7807L149.317 78.1323L148.965 79.8102L147.288 79.4585L147.639 77.7807ZM148.965 79.8102L150.643 80.1618L150.292 81.8396L148.614 81.488L148.965 79.8102ZM147.288 79.4585L148.965 79.8102L148.614 81.488L146.936 81.1364L147.288 79.4585ZM145.61 79.1069L147.288 79.4585L146.936 81.1364L145.258 80.7848L145.61 79.1069ZM145.961 77.4291L147.639 77.7807L147.288 79.4585L145.61 79.1069L145.961 77.4291ZM143.932 78.7553L145.61 79.1069L145.258 80.7848L143.58 80.4331L143.932 78.7553ZM142.254 78.4037L143.932 78.7553L143.58 80.4331L141.902 80.0815L142.254 78.4037ZM142.606 76.7258L144.284 77.0775L143.932 78.7553L142.254 78.4037L142.606 76.7258ZM144.284 77.0775L145.961 77.4291L145.61 79.1069L143.932 78.7553L144.284 77.0775ZM144.635 75.3996L146.313 75.7512L145.961 77.4291L144.284 77.0775L144.635 75.3996ZM142.957 75.048L144.635 75.3996L144.284 77.0775L142.606 76.7258L142.957 75.048ZM140.928 76.3742L142.606 76.7258L142.254 78.4037L140.576 78.052L140.928 76.3742ZM141.279 74.6964L142.957 75.048L142.606 76.7258L140.928 76.3742L141.279 74.6964ZM141.631 73.0185L143.309 73.3702L142.957 75.048L141.279 74.6964L141.631 73.0185ZM141.983 71.3407L143.661 71.6923L143.309 73.3702L141.631 73.0185L141.983 71.3407ZM142.334 69.6629L144.012 70.0145L143.661 71.6923L141.983 71.3407L142.334 69.6629ZM142.686 67.985L144.364 68.3366L144.012 70.0145L142.334 69.6629L142.686 67.985ZM143.038 66.3072L144.715 66.6588L144.364 68.3366L142.686 67.985L143.038 66.3072ZM144.715 66.6588L146.393 67.0104L146.042 68.6883L144.364 68.3366L144.715 66.6588ZM143.389 64.6293L145.067 64.981L144.715 66.6588L143.038 66.3072L143.389 64.6293ZM146.393 67.0104L148.071 67.3621L147.72 69.0399L146.042 68.6883L146.393 67.0104ZM144.364 68.3366L146.042 68.6883L145.69 70.3661L144.012 70.0145L144.364 68.3366ZM144.012 70.0145L145.69 70.3661L145.338 72.0439L143.661 71.6923L144.012 70.0145ZM143.661 71.6923L145.338 72.0439L144.987 73.7218L143.309 73.3702L143.661 71.6923ZM143.309 73.3702L144.987 73.7218L144.635 75.3996L142.957 75.048L143.309 73.3702ZM160.524 66.4687L162.201 66.8203L161.85 68.4981L160.172 68.1465L160.524 66.4687ZM158.846 66.1171L160.524 66.4687L160.172 68.1465L158.494 67.7949L158.846 66.1171ZM158.494 67.7949L160.172 68.1465L159.82 69.8244L158.143 69.4727L158.494 67.7949ZM160.172 68.1465L161.85 68.4981L161.498 70.176L159.82 69.8244L160.172 68.1465ZM161.85 68.4981L163.528 68.8498L163.176 70.5276L161.498 70.176L161.85 68.4981ZM162.201 66.8203L163.879 67.1719L163.528 68.8498L161.85 68.4981L162.201 66.8203ZM163.879 67.1719L165.557 67.5236L165.205 69.2014L163.528 68.8498L163.879 67.1719ZM165.557 67.5236L167.235 67.8752L166.883 69.553L165.205 69.2014L165.557 67.5236ZM165.205 69.2014L166.883 69.553L166.532 71.2309L164.854 70.8792L165.205 69.2014ZM163.528 68.8498L165.205 69.2014L164.854 70.8792L163.176 70.5276L163.528 68.8498ZM163.176 70.5276L164.854 70.8792L164.502 72.5571L162.824 72.2054L163.176 70.5276ZM164.854 70.8792L166.532 71.2309L166.18 72.9087L164.502 72.5571L164.854 70.8792ZM166.883 69.553L168.561 69.9046L168.21 71.5825L166.532 71.2309L166.883 69.553ZM166.532 71.2309L168.21 71.5825L167.858 73.2603L166.18 72.9087L166.532 71.2309ZM166.18 72.9087L167.858 73.2603L167.506 74.9382L165.828 74.5865L166.18 72.9087ZM165.828 74.5865L167.506 74.9382L167.155 76.616L165.477 76.2644L165.828 74.5865ZM165.477 76.2644L167.155 76.616L166.803 78.2938L165.125 77.9422L165.477 76.2644ZM165.125 77.9422L166.803 78.2938L166.451 79.9717L164.774 79.62L165.125 77.9422ZM164.774 79.62L166.451 79.9717L166.1 81.6495L164.422 81.2979L164.774 79.62ZM164.422 81.2979L166.1 81.6495L165.748 83.3273L164.07 82.9757L164.422 81.2979ZM162.744 80.9462L164.422 81.2979L164.07 82.9757L162.392 82.6241L162.744 80.9462ZM163.096 79.2684L164.774 79.62L164.422 81.2979L162.744 80.9462L163.096 79.2684ZM163.447 77.5906L165.125 77.9422L164.774 79.62L163.096 79.2684L163.447 77.5906ZM163.799 75.9127L165.477 76.2644L165.125 77.9422L163.447 77.5906L163.799 75.9127ZM164.151 74.2349L165.828 74.5865L165.477 76.2644L163.799 75.9127L164.151 74.2349ZM164.502 72.5571L166.18 72.9087L165.828 74.5865L164.151 74.2349L164.502 72.5571ZM161.418 78.9168L163.096 79.2684L162.744 80.9462L161.066 80.5946L161.418 78.9168ZM161.066 80.5946L162.744 80.9462L162.392 82.6241L160.715 82.2725L161.066 80.5946ZM162.392 82.6241L164.07 82.9757L163.719 84.6535L162.041 84.3019L162.392 82.6241ZM160.715 82.2725L162.392 82.6241L162.041 84.3019L160.363 83.9503L160.715 82.2725ZM159.037 81.9208L160.715 82.2725L160.363 83.9503L158.685 83.5987L159.037 81.9208ZM159.388 80.243L161.066 80.5946L160.715 82.2725L159.037 81.9208L159.388 80.243ZM157.359 81.5692L159.037 81.9208L158.685 83.5987L157.007 83.247L157.359 81.5692ZM155.681 81.2176L157.359 81.5692L157.007 83.247L155.33 82.8954L155.681 81.2176ZM156.033 79.5397L157.711 79.8914L157.359 81.5692L155.681 81.2176L156.033 79.5397ZM157.711 79.8914L159.388 80.243L159.037 81.9208L157.359 81.5692L157.711 79.8914ZM158.062 78.2135L159.74 78.5652L159.388 80.243L157.711 79.8914L158.062 78.2135ZM156.384 77.8619L158.062 78.2135L157.711 79.8914L156.033 79.5397L156.384 77.8619ZM154.355 79.1881L156.033 79.5397L155.681 81.2176L154.003 80.866L154.355 79.1881ZM154.707 77.5103L156.384 77.8619L156.033 79.5397L154.355 79.1881L154.707 77.5103ZM155.058 75.8324L156.736 76.1841L156.384 77.8619L154.707 77.5103L155.058 75.8324ZM155.41 74.1546L157.088 74.5062L156.736 76.1841L155.058 75.8324L155.41 74.1546ZM155.761 72.4768L157.439 72.8284L157.088 74.5062L155.41 74.1546L155.761 72.4768ZM156.113 70.7989L157.791 71.1506L157.439 72.8284L155.761 72.4768L156.113 70.7989ZM156.465 69.1211L158.143 69.4727L157.791 71.1506L156.113 70.7989L156.465 69.1211ZM158.143 69.4727L159.82 69.8244L159.469 71.5022L157.791 71.1506L158.143 69.4727ZM156.816 67.4433L158.494 67.7949L158.143 69.4727L156.465 69.1211L156.816 67.4433ZM159.82 69.8244L161.498 70.176L161.147 71.8538L159.469 71.5022L159.82 69.8244ZM157.791 71.1506L159.469 71.5022L159.117 73.18L157.439 72.8284L157.791 71.1506ZM157.439 72.8284L159.117 73.18L158.765 74.8579L157.088 74.5062L157.439 72.8284ZM157.088 74.5062L158.765 74.8579L158.414 76.5357L156.736 76.1841L157.088 74.5062ZM156.736 76.1841L158.414 76.5357L158.062 78.2135L156.384 77.8619L156.736 76.1841ZM172.273 68.931L173.951 69.2826L173.599 70.9604L171.921 70.6088L172.273 68.931ZM170.595 68.5793L172.273 68.931L171.921 70.6088L170.243 70.2572L170.595 68.5793ZM170.243 70.2572L171.921 70.6088L171.57 72.2866L169.892 71.935L170.243 70.2572ZM169.892 71.935L171.57 72.2866L171.218 73.9645L169.54 73.6129L169.892 71.935ZM169.54 73.6129L171.218 73.9645L170.866 75.6423L169.188 75.2907L169.54 73.6129ZM169.188 75.2907L170.866 75.6423L170.515 77.3202L168.837 76.9685L169.188 75.2907ZM168.837 76.9685L170.515 77.3202L170.163 78.998L168.485 78.6464L168.837 76.9685ZM168.485 78.6464L170.163 78.998L169.811 80.6758L168.134 80.3242L168.485 78.6464ZM168.134 80.3242L169.811 80.6758L169.46 82.3537L167.782 82.002L168.134 80.3242ZM167.782 82.002L169.46 82.3537L169.108 84.0315L167.43 83.6799L167.782 82.002ZM167.43 83.6799L169.108 84.0315L168.757 85.7093L167.079 85.3577L167.43 83.6799ZM169.108 84.0315L170.786 84.3831L170.434 86.061L168.757 85.7093L169.108 84.0315ZM169.46 82.3537L171.138 82.7053L170.786 84.3831L169.108 84.0315L169.46 82.3537ZM169.811 80.6758L171.489 81.0275L171.138 82.7053L169.46 82.3537L169.811 80.6758ZM170.163 78.998L171.841 79.3496L171.489 81.0275L169.811 80.6758L170.163 78.998ZM170.515 77.3202L172.193 77.6718L171.841 79.3496L170.163 78.998L170.515 77.3202ZM170.866 75.6423L172.544 75.9939L172.193 77.6718L170.515 77.3202L170.866 75.6423ZM171.218 73.9645L172.896 74.3161L172.544 75.9939L170.866 75.6423L171.218 73.9645ZM171.57 72.2866L173.247 72.6383L172.896 74.3161L171.218 73.9645L171.57 72.2866ZM171.921 70.6088L173.599 70.9604L173.247 72.6383L171.57 72.2866L171.921 70.6088ZM172.193 77.6718L173.87 78.0234L173.519 79.7012L171.841 79.3496L172.193 77.6718ZM173.87 78.0234L175.548 78.375L175.197 80.0529L173.519 79.7012L173.87 78.0234ZM174.222 76.3456L175.9 76.6972L175.548 78.375L173.87 78.0234L174.222 76.3456ZM172.544 75.9939L174.222 76.3456L173.87 78.0234L172.193 77.6718L172.544 75.9939ZM174.574 74.6677L176.251 75.0194L175.9 76.6972L174.222 76.3456L174.574 74.6677ZM176.251 75.0194L177.929 75.371L177.578 77.0488L175.9 76.6972L176.251 75.0194ZM176.603 73.3415L178.281 73.6931L177.929 75.371L176.251 75.0194L176.603 73.3415ZM176.955 71.6637L178.633 72.0153L178.281 73.6931L176.603 73.3415L176.955 71.6637ZM177.306 69.9858L178.984 70.3375L178.633 72.0153L176.955 71.6637L177.306 69.9858ZM178.984 70.3375L180.662 70.6891L180.31 72.3669L178.633 72.0153L178.984 70.3375ZM178.633 72.0153L180.31 72.3669L179.959 74.0448L178.281 73.6931L178.633 72.0153ZM178.281 73.6931L179.959 74.0448L179.607 75.7226L177.929 75.371L178.281 73.6931ZM173.519 79.7012L175.197 80.0529L174.845 81.7307L173.167 81.3791L173.519 79.7012ZM175.197 80.0529L176.874 80.4045L176.523 82.0823L174.845 81.7307L175.197 80.0529ZM174.845 81.7307L176.523 82.0823L176.171 83.7602L174.493 83.4085L174.845 81.7307ZM174.493 83.4085L176.171 83.7602L175.82 85.438L174.142 85.0864L174.493 83.4085ZM174.142 85.0864L175.82 85.438L175.468 87.1158L173.79 86.7642L174.142 85.0864ZM175.82 85.438L177.497 85.7896L177.146 87.4675L175.468 87.1158L175.82 85.438ZM176.171 83.7602L177.849 84.1118L177.497 85.7896L175.82 85.438L176.171 83.7602ZM176.523 82.0823L178.201 82.434L177.849 84.1118L176.171 83.7602L176.523 82.0823ZM176.874 80.4045L178.552 80.7561L178.201 82.434L176.523 82.0823L176.874 80.4045ZM175.548 78.375L177.226 78.7267L176.874 80.4045L175.197 80.0529L175.548 78.375ZM179.527 84.4634L181.205 84.815L180.853 86.4929L179.175 86.1412L179.527 84.4634ZM181.205 84.815L182.883 85.1667L182.531 86.8445L180.853 86.4929L181.205 84.815ZM180.853 86.4929L182.531 86.8445L182.179 88.5223L180.501 88.1707L180.853 86.4929ZM179.175 86.1412L180.853 86.4929L180.501 88.1707L178.824 87.8191L179.175 86.1412ZM182.34 71.0407L184.018 71.3923L183.666 73.0702L181.988 72.7186L182.34 71.0407ZM184.018 71.3923L185.696 71.744L185.344 73.4218L183.666 73.0702L184.018 71.3923ZM183.666 73.0702L185.344 73.4218L184.992 75.0996L183.314 74.748L183.666 73.0702ZM183.314 74.748L184.992 75.0996L184.641 76.7775L182.963 76.4259L183.314 74.748ZM182.963 76.4259L184.641 76.7775L184.289 78.4553L182.611 78.1037L182.963 76.4259ZM182.611 78.1037L184.289 78.4553L183.937 80.1332L182.26 79.7815L182.611 78.1037ZM182.26 79.7815L183.937 80.1332L183.586 81.811L181.908 81.4594L182.26 79.7815ZM180.582 79.4299L182.26 79.7815L181.908 81.4594L180.23 81.1077L180.582 79.4299ZM180.933 77.7521L182.611 78.1037L182.26 79.7815L180.582 79.4299L180.933 77.7521ZM181.285 76.0742L182.963 76.4259L182.611 78.1037L180.933 77.7521L181.285 76.0742ZM181.637 74.3964L183.314 74.748L182.963 76.4259L181.285 76.0742L181.637 74.3964ZM181.988 72.7186L183.666 73.0702L183.314 74.748L181.637 74.3964L181.988 72.7186ZM180.23 81.1077L181.908 81.4594L181.556 83.1372L179.878 82.7856L180.23 81.1077ZM181.908 81.4594L183.586 81.811L183.234 83.4888L181.556 83.1372L181.908 81.4594Z" fill="black"/>
</svg>
