<svg width="1512" height="427" viewBox="0 0 1512 427" fill="none" xmlns="http://www.w3.org/2000/svg">
<path d="M1139.38 163.829L1154.09 164.52L1136.08 154.431C1130.97 138.494 1127.97 121.717 1127.07 104.1C1172.79 126.525 1200.61 147.622 1210.54 167.391C1220.47 187.16 1231.73 218.078 1244.32 260.148C1198.22 240.265 1167.56 217.204 1152.33 190.964C1147.25 182.22 1142.94 173.175 1139.38 163.829Z" fill="#506F31"/>
<path d="M1474.22 111.541L1461.99 118.105L1469.86 98.8891C1459.69 73.5871 1442.73 48.597 1418.98 23.9178C1400.5 59.7699 1395.59 87.7127 1404.25 107.746C1412.92 127.78 1429.98 157.484 1455.44 196.861C1474.74 165.652 1481 137.212 1474.22 111.541Z" fill="#83D233"/>
<path d="M1415.81 107.704L1402.66 112.17L1413.38 98.1887C1408.82 82.1773 1401.83 65.9403 1392.41 49.4784C1363.34 82.0364 1349.97 108.713 1352.32 129.51C1354.67 150.306 1362.27 181.72 1375.14 223.752C1406.05 193.436 1420.88 164.21 1419.65 136.073C1419.24 126.698 1417.96 117.242 1415.81 107.704Z" fill="#506F31"/>
<path d="M1350.49 222.696C1289.94 218.463 1261.73 211.18 1265.86 200.848C1272.04 185.351 1286.32 193.991 1297.15 189.671C1307.97 185.351 1250.03 158.291 1255.31 143.498C1258.83 133.635 1289.89 132.456 1315.02 142.319C1270.87 120.795 1247.45 114.96 1255.31 101.559C1263.41 86.1723 1309.75 87.5974 1338.68 109.627C1302.95 67.0782 1305.95 52.7827 1324.94 47.4925C1344.56 41.718 1366.39 68.9654 1373.15 119.459C1375.71 94.696 1384.21 85.5503 1399.83 89.1833C1412.77 92.8479 1417.38 119.681 1398.15 146.778C1418.42 133.179 1420.49 121.965 1434.3 127.277C1448.11 132.591 1449.44 161.828 1408.35 200.848L1350.49 222.696Z" fill="#658D3E"/>
<path d="M279.558 108.749L264.858 109.546L282.701 99.3275C287.553 83.3543 290.284 66.5568 290.895 48.9342C245.546 71.688 218.067 92.9848 208.456 112.824C198.846 132.664 188.086 163.662 176.176 205.82C221.951 185.606 252.24 162.325 267.043 135.976C271.976 127.196 276.147 118.121 279.558 108.749Z" fill="#506F31"/>
<path d="M37.9529 90.6768L50.4767 96.9898L41.7326 77.9425C50.7576 52.4457 66.5773 27.1225 89.1922 1.97356C109.294 37.4343 115.468 65.2646 107.715 85.4645C99.9609 105.665 84.251 135.702 60.5845 175.577C39.8812 144.773 32.3368 116.473 37.9529 90.6768Z" fill="#83D233"/>
<path d="M100.278 85.8525L113.459 90.2793L102.645 76.3296C107.098 60.3052 113.979 44.0476 123.289 27.5577C152.578 60.0286 166.118 86.6649 163.909 107.468C161.7 128.272 154.303 159.707 141.719 201.777C110.611 171.554 95.5789 142.373 96.6224 114.233C96.9692 104.857 98.1879 95.3959 100.278 85.8525Z" fill="#506F31"/>
<path d="M322.899 289.546C383.445 285.313 411.655 278.03 407.53 267.698C401.341 252.201 387.065 260.841 376.238 256.521C365.413 252.201 406.622 223.962 401.341 209.169C397.82 199.307 383.494 199.307 358.364 209.169C396.881 181.078 401.187 163.165 385.693 152.015C370.199 140.865 350.775 150.5 334.703 176.477C337.754 128.403 332.252 109.406 308.989 112.582C285.726 115.759 281.335 142.024 300.237 186.31C267.675 160.113 255.728 153.935 246.432 162.485C237.134 171.035 256.008 186.531 275.235 213.628C254.962 200.029 237.921 195.887 224.112 201.199C210.303 206.512 223.944 228.679 265.032 267.698L322.899 289.546Z" fill="#658D3E"/>
<path d="M151.153 218.942C90.607 214.708 62.3968 207.425 66.5225 197.094C72.7115 181.596 86.9888 190.236 97.8146 185.916C108.641 181.596 67.4297 153.358 72.7115 138.565C76.2324 128.702 90.5578 128.702 115.688 138.565C71.542 117.041 44.1765 107.684 59.6714 96.534C75.1654 85.3838 110.419 83.8431 139.35 105.872C105.165 61.2882 114.25 45.6645 136.375 43.1413C158.2 40.7193 165.061 67.9293 173.815 115.705C171.767 84.8554 180.333 73.3884 198.063 80.8294C210.334 86.8172 210.781 111.72 198.818 143.023C219.09 129.425 236.13 125.282 249.939 130.595C263.748 135.908 250.109 158.074 209.02 197.094L151.153 218.942Z" fill="#8CD043"/>
<path d="M83.3112 101.406L71.5704 112.994L88.5914 110.593C102.287 139.384 105.397 187.5 128.908 187.5C149.133 187.5 168.119 172.701 187.773 160.946L203.143 168.44L195.242 156.682C205.818 150.979 216.652 146.778 228.032 146.778C263.463 146.778 289.265 224.828 334.272 233.512C379.278 242.195 371.535 172.003 412.126 172.003C424.351 172.003 432.301 181.103 438.2 194.299L420.949 211.729L441.031 201.328C452.367 232.393 455.955 278.505 473.944 289.862C490.654 300.411 504.392 286.249 519.963 273.296L522.817 285.626L528.179 266.856C536.184 261.091 544.826 256.685 554.671 256.685C588.07 256.685 573.942 301.584 580.054 318.098C586.165 334.612 713.726 320.21 756.341 289.862C798.956 259.515 866.843 310.702 941.57 295.654C1016.3 280.605 1018.79 248.259 1038.16 233.512C1044.21 228.901 1054.68 227.173 1066.66 226.977L1071.62 240.711L1074.12 227.035C1099.01 227.772 1127.54 233.512 1136.59 233.512C1151.11 233.512 1180.44 157.441 1253.06 146.778C1260.16 145.736 1266.33 145.54 1271.72 146.037L1275.72 179.877L1290.06 151.717C1317.33 168.333 1308.68 214.078 1332.75 214.078C1364.17 214.078 1347.47 151.457 1405.77 146.778C1444.63 143.659 1470.72 157.233 1484.02 187.5L1241.2 312.342L796.355 414.723L243.615 365.513L0 162.053C14.905 113.707 35.8557 89.5342 62.8527 89.5342C71.6546 89.5342 78.1657 94.1619 83.3112 101.406Z" fill="#7AB23F"/>
<path d="M0 134.349V426.551H1512V114.653C1469.62 178.4 1422.95 217.604 1371.99 232.269C1295.56 254.265 1244.97 240.549 1167.86 257.755C1090.76 274.96 1037.78 327 981.557 332.42C925.337 337.841 822.641 319.818 761.837 319.818C701.033 319.818 562.205 333.01 518.898 328.88C475.592 324.751 436.855 284.454 362.219 260.578C287.584 236.702 179.422 251.306 117.53 229.276C76.2694 214.59 37.0928 182.947 0 134.349Z" fill="#7AB23F"/>
</svg>
