<svg width="137" height="153" viewBox="0 0 137 153" fill="none" xmlns="http://www.w3.org/2000/svg">
<rect width="7.85747" height="118.962" transform="matrix(0.92193 0.387357 -0.397849 0.917451 60.1738 10.9573)" fill="#B5B5B5"/>
<rect width="50.3962" height="15.1222" transform="matrix(0.92193 0.387357 -0.397849 0.917451 75.0469 28.4143)" fill="#B5B5B5"/>
<path d="M89.3824 17.6753L91.3311 18.4941L86.367 29.9414C85.9239 30.9631 85.359 31.7518 84.6722 32.3075C83.9853 32.8631 83.2185 33.1819 82.3718 33.2637C81.5251 33.3455 80.6356 33.1905 79.7032 32.7987C78.8231 32.429 78.109 31.941 77.5607 31.3347C77.0146 30.7231 76.674 30.0377 76.5388 29.2784C76.4036 28.5191 76.5135 27.7302 76.8684 26.9118L78.7856 27.7173C78.5889 28.1708 78.5298 28.6143 78.6081 29.0478C78.6939 29.4783 78.8952 29.871 79.2119 30.2259C79.5286 30.5808 79.941 30.865 80.4491 31.0785C81.0096 31.314 81.5372 31.397 82.0318 31.3275C82.5263 31.258 82.9741 31.0394 83.3751 30.6717C83.7835 30.301 84.1313 29.7847 84.4184 29.1226L89.3824 17.6753ZM92.835 38.3531C91.7454 37.8953 90.9013 37.2357 90.3027 36.374C89.7093 35.5146 89.3834 34.5242 89.3248 33.4026C89.2714 32.2833 89.5137 31.1033 90.0517 29.8626C90.5942 28.6115 91.2957 27.6152 92.156 26.8736C93.0216 26.1342 93.9749 25.6781 95.0159 25.5054C96.0621 25.3349 97.1299 25.4785 98.2195 25.9363C99.309 26.3941 100.15 27.0526 100.744 27.9121C101.342 28.7737 101.667 29.7667 101.718 30.8913C101.775 32.0181 101.532 33.207 100.989 34.4581C100.451 35.6987 99.7505 36.6861 98.8872 37.4203C98.0291 38.1567 97.0769 38.6102 96.0307 38.7807C94.9898 38.9534 93.9245 38.8109 92.835 38.3531ZM93.5538 36.6955C94.3814 37.0432 95.154 37.1182 95.8714 36.9205C96.5888 36.7227 97.225 36.3337 97.7801 35.7535C98.3351 35.1732 98.7867 34.4817 99.1348 33.679C99.4829 32.8762 99.679 32.0742 99.723 31.2731C99.7669 30.4719 99.6145 29.7454 99.2655 29.0935C98.9166 28.4415 98.3283 27.9417 97.5006 27.5939C96.673 27.2462 95.8993 27.1738 95.1797 27.3768C94.46 27.5797 93.8215 27.9739 93.2642 28.5594C92.7069 29.1448 92.2542 29.839 91.9061 30.6417C91.5579 31.4445 91.363 32.2438 91.3213 33.0398C91.2796 33.8357 91.4343 34.557 91.7855 35.2038C92.1367 35.8505 92.7262 36.3477 93.5538 36.6955ZM110.978 39.8752L114.057 32.7754L115.911 33.5545L110.703 45.5648L108.849 44.7856L109.73 42.7527L109.605 42.6998C109.057 43.1909 108.392 43.5247 107.61 43.7012C106.83 43.8726 105.984 43.7668 105.072 43.3838C104.318 43.0669 103.719 42.621 103.274 42.0461C102.832 41.4659 102.588 40.7718 102.542 39.9637C102.499 39.1504 102.699 38.2329 103.142 37.2112L106.451 29.5797L108.305 30.3588L105.05 37.8652C104.67 38.741 104.614 39.5429 104.88 40.2711C105.152 41.0015 105.672 41.5284 106.442 41.8519C106.903 42.0456 107.423 42.1253 108.002 42.091C108.585 42.0589 109.144 41.8687 109.679 41.5204C110.22 41.1742 110.653 40.6258 110.978 39.8752ZM114.099 46.9918L119.308 34.9815L121.099 35.7342L120.312 37.5483L120.438 37.6011C120.916 37.0993 121.523 36.7843 122.26 36.6563C122.996 36.5283 123.726 36.6162 124.449 36.9199C124.585 36.9771 124.754 37.0513 124.956 37.1423C125.158 37.2333 125.31 37.3061 125.41 37.3605L124.596 39.2371C124.54 39.1951 124.406 39.1111 124.194 38.9852C123.99 38.8563 123.765 38.7401 123.519 38.6366C122.932 38.3901 122.355 38.2926 121.788 38.3439C121.228 38.3922 120.722 38.5739 120.27 38.8892C119.825 39.2013 119.485 39.6285 119.25 40.1706L115.954 47.7709L114.099 46.9918ZM77.2984 54.4419L74.1653 61.6668L72.311 60.8877L77.5192 48.8774L79.3106 49.6301L78.4969 51.5067L78.654 51.5728C79.2014 51.0817 79.8434 50.7722 80.5801 50.6442C81.319 50.511 82.1443 50.6358 83.0557 51.0188C83.8729 51.3621 84.5156 51.8294 84.9838 52.4205C85.4542 53.0064 85.7139 53.7071 85.7628 54.5226C85.8139 55.3329 85.618 56.2489 85.1749 57.2706L81.8655 64.9021L80.0112 64.123L83.2663 56.6166C83.6755 55.6731 83.748 54.8346 83.4839 54.1013C83.2221 53.3627 82.6616 52.8129 81.8026 52.452C81.2106 52.2033 80.6262 52.1087 80.0492 52.1682C79.4775 52.23 78.9518 52.4497 78.4722 52.8275C77.9925 53.2052 77.6013 53.7434 77.2984 54.4419ZM88.6835 68.0995C87.9187 67.7782 87.2868 67.3432 86.7878 66.7946C86.291 66.2408 85.9779 65.6132 85.8486 64.9118C85.7216 64.2052 85.8276 63.4609 86.1666 62.679C86.465 61.9909 86.8431 61.4903 87.3008 61.1773C87.7609 60.8591 88.2718 60.6733 88.8338 60.6197C89.3958 60.5662 89.9778 60.595 90.5798 60.7062C91.1893 60.8144 91.7901 60.9498 92.3822 61.1123C93.1563 61.3266 93.7813 61.506 94.2574 61.6506C94.741 61.7921 95.1135 61.847 95.3751 61.8151C95.6418 61.7855 95.8396 61.6221 95.9685 61.3249L95.9956 61.2624C96.3301 60.4909 96.378 59.8023 96.139 59.1966C95.9053 58.593 95.3616 58.1119 94.5077 57.7532C93.6225 57.3812 92.8448 57.2825 92.1746 57.4569C91.5045 57.6314 90.9723 57.8946 90.5781 58.2467L89.0893 56.8816C89.7201 56.2839 90.3856 55.8918 91.0857 55.7053C91.7933 55.5158 92.4939 55.4712 93.1873 55.5715C93.8882 55.6688 94.5425 55.8451 95.1501 56.1004C95.5378 56.2632 95.9627 56.4972 96.4249 56.8023C96.8945 57.1044 97.3041 57.4953 97.6534 57.9748C98.0081 58.4566 98.2193 59.0476 98.2872 59.7479C98.3551 60.4481 98.1822 61.2752 97.7685 62.2292L94.3371 70.1422L92.4828 69.3631L93.188 67.7367L93.0938 67.6971C92.855 67.9049 92.5245 68.0957 92.1024 68.2696C91.6802 68.4435 91.1803 68.5323 90.6027 68.5362C90.0251 68.54 89.3854 68.3944 88.6835 68.0995ZM89.6852 66.5607C90.4185 66.8688 91.0988 66.9852 91.726 66.9098C92.3584 66.8366 92.9013 66.6271 93.3547 66.2814C93.8132 65.938 94.151 65.516 94.368 65.0156L95.1004 63.3266C94.9812 63.3875 94.771 63.4008 94.47 63.3668C94.1764 63.3297 93.8443 63.2672 93.4737 63.1793C93.1106 63.0884 92.7577 62.9955 92.4148 62.9008C92.0795 62.803 91.8066 62.7254 91.5962 62.6678C91.0872 62.5279 90.5926 62.4402 90.1125 62.4049C89.6399 62.3666 89.2154 62.4316 88.8389 62.6001C88.4699 62.7655 88.1837 63.0828 87.9803 63.5519C87.7022 64.1931 87.7304 64.778 88.0646 65.3067C88.4064 65.8324 88.9466 66.2504 89.6852 66.5607ZM106.52 56.3296L99.576 72.3433L97.7217 71.5642L104.666 55.5505L106.52 56.3296Z" fill="black"/>
<rect width="91.3092" height="118.962" transform="matrix(0.92193 0.387357 -0.397849 0.917451 52.8193 7.66895)" fill="#030202"/>
<rect width="6.88644" height="5.22758" transform="matrix(0.908919 0.416974 -0.427938 0.903808 2.23708 109.574)" fill="black"/>
<rect width="83.3699" height="111.437" transform="matrix(0.92193 0.387357 -0.397849 0.917451 52.9919 12.7817)" fill="white"/>
<rect width="7.17426" height="111.437" transform="matrix(0.92193 0.387357 -0.397849 0.917451 59.378 15.4648)" fill="white"/>
<rect width="46.0142" height="14.1657" transform="matrix(0.92193 0.387357 -0.397849 0.917451 72.8605 31.6287)" fill="white"/>
<path d="M89.6902 20.853L91.6389 21.6718L86.6748 33.1191C86.2317 34.1408 85.6668 34.9295 84.98 35.4852C84.2931 36.0408 83.5263 36.3596 82.6796 36.4414C81.8329 36.5232 80.9434 36.3682 80.011 35.9764C79.1309 35.6067 78.4168 35.1187 77.8685 34.5124C77.3224 33.9008 76.9818 33.2154 76.8466 32.4561C76.7114 31.6968 76.8213 30.9079 77.1762 30.0895L79.0934 30.895C78.8967 31.3485 78.8376 31.792 78.9159 32.2255C79.0017 32.656 79.2029 33.0487 79.5197 33.4036C79.8364 33.7585 80.2488 34.0427 80.7569 34.2562C81.3174 34.4917 81.845 34.5747 82.3396 34.5052C82.8341 34.4357 83.2819 34.2171 83.6829 33.8494C84.0913 33.4787 84.4391 32.9624 84.7262 32.3003L89.6902 20.853ZM93.1428 41.5308C92.0532 41.0731 91.2091 40.4134 90.6105 39.5518C90.0171 38.6923 89.6912 37.7019 89.6326 36.5803C89.5792 35.461 89.8215 34.281 90.3595 33.0403C90.902 31.7892 91.6035 30.7929 92.4638 30.0513C93.3294 29.3119 94.2827 28.8558 95.3237 28.6831C96.3699 28.5126 97.4377 28.6562 98.5273 29.114C99.6168 29.5718 100.458 30.2304 101.052 31.0898C101.65 31.9514 101.975 32.9444 102.026 34.069C102.083 35.1958 101.839 36.3847 101.297 37.6358C100.759 38.8764 100.058 39.8638 99.195 40.598C98.3369 41.3344 97.3847 41.7879 96.3385 41.9584C95.2976 42.1312 94.2323 41.9886 93.1428 41.5308ZM93.8616 39.8732C94.6892 40.2209 95.4618 40.2959 96.1792 40.0982C96.8966 39.9004 97.5328 39.5114 98.0879 38.9312C98.6429 38.3509 99.0945 37.6594 99.4426 36.8567C99.7907 36.0539 99.9868 35.2519 100.031 34.4508C100.075 33.6496 99.9223 32.9231 99.5733 32.2712C99.2244 31.6192 98.6361 31.1194 97.8084 30.7716C96.9808 30.4239 96.2071 30.3515 95.4875 30.5545C94.7678 30.7574 94.1293 31.1516 93.572 31.7371C93.0147 32.3225 92.562 33.0167 92.2139 33.8194C91.8657 34.6222 91.6708 35.4215 91.6291 36.2175C91.5874 37.0134 91.7421 37.7347 92.0933 38.3815C92.4445 39.0282 93.034 39.5254 93.8616 39.8732ZM111.286 43.0529L114.365 35.9531L116.219 36.7322L111.011 48.7425L109.157 47.9634L110.038 45.9304L109.912 45.8775C109.365 46.3686 108.7 46.7024 107.918 46.8789C107.137 47.0503 106.291 46.9445 105.38 46.5615C104.626 46.2446 104.026 45.7987 103.582 45.2238C103.14 44.6436 102.896 43.9495 102.85 43.1414C102.807 42.3281 103.006 41.4106 103.449 40.3889L106.759 32.7574L108.613 33.5365L105.358 41.0429C104.978 41.9187 104.922 42.7206 105.188 43.4488C105.459 44.1792 105.98 44.7061 106.75 45.0296C107.211 45.2233 107.731 45.303 108.309 45.2687C108.893 45.2366 109.452 45.0464 109.987 44.6981C110.528 44.3519 110.96 43.8035 111.286 43.0529ZM64.3862 60.6064L69.5944 48.5962L71.3859 49.3489L70.5992 51.1629L70.725 51.2157C71.2027 50.7139 71.8099 50.399 72.5466 50.271C73.2833 50.143 74.0131 50.2308 74.7359 50.5346C74.8721 50.5918 75.0412 50.6659 75.2433 50.757C75.4453 50.848 75.5964 50.9208 75.6967 50.9752L74.8829 52.8518C74.8268 52.8098 74.6929 52.7258 74.4813 52.5999C74.2771 52.4709 74.0519 52.3548 73.8057 52.2513C73.219 52.0048 72.6421 51.9072 72.0749 51.9586C71.5152 52.0069 71.009 52.1886 70.5565 52.5038C70.1115 52.816 69.7715 53.2432 69.5364 53.7853L66.2406 61.3856L64.3862 60.6064ZM77.6062 57.6196L74.4731 64.8445L72.6188 64.0654L77.827 52.0551L79.6184 52.8078L78.8047 54.6845L78.9618 54.7505C79.5092 54.2594 80.1512 53.9499 80.8879 53.8219C81.6268 53.6887 82.452 53.8135 83.3635 54.1965C84.1807 54.5398 84.8234 55.0071 85.2916 55.5982C85.762 56.1841 86.0217 56.8848 86.0706 57.7003C86.1217 58.5106 85.9257 59.4266 85.4827 60.4483L82.1733 68.0798L80.319 67.3007L83.5741 59.7943C83.9833 58.8508 84.0558 58.0123 83.7917 57.279C83.5299 56.5404 82.9694 55.9906 82.1104 55.6297C81.5184 55.381 80.934 55.2864 80.357 55.3459C79.7853 55.4077 79.2596 55.6274 78.78 56.0052C78.3003 56.3829 77.9091 56.9211 77.6062 57.6196ZM88.9913 71.2772C88.2265 70.9559 87.5946 70.5209 87.0955 69.9723C86.5988 69.4185 86.2857 68.7909 86.1564 68.0895C86.0294 67.3829 86.1354 66.6386 86.4744 65.8567C86.7728 65.1686 87.1509 64.668 87.6086 64.355C88.0687 64.0368 88.5796 63.851 89.1416 63.7974C89.7036 63.7439 90.2856 63.7727 90.8876 63.8839C91.4971 63.9921 92.0979 64.1275 92.69 64.29C93.4641 64.5043 94.0891 64.6837 94.5652 64.8283C95.0488 64.9698 95.4213 65.0247 95.6829 64.9928C95.9496 64.9632 96.1474 64.7998 96.2763 64.5026L96.3034 64.4401C96.6379 63.6686 96.6858 62.98 96.4468 62.3743C96.2131 61.7707 95.6694 61.2896 94.8155 60.9309C93.9303 60.5589 93.1526 60.4602 92.4824 60.6346C91.8123 60.8091 91.2801 61.0723 90.8859 61.4244L89.3971 60.0594C90.0279 59.4616 90.6934 59.0695 91.3935 58.883C92.1011 58.6935 92.8017 58.6489 93.4951 58.7492C94.196 58.8465 94.8503 59.0228 95.4579 59.2781C95.8456 59.4409 96.2705 59.6749 96.7327 59.98C97.2023 60.2821 97.6119 60.673 97.9612 61.1526C98.3159 61.6343 98.5271 62.2253 98.595 62.9256C98.6629 63.6258 98.49 64.4529 98.0763 65.4069L94.6449 73.3199L92.7906 72.5408L93.4958 70.9144L93.4016 70.8748C93.1628 71.0826 92.8323 71.2734 92.4102 71.4473C91.988 71.6212 91.4881 71.71 90.9105 71.7139C90.3329 71.7177 89.6932 71.5722 88.9913 71.2772ZM89.993 69.7384C90.7263 70.0465 91.4066 70.1629 92.0338 70.0875C92.6662 70.0143 93.2091 69.8048 93.6625 69.4591C94.121 69.1157 94.4588 68.6937 94.6758 68.1933L95.4082 66.5044C95.289 66.5652 95.0788 66.5786 94.7777 66.5445C94.4842 66.5074 94.1521 66.4449 93.7815 66.357C93.4184 66.2661 93.0655 66.1733 92.7226 66.0785C92.3873 65.9807 92.1144 65.9031 91.904 65.8455C91.395 65.7056 90.9004 65.6179 90.4203 65.5826C89.9477 65.5443 89.5232 65.6093 89.1467 65.7778C88.7777 65.9432 88.4915 66.2605 88.2881 66.7296C88.01 67.3708 88.0382 67.9557 88.3724 68.4844C88.7142 69.0101 89.2544 69.4281 89.993 69.7384ZM106.828 59.5074L99.8838 75.521L98.0295 74.7419L104.974 58.7282L106.828 59.5074Z" fill="white"/>
<rect width="91.3092" height="118.962" transform="matrix(0.92193 0.387357 -0.397849 0.917451 47.3287 0)" fill="#030202"/>
<rect width="7.85747" height="118.962" transform="matrix(0.92193 0.387357 -0.397849 0.917451 54.323 2.93872)" fill="#B5B5B5"/>
<rect width="50.3962" height="15.1222" transform="matrix(0.92193 0.387357 -0.397849 0.917451 69.1961 20.3958)" fill="#B5B5B5"/>
<path d="M76.9139 27.9769L77.807 28.3521L75.5318 33.5988C75.3288 34.0671 75.0698 34.4286 74.755 34.6833C74.4402 34.938 74.0888 35.0841 73.7007 35.1215C73.3127 35.159 72.9049 35.088 72.4776 34.9084C72.0742 34.739 71.7469 34.5153 71.4956 34.2374C71.2453 33.9571 71.0892 33.643 71.0273 33.295C70.9653 32.9469 71.0157 32.5854 71.1783 32.2103L72.057 32.5795C71.9669 32.7873 71.9398 32.9906 71.9757 33.1893C72.015 33.3866 72.1072 33.5665 72.2524 33.7292C72.3976 33.8919 72.5866 34.0222 72.8195 34.12C73.0764 34.2279 73.3182 34.266 73.5449 34.2341C73.7715 34.2023 73.9768 34.1021 74.1605 33.9336C74.3478 33.7637 74.5071 33.527 74.6387 33.2236L76.9139 27.9769ZM78.4963 37.4542C77.997 37.2444 77.6101 36.942 77.3357 36.5471C77.0638 36.1532 76.9143 35.6993 76.8875 35.1852C76.863 34.6722 76.9741 34.1313 77.2207 33.5627C77.4693 32.9893 77.7908 32.5327 78.1852 32.1928C78.5819 31.8539 79.0188 31.6448 79.4959 31.5657C79.9754 31.4875 80.4649 31.5533 80.9642 31.7631C81.4636 31.973 81.8493 32.2748 82.1212 32.6687C82.3956 33.0636 82.5445 33.5188 82.5679 34.0342C82.5937 34.5506 82.4823 35.0956 82.2337 35.669C81.9871 36.2376 81.6659 36.6902 81.2703 37.0267C80.877 37.3642 80.4406 37.572 79.9611 37.6502C79.4839 37.7294 78.9957 37.664 78.4963 37.4542ZM78.8258 36.6944C79.2051 36.8538 79.5592 36.8882 79.888 36.7976C80.2168 36.7069 80.5084 36.5286 80.7628 36.2627C81.0172 35.9968 81.2242 35.6798 81.3838 35.3119C81.5433 34.9439 81.6332 34.5764 81.6533 34.2092C81.6735 33.842 81.6036 33.509 81.4437 33.2102C81.2837 32.9114 81.0141 32.6823 80.6348 32.5229C80.2554 32.3635 79.9008 32.3304 79.571 32.4234C79.2411 32.5164 78.9485 32.6971 78.6931 32.9654C78.4376 33.2337 78.2301 33.5519 78.0706 33.9198C77.911 34.2878 77.8217 34.6541 77.8026 35.0189C77.7835 35.3837 77.8544 35.7143 78.0153 36.0108C78.1763 36.3072 78.4465 36.5351 78.8258 36.6944ZM86.8119 38.1518L88.2231 34.8977L89.073 35.2548L86.6859 40.7595L85.836 40.4024L86.24 39.4707L86.1824 39.4465C85.9315 39.6715 85.6268 39.8245 85.2681 39.9054C84.9105 39.984 84.5228 39.9355 84.1051 39.7599C83.7594 39.6147 83.4847 39.4103 83.2811 39.1468C83.0785 38.8809 82.9667 38.5628 82.9456 38.1924C82.9256 37.8196 83.0171 37.3991 83.2202 36.9308L84.737 33.433L85.5869 33.7901L84.095 37.2306C83.9209 37.632 83.8949 37.9995 84.017 38.3333C84.1415 38.668 84.3802 38.9095 84.7331 39.0578C84.9444 39.1466 85.1826 39.1831 85.4477 39.1674C85.7152 39.1527 85.9715 39.0655 86.2167 38.9059C86.4643 38.7472 86.6627 38.4959 86.8119 38.1518ZM88.2425 41.4136L90.6296 35.9089L91.4507 36.2539L91.0902 37.0853L91.1478 37.1095C91.3667 36.8795 91.645 36.7352 91.9827 36.6765C92.3203 36.6178 92.6548 36.6581 92.9861 36.7973C93.0486 36.8235 93.1261 36.8575 93.2187 36.8992C93.3113 36.941 93.3805 36.9743 93.4265 36.9993L93.0535 37.8594C93.0278 37.8401 92.9664 37.8016 92.8694 37.7439C92.7758 37.6848 92.6726 37.6316 92.5598 37.5842C92.2909 37.4712 92.0265 37.4264 91.7665 37.45C91.51 37.4721 91.278 37.5554 91.0706 37.6999C90.8666 37.843 90.7108 38.0388 90.603 38.2872L89.0924 41.7707L88.2425 41.4136ZM94.3017 40.0446L92.8657 43.356L92.0158 42.9989L94.4029 37.4942L95.224 37.8392L94.851 38.6993L94.923 38.7296C95.1739 38.5045 95.4681 38.3627 95.8058 38.304C96.1445 38.2429 96.5227 38.3002 96.9405 38.4757C97.315 38.6331 97.6095 38.8472 97.8241 39.1181C98.0398 39.3867 98.1588 39.7078 98.1812 40.0816C98.2046 40.453 98.1148 40.8728 97.9117 41.3411L96.3949 44.8389L95.545 44.4818L97.037 41.0414C97.2245 40.6089 97.2577 40.2246 97.1367 39.8885C97.0167 39.55 96.7598 39.298 96.3661 39.1326C96.0948 39.0186 95.8269 38.9752 95.5625 39.0025C95.3004 39.0308 95.0595 39.1315 94.8397 39.3047C94.6198 39.4778 94.4405 39.7245 94.3017 40.0446ZM99.5198 46.3044C99.1693 46.1571 98.8797 45.9577 98.651 45.7063C98.4233 45.4524 98.2798 45.1648 98.2205 44.8433C98.1623 44.5194 98.2109 44.1783 98.3663 43.8199C98.5031 43.5046 98.6763 43.2752 98.8861 43.1317C99.097 42.9858 99.3312 42.9007 99.5888 42.8761C99.8463 42.8516 100.113 42.8648 100.389 42.9158C100.668 42.9654 100.944 43.0274 101.215 43.1019C101.57 43.2001 101.856 43.2823 102.075 43.3486C102.296 43.4135 102.467 43.4386 102.587 43.424C102.709 43.4104 102.8 43.3355 102.859 43.1993L102.871 43.1707C103.025 42.8171 103.046 42.5015 102.937 42.2238C102.83 41.9472 102.581 41.7267 102.189 41.5623C101.784 41.3918 101.427 41.3465 101.12 41.4265C100.813 41.5065 100.569 41.6271 100.388 41.7885L99.7059 41.1628C99.995 40.8889 100.3 40.7092 100.621 40.6237C100.945 40.5368 101.266 40.5164 101.584 40.5623C101.905 40.6069 102.205 40.6877 102.484 40.8047C102.661 40.8794 102.856 40.9866 103.068 41.1265C103.283 41.2649 103.471 41.4441 103.631 41.6639C103.794 41.8847 103.89 42.1556 103.922 42.4765C103.953 42.7975 103.873 43.1766 103.684 43.6138L102.111 47.2406L101.261 46.8835L101.584 46.1381L101.541 46.1199C101.432 46.2151 101.28 46.3026 101.087 46.3823C100.893 46.462 100.664 46.5027 100.399 46.5045C100.135 46.5062 99.8416 46.4395 99.5198 46.3044ZM99.979 45.5991C100.315 45.7403 100.627 45.7936 100.914 45.7591C101.204 45.7255 101.453 45.6295 101.661 45.4711C101.871 45.3137 102.026 45.1203 102.125 44.8909L102.461 44.1168C102.406 44.1447 102.31 44.1508 102.172 44.1352C102.037 44.1182 101.885 44.0896 101.715 44.0493C101.549 44.0076 101.387 43.965 101.23 43.9216C101.076 43.8768 100.951 43.8412 100.855 43.8148C100.622 43.7507 100.395 43.7105 100.175 43.6943C99.9582 43.6768 99.7636 43.7066 99.5911 43.7838C99.422 43.8596 99.2908 44.005 99.1976 44.22C99.0701 44.5139 99.083 44.782 99.2362 45.0243C99.3928 45.2653 99.6404 45.4568 99.979 45.5991ZM107.695 40.9098L104.512 48.2494L103.662 47.8924L106.845 40.5527L107.695 40.9098Z" fill="black"/>
<path d="M56.4861 56.666L57.6037 60.1988H61.2202L58.2943 62.3822L59.4119 65.915L56.4861 63.7316L53.5603 65.915L54.6778 62.3822L51.752 60.1988H55.3685L56.4861 56.666Z" fill="#D9D9D9"/>
<path d="M46.5307 91.1768L47.6482 94.7096H51.2648L48.3389 96.8929L49.4565 100.426L46.5307 98.2424L43.6049 100.426L44.7224 96.8929L41.7966 94.7096H45.4131L46.5307 91.1768Z" fill="#D9D9D9"/>
<path d="M86.3523 80.9512L87.4698 84.484H91.0863L88.1605 86.6674L89.2781 90.2002L86.3523 88.0168L83.4265 90.2002L84.544 86.6674L81.6182 84.484H85.2347L86.3523 80.9512Z" fill="#D9D9D9"/>
<path d="M63.8444 74.9863L64.962 78.5191H68.5785L65.6527 80.7025L66.7702 84.2353L63.8444 82.0519L60.9186 84.2353L62.0362 80.7025L59.1103 78.5191H62.7269L63.8444 74.9863Z" fill="#D9D9D9"/>
<path d="M86.3523 56.666L87.4698 60.1988H91.0863L88.1605 62.3822L89.2781 65.915L86.3523 63.7316L83.4265 65.915L84.544 62.3822L81.6182 60.1988H85.2347L86.3523 56.666Z" fill="#D9D9D9"/>
<path d="M72.5013 104.811L73.6189 108.343H77.2354L74.3095 110.527L75.4271 114.06L72.5013 111.876L69.5755 114.06L70.693 110.527L67.7672 108.343H71.3837L72.5013 104.811Z" fill="#D9D9D9"/>
</svg>
