<svg width="551" height="416" viewBox="0 0 551 416" fill="none" xmlns="http://www.w3.org/2000/svg">
<path d="M270.457 27.1594C276.716 22.7938 285.26 26.7241 286.189 34.2639L286.228 34.6259L293.721 118.318C294.426 126.204 286.405 131.827 279.381 128.502L203.444 92.5508C196.529 89.2772 195.592 79.7036 201.716 75.1146L202.012 74.9004L270.457 27.1594Z" fill="#FBD692" stroke="#8E5252" stroke-width="6"/>
<path d="M318.264 124.223C369.594 115.32 418.406 121.805 455.801 139.335C493.207 156.87 518.935 185.3 524.873 220.252C530.812 255.206 515.942 290.678 486.465 319.814C456.997 348.941 413.121 371.503 361.79 380.406C310.46 389.309 261.648 382.824 224.253 365.294C186.847 347.759 161.118 319.329 155.179 284.375C149.241 249.422 164.112 213.951 193.589 184.815C223.057 155.688 266.933 133.126 318.264 124.223Z" fill="#FBD692" stroke="#8E5252" stroke-width="6"/>
<g filter="url(#filter0_d_69_261)">
<path d="M374.2 181.541C361.504 169.814 362.97 136.772 365.29 121.717C381.773 117.597 393.875 123.434 397.866 126.868C395.267 149.978 386.896 193.268 374.2 181.541Z" fill="#FCA757"/>
<path d="M374.2 181.541C361.504 169.814 362.97 136.772 365.29 121.717C381.773 117.597 393.875 123.434 397.866 126.868C395.267 149.978 386.896 193.268 374.2 181.541Z" stroke="#FCA757" stroke-width="5"/>
</g>
<g filter="url(#filter1_d_69_261)">
<path d="M407.828 185.362C398.239 171.654 405.435 139.298 410.232 124.833C426.105 123.541 436.191 131.337 439.249 135.396C432.771 157.763 417.417 199.069 407.828 185.362Z" fill="#FCA757"/>
<path d="M407.828 185.362C398.239 171.654 405.435 139.298 410.232 124.833C426.105 123.541 436.191 131.337 439.249 135.396C432.771 157.763 417.417 199.069 407.828 185.362Z" stroke="#FCA757" stroke-width="5"/>
</g>
<g filter="url(#filter2_d_69_261)">
<path d="M438.4 198.377C431.545 183.087 444.658 152.685 452.071 139.395C467.9 141.154 476.348 150.734 478.593 155.304C468.052 176.032 445.256 213.667 438.4 198.377Z" fill="#FCA757"/>
<path d="M438.4 198.377C431.545 183.087 444.658 152.685 452.071 139.395C467.9 141.154 476.348 150.734 478.593 155.304C468.052 176.032 445.256 213.667 438.4 198.377Z" stroke="#FCA757" stroke-width="5"/>
</g>
<path d="M318.563 124.037C369.893 115.134 418.705 121.619 456.1 139.149C493.506 156.684 519.234 185.114 525.172 220.067C531.111 255.02 516.24 290.492 486.764 319.628C457.296 348.755 413.419 371.317 362.089 380.22C310.758 389.124 261.947 382.638 224.552 365.108C187.145 347.573 161.417 319.143 155.478 284.19C149.54 249.237 164.411 213.765 193.888 184.629C223.356 155.502 267.232 132.94 318.563 124.037Z" stroke="#8E5252" stroke-width="6"/>
<path d="M40.6085 68.834C39.3214 61.257 46.4564 55.0693 53.6206 57.3907L53.9615 57.5075L132.258 85.8495C139.607 88.5097 141.314 98.214 135.351 103.271L71.1238 157.752C65.2548 162.73 56.2834 159.533 54.7448 152.018L54.6771 151.656L40.6085 68.834Z" fill="#FBD692" stroke="#8E5252" stroke-width="6"/>
<mask id="path-8-inside-1_69_261" fill="white">
<path fill-rule="evenodd" clip-rule="evenodd" d="M132.118 86.2575L53.8215 57.9154C46.8527 55.3928 39.7776 61.3942 41.0299 68.7658L55.0993 151.588C56.362 159.021 65.1302 162.267 70.847 157.418L135.074 102.938C140.791 98.0887 139.145 88.8012 132.118 86.2575ZM54.9726 54.6692C45.5442 51.2563 35.972 59.3758 37.6662 69.3491L51.7356 152.171C53.444 162.228 65.3068 166.62 73.0414 160.059L137.269 105.579C145.003 99.0181 142.776 86.4527 133.269 83.0113L54.9726 54.6692Z"/>
</mask>
<path fill-rule="evenodd" clip-rule="evenodd" d="M132.118 86.2575L53.8215 57.9154C46.8527 55.3928 39.7776 61.3942 41.0299 68.7658L55.0993 151.588C56.362 159.021 65.1302 162.267 70.847 157.418L135.074 102.938C140.791 98.0887 139.145 88.8012 132.118 86.2575ZM54.9726 54.6692C45.5442 51.2563 35.972 59.3758 37.6662 69.3491L51.7356 152.171C53.444 162.228 65.3068 166.62 73.0414 160.059L137.269 105.579C145.003 99.0181 142.776 86.4527 133.269 83.0113L54.9726 54.6692Z" fill="#8E5252"/>
<path d="M53.8215 57.9154L55.8443 52.2385L55.8443 52.2385L53.8215 57.9154ZM132.118 86.2575L134.141 80.5806L134.141 80.5806L132.118 86.2575ZM41.0299 68.7658L35.1459 69.7957L35.1459 69.7957L41.0299 68.7658ZM55.0993 151.588L60.9832 150.558L60.9832 150.558L55.0993 151.588ZM37.6662 69.3491L31.7823 70.379L31.7823 70.379L37.6662 69.3491ZM54.9726 54.6692L52.9498 60.3461L52.9498 60.3461L54.9726 54.6692ZM51.7356 152.171L57.6195 151.141L51.7356 152.171ZM133.269 83.0113L135.292 77.3344L135.292 77.3344L133.269 83.0113ZM53.8215 57.9154L51.7987 63.5923L130.095 91.9344L132.118 86.2575L134.141 80.5806L55.8443 52.2385L53.8215 57.9154ZM41.0299 68.7658L46.9138 67.7359C46.4349 64.9167 49.1336 62.6276 51.7987 63.5923L53.8215 57.9154L55.8443 52.2385C44.5718 48.1581 33.1203 57.8716 35.1459 69.7957L41.0299 68.7658ZM55.0993 151.588L60.9832 150.558L46.9138 67.7359L41.0299 68.7658L35.1459 69.7957L49.2153 152.618L55.0993 151.588ZM70.847 157.418L67.0126 152.803C64.8404 154.646 61.4703 153.425 60.9832 150.558L55.0993 151.588L49.2153 152.618C51.2536 164.617 65.4199 169.889 74.6815 162.033L70.847 157.418ZM135.074 102.938L131.24 98.3231L67.0126 152.803L70.847 157.418L74.6815 162.033L138.909 107.553L135.074 102.938ZM132.118 86.2575L130.095 91.9344C132.806 92.9156 133.412 96.4806 131.24 98.3231L135.074 102.938L138.909 107.553C148.17 99.6968 145.484 84.6868 134.141 80.5806L132.118 86.2575ZM37.6662 69.3491L43.5501 68.3192C42.6293 62.8983 47.8251 58.491 52.9498 60.3461L54.9726 54.6692L56.9954 48.9923C43.2633 44.0215 29.3147 55.8532 31.7823 70.379L37.6662 69.3491ZM51.7356 152.171L57.6195 151.141L43.5501 68.3192L37.6662 69.3491L31.7823 70.379L45.8517 153.201L51.7356 152.171ZM73.0414 160.059L69.2069 155.444C65.017 158.998 58.5523 156.632 57.6195 151.141L51.7356 152.171L45.8517 153.201C48.3357 167.824 65.5966 174.241 76.8759 164.674L73.0414 160.059ZM137.269 105.579L133.434 100.964L69.2069 155.444L73.0414 160.059L76.8759 164.674L141.103 110.194L137.269 105.579ZM133.269 83.0113L131.246 88.6882C136.437 90.5671 137.624 97.41 133.434 100.964L137.269 105.579L141.103 110.194C152.382 100.626 149.115 82.3383 135.292 77.3344L133.269 83.0113ZM54.9726 54.6692L52.9498 60.3461L131.246 88.6882L133.269 83.0113L135.292 77.3344L56.9954 48.9923L54.9726 54.6692Z" fill="#8E5252" mask="url(#path-8-inside-1_69_261)"/>
<g filter="url(#filter3_d_69_261)">
<path d="M258.036 59.3535C261.507 56.8508 266.196 59.0707 266.514 63.3672L269.153 99.0462C269.473 103.379 265.116 106.568 261.327 104.774L229.864 89.8784C226.075 88.0846 225.712 82.6608 229.212 80.1371L258.036 59.3535Z" fill="#FFF2DA"/>
<path d="M258.328 59.7618C261.384 57.5582 265.463 59.3752 265.978 63.0413L266.016 63.4019L268.656 99.0807C268.95 103.067 264.948 105.935 261.537 104.32L230.074 89.425C226.77 87.8603 226.31 83.1728 229.213 80.7702L229.504 80.5452L258.328 59.7618Z" stroke="#FFF2DA"/>
</g>
<g filter="url(#filter4_d_69_261)">
<path d="M63.6697 85.2399C62.8609 81.0096 66.8094 77.6246 70.8086 79.1198L104.019 91.5363C108.051 93.044 109.109 98.3741 105.919 101.109L79.4247 123.822C76.2342 126.557 71.2015 124.635 70.386 120.369L63.6697 85.2399Z" fill="#FFF2DA"/>
<path d="M64.1581 85.1441C63.4458 81.4187 66.7807 78.4242 70.295 79.4766L70.635 79.5915L103.846 92.0073C107.552 93.393 108.473 98.2604 105.597 100.726L79.103 123.439C76.3169 125.827 71.91 124.296 70.9558 120.634L70.8744 120.273L64.1581 85.1441Z" stroke="#FFF2DA"/>
</g>
<path fill-rule="evenodd" clip-rule="evenodd" d="M293.3 118.373L285.808 34.6819C285.141 27.2329 276.776 23.2726 270.684 27.5217L202.239 75.2621C196.096 79.5468 196.871 88.9495 203.63 92.1495L279.567 128.101C286.326 131.301 293.973 125.885 293.3 118.373ZM289.206 34.3712C288.304 24.2932 276.987 18.9351 268.745 24.684L200.3 72.4244C191.989 78.2213 193.037 90.9426 202.182 95.272L278.119 131.223C287.264 135.552 297.609 128.225 296.699 118.063L289.206 34.3712Z" fill="#8E5252"/>
<path d="M165.996 79.8941C199.596 74.8474 231.405 80.5258 255.656 93.6438C279.906 106.761 296.436 127.201 300.044 151.724C303.652 176.247 293.721 200.661 274.297 220.338C254.871 240.017 226.072 254.799 192.472 259.845C158.873 264.892 127.062 259.214 102.811 246.096C78.5616 232.978 62.0314 212.539 58.4233 188.016C54.8153 163.493 64.746 139.079 84.1706 119.401C103.596 99.7228 132.396 84.9408 165.996 79.8941Z" fill="#FBD692" stroke="#8E5252" stroke-width="6"/>
<path d="M215.502 171.37C216.782 185.378 199.311 198.46 176.479 200.59C153.647 202.72 134.101 193.091 132.821 179.083C131.541 165.075 149.012 151.992 171.843 149.862C194.675 147.732 214.221 157.361 215.502 171.37Z" fill="#FFF2DA"/>
<mask id="path-17-inside-2_69_261" fill="white">
<path fill-rule="evenodd" clip-rule="evenodd" d="M274.011 220.01C293.368 200.401 303.216 176.124 299.635 151.786C296.054 127.448 279.643 107.115 255.477 94.0425C231.312 80.9706 199.588 75.301 166.061 80.3369C132.533 85.3727 103.814 100.121 84.4569 119.73C65.0997 139.339 55.2515 163.616 58.8324 187.954C62.4132 212.292 78.825 232.625 102.991 245.697C127.156 258.769 158.879 264.439 192.407 259.403C225.934 254.367 254.654 239.619 274.011 220.01ZM192.909 262.814C261.269 252.546 310.563 202.61 303.011 151.278C295.459 99.947 233.919 66.6583 165.559 76.9261C97.1987 87.1939 47.9042 137.13 55.4566 188.461C63.0091 239.793 124.548 273.082 192.909 262.814Z"/>
</mask>
<path fill-rule="evenodd" clip-rule="evenodd" d="M274.011 220.01C293.368 200.401 303.216 176.124 299.635 151.786C296.054 127.448 279.643 107.115 255.477 94.0425C231.312 80.9706 199.588 75.301 166.061 80.3369C132.533 85.3727 103.814 100.121 84.4569 119.73C65.0997 139.339 55.2515 163.616 58.8324 187.954C62.4132 212.292 78.825 232.625 102.991 245.697C127.156 258.769 158.879 264.439 192.407 259.403C225.934 254.367 254.654 239.619 274.011 220.01ZM192.909 262.814C261.269 252.546 310.563 202.61 303.011 151.278C295.459 99.947 233.919 66.6583 165.559 76.9261C97.1987 87.1939 47.9042 137.13 55.4566 188.461C63.0091 239.793 124.548 273.082 192.909 262.814Z" fill="#FF8860"/>
<path d="M274.011 220.01L269.75 215.797L274.011 220.01ZM255.477 94.0425L252.614 99.3251L252.614 99.3251L255.477 94.0425ZM84.4569 119.73L88.7172 123.943L84.4569 119.73ZM102.991 245.697L105.854 240.415L102.991 245.697ZM299.635 151.786L293.702 152.677C296.947 174.731 288.106 197.202 269.75 215.797L274.011 220.01L278.271 224.223C298.629 203.599 309.486 177.516 305.569 150.894L299.635 151.786ZM255.477 94.0425L252.614 99.3251C275.53 111.721 290.457 130.623 293.702 152.677L299.635 151.786L305.569 150.894C301.652 124.272 283.756 102.508 258.34 88.76L255.477 94.0425ZM166.061 80.3369L166.934 86.273C199.301 81.4114 229.694 86.9272 252.614 99.3251L255.477 94.0425L258.34 88.76C232.929 75.014 199.876 69.1905 165.187 74.4008L166.061 80.3369ZM84.4569 119.73L88.7172 123.943C107.076 105.345 134.567 91.1345 166.934 86.273L166.061 80.3369L165.187 74.4008C130.499 79.611 100.552 94.8972 80.1966 115.517L84.4569 119.73ZM58.8324 187.954L64.7658 187.063C61.521 165.009 70.3612 142.538 88.7172 123.943L84.4569 119.73L80.1966 115.517C59.8382 136.141 48.982 162.224 52.8989 188.846L58.8324 187.954ZM102.991 245.697L105.854 240.415C82.9381 228.019 68.0106 209.117 64.7658 187.063L58.8324 187.954L52.8989 188.846C56.8159 215.468 74.7118 237.232 100.127 250.98L102.991 245.697ZM192.407 259.403L191.534 253.467C159.167 258.329 128.773 252.813 105.854 240.415L102.991 245.697L100.127 250.98C125.539 264.726 158.592 270.549 193.28 265.339L192.407 259.403ZM274.011 220.01L269.75 215.797C251.391 234.395 223.9 248.606 191.534 253.467L192.407 259.403L193.28 265.339C227.969 260.129 257.916 244.843 278.271 224.223L274.011 220.01ZM303.011 151.278L297.078 152.17C300.518 175.55 291.091 199.062 272.167 218.232C253.24 237.405 225.055 251.918 192.035 256.878L192.909 262.814L193.782 268.75C229.123 263.442 259.765 247.853 280.687 226.658C301.612 205.461 313.057 178.338 308.944 150.387L303.011 151.278ZM165.559 76.9261L166.432 82.8622C199.452 77.9026 230.597 83.5041 254.225 96.2851C277.85 109.065 293.638 128.789 297.078 152.17L303.011 151.278L308.944 150.387C304.832 122.436 286.073 99.8504 259.951 85.72C233.831 71.5907 200.026 65.6817 164.686 70.99L165.559 76.9261ZM55.4566 188.461L61.3901 187.57C57.9501 164.19 67.3762 140.678 86.3008 121.508C105.227 102.335 133.413 87.8217 166.432 82.8622L165.559 76.9261L164.686 70.99C129.345 76.2982 98.703 91.8872 77.7802 113.082C56.8557 134.279 45.4107 161.402 49.5232 189.353L55.4566 188.461ZM192.909 262.814L192.035 256.878C159.016 261.837 127.871 256.236 104.243 243.455C80.6174 230.675 64.83 210.951 61.3901 187.57L55.4566 188.461L49.5232 189.353C53.6357 217.304 72.3942 239.89 98.5165 254.02C124.637 268.149 158.441 274.058 193.782 268.75L192.909 262.814Z" fill="#8E5252" mask="url(#path-17-inside-2_69_261)"/>
<g filter="url(#filter5_d_69_261)">
<ellipse cx="15.0734" cy="14.3677" rx="15.0734" ry="14.3677" transform="matrix(0.99984 0.0179121 -0.017546 0.999846 110.554 148.461)" fill="#8E5252"/>
</g>
<g filter="url(#filter6_d_69_261)">
<ellipse cx="15.0734" cy="14.3677" rx="15.0734" ry="14.3677" transform="matrix(0.99984 0.0179121 -0.017546 0.999846 198.719 139.266)" fill="#8E5252"/>
</g>
<g filter="url(#filter7_d_69_261)">
<path d="M158.476 180.34C161.774 182.743 169.464 184.273 173.835 171.177C175.442 174.342 181.022 179.893 190.486 176.77" stroke="#8E5252" stroke-width="7"/>
</g>
<g filter="url(#filter8_d_69_261)">
<path d="M152.282 121.233C142.86 116.889 137.273 97.4773 135.657 88.3143C144.135 82.7543 152.079 83.8029 154.992 85.0221C158.014 98.9026 161.703 125.577 152.282 121.233Z" fill="#FCA757"/>
<path d="M152.282 121.233C142.86 116.889 137.273 97.4773 135.657 88.3143C144.135 82.7543 152.079 83.8029 154.992 85.0221C158.014 98.9026 161.703 125.577 152.282 121.233Z" stroke="#FCA757" stroke-width="5"/>
</g>
<g filter="url(#filter9_d_69_261)">
<path d="M179.604 114.348C171.325 108.063 169.992 87.8914 170.36 78.5916C179.821 74.9994 187.357 77.7461 189.943 79.5685C189.946 93.7809 187.884 120.634 179.604 114.348Z" fill="#FCA757"/>
<path d="M179.604 114.348C171.325 108.063 169.992 87.8914 170.36 78.5916C179.821 74.9994 187.357 77.7461 189.943 79.5685C189.946 93.7809 187.884 120.634 179.604 114.348Z" stroke="#FCA757" stroke-width="5"/>
</g>
<g filter="url(#filter10_d_69_261)">
<path d="M260.657 152.474C267.062 140.934 288.268 140.028 298.07 141.018C302.097 154.74 299.399 165.392 297.547 169.003C282.582 168.302 254.252 164.014 260.657 152.474Z" fill="#FCA757"/>
<path d="M260.657 152.474C267.062 140.934 288.268 140.028 298.07 141.018C302.097 154.74 299.399 165.392 297.547 169.003C282.582 168.302 254.252 164.014 260.657 152.474Z" stroke="#FCA757" stroke-width="5"/>
</g>
<g filter="url(#filter11_d_69_261)">
<path d="M257.71 178.735C267.058 169.471 287.666 174.604 296.801 178.329C296.861 192.641 291.318 202.103 288.539 205.045C274.367 200.135 248.361 187.999 257.71 178.735Z" fill="#FCA757"/>
<path d="M257.71 178.735C267.058 169.471 287.666 174.604 296.801 178.329C296.861 192.641 291.318 202.103 288.539 205.045C274.367 200.135 248.361 187.999 257.71 178.735Z" stroke="#FCA757" stroke-width="5"/>
</g>
<path d="M94.0257 189.784C91.8653 199.951 75.4759 206.807 67.5513 208.964C60.9982 200.28 60.4738 191.835 61.0307 188.698C72.9293 184.823 96.1862 179.616 94.0257 189.784Z" fill="#FCA757" stroke="#FCA757" stroke-width="5"/>
<g filter="url(#filter12_d_69_261)">
<path d="M94.0257 189.784C91.8653 199.951 75.4759 206.807 67.5513 208.964C60.9982 200.28 60.4738 191.835 61.0307 188.698C72.9293 184.823 96.1862 179.616 94.0257 189.784Z" fill="#FCA757"/>
<path d="M94.0257 189.784C91.8653 199.951 75.4759 206.807 67.5513 208.964C60.9982 200.28 60.4738 191.835 61.0307 188.698C72.9293 184.823 96.1862 179.616 94.0257 189.784Z" stroke="#FCA757" stroke-width="5"/>
</g>
<g filter="url(#filter13_d_69_261)">
<path d="M104.552 205.883C106.034 216.174 93.037 228.371 86.3533 233.183C77.2155 227.351 73.8109 219.62 73.2508 216.484C83.0668 208.662 103.069 195.592 104.552 205.883Z" fill="#FCA757"/>
<path d="M104.552 205.883C106.034 216.174 93.037 228.371 86.3533 233.183C77.2155 227.351 73.8109 219.62 73.2508 216.484C83.0668 208.662 103.069 195.592 104.552 205.883Z" stroke="#FCA757" stroke-width="5"/>
</g>
<mask id="path-29-inside-3_69_261" fill="white">
<path fill-rule="evenodd" clip-rule="evenodd" d="M274.321 218.572C293.678 198.963 303.526 174.685 299.945 150.347C296.364 126.009 279.953 105.676 255.787 92.6043C231.622 79.5324 199.898 73.8627 166.371 78.8986C132.843 83.9345 104.124 98.6827 84.767 118.292C65.4098 137.901 55.5616 162.178 59.1424 186.516C62.7233 210.854 79.135 231.187 103.301 244.259C127.466 257.331 159.189 263.001 192.717 257.965C226.244 252.929 254.964 238.181 274.321 218.572ZM193.219 261.376C261.579 251.108 310.873 201.172 303.321 149.84C295.769 98.5087 234.229 65.22 165.869 75.4878C97.5087 85.7556 48.2143 135.692 55.7667 187.023C63.3191 238.355 124.859 271.643 193.219 261.376Z"/>
</mask>
<path fill-rule="evenodd" clip-rule="evenodd" d="M274.321 218.572C293.678 198.963 303.526 174.685 299.945 150.347C296.364 126.009 279.953 105.676 255.787 92.6043C231.622 79.5324 199.898 73.8627 166.371 78.8986C132.843 83.9345 104.124 98.6827 84.767 118.292C65.4098 137.901 55.5616 162.178 59.1424 186.516C62.7233 210.854 79.135 231.187 103.301 244.259C127.466 257.331 159.189 263.001 192.717 257.965C226.244 252.929 254.964 238.181 274.321 218.572ZM193.219 261.376C261.579 251.108 310.873 201.172 303.321 149.84C295.769 98.5087 234.229 65.22 165.869 75.4878C97.5087 85.7556 48.2143 135.692 55.7667 187.023C63.3191 238.355 124.859 271.643 193.219 261.376Z" fill="#8E5252"/>
<path d="M274.321 218.572L270.06 214.359L274.321 218.572ZM255.787 92.6043L252.924 97.8869L252.924 97.8869L255.787 92.6043ZM84.767 118.292L89.0272 122.504L84.767 118.292ZM103.301 244.259L106.164 238.977L103.301 244.259ZM299.945 150.347L294.012 151.239C297.257 173.293 288.417 195.764 270.06 214.359L274.321 218.572L278.581 222.784C298.939 202.161 309.796 176.078 305.879 149.456L299.945 150.347ZM255.787 92.6043L252.924 97.8869C275.84 110.283 290.767 129.185 294.012 151.239L299.945 150.347L305.879 149.456C301.962 122.834 284.066 101.07 258.65 87.3217L255.787 92.6043ZM166.371 78.8986L167.244 84.8347C199.611 79.9732 230.004 85.489 252.924 97.8869L255.787 92.6043L258.65 87.3217C233.239 73.5758 200.186 67.7523 165.497 72.9625L166.371 78.8986ZM84.767 118.292L89.0272 122.504C107.386 103.906 134.878 89.6962 167.244 84.8347L166.371 78.8986L165.497 72.9625C130.809 78.1728 100.862 93.459 80.5067 114.079L84.767 118.292ZM59.1424 186.516L65.0759 185.625C61.8311 163.571 70.6712 141.099 89.0272 122.504L84.767 118.292L80.5067 114.079C60.1483 134.703 49.2921 160.785 53.209 187.407L59.1424 186.516ZM103.301 244.259L106.164 238.977C83.2482 226.581 68.3207 207.679 65.0759 185.625L59.1424 186.516L53.209 187.407C57.1259 214.029 75.0219 235.794 100.437 249.542L103.301 244.259ZM192.717 257.965L191.844 252.029C159.477 256.89 129.083 251.375 106.164 238.977L103.301 244.259L100.437 249.542C125.849 263.288 158.902 269.111 193.59 263.901L192.717 257.965ZM274.321 218.572L270.06 214.359C251.702 232.957 224.21 247.167 191.844 252.029L192.717 257.965L193.59 263.901C228.279 258.691 258.226 243.405 278.581 222.784L274.321 218.572ZM303.321 149.84L297.388 150.731C300.828 174.112 291.402 197.623 272.477 216.794C253.551 235.967 225.365 250.48 192.345 255.44L193.219 261.376L194.092 267.312C229.433 262.004 260.075 246.415 280.997 225.219C301.922 204.023 313.367 176.9 309.255 148.949L303.321 149.84ZM165.869 75.4878L166.742 81.4239C199.762 76.4644 230.907 82.0658 254.535 94.8469C278.16 107.627 293.948 127.351 297.388 150.731L303.321 149.84L309.255 148.949C305.142 120.998 286.383 98.4121 260.261 84.2817C234.141 70.1525 200.336 64.2435 164.996 69.5517L165.869 75.4878ZM55.7667 187.023L61.7001 186.132C58.2602 162.752 67.6862 139.24 86.6109 120.069C105.537 100.897 133.723 86.3835 166.742 81.4239L165.869 75.4878L164.996 69.5517C129.655 74.86 99.0131 90.4489 78.0903 111.644C57.1657 132.841 45.7208 159.963 49.8333 187.914L55.7667 187.023ZM193.219 261.376L192.345 255.44C159.326 260.399 128.181 254.798 104.553 242.017C80.9275 229.237 65.1401 209.512 61.7001 186.132L55.7667 187.023L49.8333 187.914C53.9457 215.866 72.7043 238.451 98.8266 252.582C124.947 266.711 158.751 272.62 194.092 267.312L193.219 261.376Z" fill="#8E5252" mask="url(#path-29-inside-3_69_261)"/>
<path d="M515.608 286.469C466.003 282.978 359.312 290.478 301.737 385.504C375.332 393.882 515.608 393.224 515.608 286.469Z" fill="#FBD692" stroke="#8E5252" stroke-width="5"/>
<g filter="url(#filter14_d_69_261)">
<path d="M304.866 383.805C323.068 354.38 339.753 340.319 345.82 336.966C361.974 354.667 360.514 378.824 357.765 388.69C331.6 388.69 311.597 385.434 304.866 383.805Z" fill="#FCA757"/>
</g>
<g filter="url(#filter15_d_69_261)">
<path d="M418.544 381.794C418.544 340.298 397.933 316.581 387.627 309.909C413.722 296.604 434.806 292.901 442.086 292.713C458.916 313.01 488.093 355.746 470.167 364.316C452.241 372.886 428.282 379.538 418.544 381.794Z" fill="#FCA757"/>
</g>
<mask id="mask0_69_261" style="mask-type:alpha" maskUnits="userSpaceOnUse" x="282" y="30" width="35" height="34">
<path d="M307.844 36.486C313.904 41.5515 314.779 50.3333 310.081 56.0764C305.383 61.8192 296.686 62.6 290.626 57.5349C284.566 52.4695 283.69 43.6878 288.388 37.9446C293.086 32.2015 301.784 31.4206 307.844 36.486Z" stroke="#393939" stroke-width="6"/>
</mask>
<g mask="url(#mask0_69_261)">
<rect x="0.571772" y="0.414023" width="40.1728" height="26.4412" transform="matrix(0.981388 -0.163796 0.162156 0.991842 286.436 20.2833)" fill="#D9D9D9" stroke="#393939"/>
<rect x="-0.282783" y="0.650789" width="40.1463" height="26.4588" transform="matrix(0.361031 0.937172 -0.926597 0.364407 295.537 40.0783)" fill="#D9D9D9" stroke="#393939"/>
<rect x="0.0670389" y="0.707514" width="37.8425" height="63.6724" transform="matrix(0.767412 0.641151 -0.633334 0.773876 318.378 17.9842)" fill="#D9D9D9" stroke="#393939"/>
</g>
<defs>
<filter id="filter0_d_69_261" x="357.237" y="117.8" width="47.2603" height="76.2188" filterUnits="userSpaceOnUse" color-interpolation-filters="sRGB">
<feFlood flood-opacity="0" result="BackgroundImageFix"/>
<feColorMatrix in="SourceAlpha" type="matrix" values="0 0 0 0 0 0 0 0 0 0 0 0 0 0 0 0 0 0 127 0" result="hardAlpha"/>
<feOffset dy="4"/>
<feGaussianBlur stdDeviation="2"/>
<feComposite in2="hardAlpha" operator="out"/>
<feColorMatrix type="matrix" values="0 0 0 0 0 0 0 0 0 0 0 0 0 0 0 0 0 0 0.25 0"/>
<feBlend mode="normal" in2="BackgroundImageFix" result="effect1_dropShadow_69_261"/>
<feBlend mode="normal" in="SourceGraphic" in2="effect1_dropShadow_69_261" result="shape"/>
</filter>
<filter id="filter1_d_69_261" x="396.604" y="122.189" width="49.3931" height="76.4014" filterUnits="userSpaceOnUse" color-interpolation-filters="sRGB">
<feFlood flood-opacity="0" result="BackgroundImageFix"/>
<feColorMatrix in="SourceAlpha" type="matrix" values="0 0 0 0 0 0 0 0 0 0 0 0 0 0 0 0 0 0 127 0" result="hardAlpha"/>
<feOffset dy="4"/>
<feGaussianBlur stdDeviation="2"/>
<feComposite in2="hardAlpha" operator="out"/>
<feColorMatrix type="matrix" values="0 0 0 0 0 0 0 0 0 0 0 0 0 0 0 0 0 0 0.25 0"/>
<feBlend mode="normal" in2="BackgroundImageFix" result="effect1_dropShadow_69_261"/>
<feBlend mode="normal" in="SourceGraphic" in2="effect1_dropShadow_69_261" result="shape"/>
</filter>
<filter id="filter2_d_69_261" x="429.983" y="136.723" width="55.4004" height="75.7219" filterUnits="userSpaceOnUse" color-interpolation-filters="sRGB">
<feFlood flood-opacity="0" result="BackgroundImageFix"/>
<feColorMatrix in="SourceAlpha" type="matrix" values="0 0 0 0 0 0 0 0 0 0 0 0 0 0 0 0 0 0 127 0" result="hardAlpha"/>
<feOffset dy="4"/>
<feGaussianBlur stdDeviation="2"/>
<feComposite in2="hardAlpha" operator="out"/>
<feColorMatrix type="matrix" values="0 0 0 0 0 0 0 0 0 0 0 0 0 0 0 0 0 0 0.25 0"/>
<feBlend mode="normal" in2="BackgroundImageFix" result="effect1_dropShadow_69_261"/>
<feBlend mode="normal" in="SourceGraphic" in2="effect1_dropShadow_69_261" result="shape"/>
</filter>
<filter id="filter3_d_69_261" x="222.792" y="58.303" width="50.3779" height="54.9802" filterUnits="userSpaceOnUse" color-interpolation-filters="sRGB">
<feFlood flood-opacity="0" result="BackgroundImageFix"/>
<feColorMatrix in="SourceAlpha" type="matrix" values="0 0 0 0 0 0 0 0 0 0 0 0 0 0 0 0 0 0 127 0" result="hardAlpha"/>
<feOffset dy="4"/>
<feGaussianBlur stdDeviation="2"/>
<feComposite in2="hardAlpha" operator="out"/>
<feColorMatrix type="matrix" values="0 0 0 0 0 0 0 0 0 0 0 0 0 0 0 0 0 0 0.25 0"/>
<feBlend mode="normal" in2="BackgroundImageFix" result="effect1_dropShadow_69_261"/>
<feBlend mode="normal" in="SourceGraphic" in2="effect1_dropShadow_69_261" result="shape"/>
</filter>
<filter id="filter4_d_69_261" x="59.5635" y="78.7603" width="52.2261" height="54.3325" filterUnits="userSpaceOnUse" color-interpolation-filters="sRGB">
<feFlood flood-opacity="0" result="BackgroundImageFix"/>
<feColorMatrix in="SourceAlpha" type="matrix" values="0 0 0 0 0 0 0 0 0 0 0 0 0 0 0 0 0 0 127 0" result="hardAlpha"/>
<feOffset dy="4"/>
<feGaussianBlur stdDeviation="2"/>
<feComposite in2="hardAlpha" operator="out"/>
<feColorMatrix type="matrix" values="0 0 0 0 0 0 0 0 0 0 0 0 0 0 0 0 0 0 0.25 0"/>
<feBlend mode="normal" in2="BackgroundImageFix" result="effect1_dropShadow_69_261"/>
<feBlend mode="normal" in="SourceGraphic" in2="effect1_dropShadow_69_261" result="shape"/>
</filter>
<filter id="filter5_d_69_261" x="106.299" y="148.728" width="38.1465" height="36.7363" filterUnits="userSpaceOnUse" color-interpolation-filters="sRGB">
<feFlood flood-opacity="0" result="BackgroundImageFix"/>
<feColorMatrix in="SourceAlpha" type="matrix" values="0 0 0 0 0 0 0 0 0 0 0 0 0 0 0 0 0 0 127 0" result="hardAlpha"/>
<feOffset dy="4"/>
<feGaussianBlur stdDeviation="2"/>
<feComposite in2="hardAlpha" operator="out"/>
<feColorMatrix type="matrix" values="0 0 0 0 0 0 0 0 0 0 0 0 0 0 0 0 0 0 0.25 0"/>
<feBlend mode="normal" in2="BackgroundImageFix" result="effect1_dropShadow_69_261"/>
<feBlend mode="normal" in="SourceGraphic" in2="effect1_dropShadow_69_261" result="shape"/>
</filter>
<filter id="filter6_d_69_261" x="194.464" y="139.533" width="38.1465" height="36.7363" filterUnits="userSpaceOnUse" color-interpolation-filters="sRGB">
<feFlood flood-opacity="0" result="BackgroundImageFix"/>
<feColorMatrix in="SourceAlpha" type="matrix" values="0 0 0 0 0 0 0 0 0 0 0 0 0 0 0 0 0 0 127 0" result="hardAlpha"/>
<feOffset dy="4"/>
<feGaussianBlur stdDeviation="2"/>
<feComposite in2="hardAlpha" operator="out"/>
<feColorMatrix type="matrix" values="0 0 0 0 0 0 0 0 0 0 0 0 0 0 0 0 0 0 0.25 0"/>
<feBlend mode="normal" in2="BackgroundImageFix" result="effect1_dropShadow_69_261"/>
<feBlend mode="normal" in="SourceGraphic" in2="effect1_dropShadow_69_261" result="shape"/>
</filter>
<filter id="filter7_d_69_261" x="146.417" y="156.126" width="55.1689" height="43.3306" filterUnits="userSpaceOnUse" color-interpolation-filters="sRGB">
<feFlood flood-opacity="0" result="BackgroundImageFix"/>
<feColorMatrix in="SourceAlpha" type="matrix" values="0 0 0 0 0 0 0 0 0 0 0 0 0 0 0 0 0 0 127 0" result="hardAlpha"/>
<feOffset dy="4"/>
<feGaussianBlur stdDeviation="5"/>
<feComposite in2="hardAlpha" operator="out"/>
<feColorMatrix type="matrix" values="0 0 0 0 0 0 0 0 0 0 0 0 0 0 0 0 0 0 0.25 0"/>
<feBlend mode="normal" in2="BackgroundImageFix" result="effect1_dropShadow_69_261"/>
<feBlend mode="normal" in="SourceGraphic" in2="effect1_dropShadow_69_261" result="shape"/>
</filter>
<filter id="filter8_d_69_261" x="128.912" y="81.5476" width="35.8936" height="50.6638" filterUnits="userSpaceOnUse" color-interpolation-filters="sRGB">
<feFlood flood-opacity="0" result="BackgroundImageFix"/>
<feColorMatrix in="SourceAlpha" type="matrix" values="0 0 0 0 0 0 0 0 0 0 0 0 0 0 0 0 0 0 127 0" result="hardAlpha"/>
<feOffset dy="4"/>
<feGaussianBlur stdDeviation="2"/>
<feComposite in2="hardAlpha" operator="out"/>
<feColorMatrix type="matrix" values="0 0 0 0 0 0 0 0 0 0 0 0 0 0 0 0 0 0 0.25 0"/>
<feBlend mode="normal" in2="BackgroundImageFix" result="effect1_dropShadow_69_261"/>
<feBlend mode="normal" in="SourceGraphic" in2="effect1_dropShadow_69_261" result="shape"/>
</filter>
<filter id="filter9_d_69_261" x="163.806" y="74.3367" width="32.6357" height="51.4512" filterUnits="userSpaceOnUse" color-interpolation-filters="sRGB">
<feFlood flood-opacity="0" result="BackgroundImageFix"/>
<feColorMatrix in="SourceAlpha" type="matrix" values="0 0 0 0 0 0 0 0 0 0 0 0 0 0 0 0 0 0 127 0" result="hardAlpha"/>
<feOffset dy="4"/>
<feGaussianBlur stdDeviation="2"/>
<feComposite in2="hardAlpha" operator="out"/>
<feColorMatrix type="matrix" values="0 0 0 0 0 0 0 0 0 0 0 0 0 0 0 0 0 0 0.25 0"/>
<feBlend mode="normal" in2="BackgroundImageFix" result="effect1_dropShadow_69_261"/>
<feBlend mode="normal" in="SourceGraphic" in2="effect1_dropShadow_69_261" result="shape"/>
</filter>
<filter id="filter10_d_69_261" x="253.229" y="138.218" width="53.4326" height="41.3584" filterUnits="userSpaceOnUse" color-interpolation-filters="sRGB">
<feFlood flood-opacity="0" result="BackgroundImageFix"/>
<feColorMatrix in="SourceAlpha" type="matrix" values="0 0 0 0 0 0 0 0 0 0 0 0 0 0 0 0 0 0 127 0" result="hardAlpha"/>
<feOffset dy="4"/>
<feGaussianBlur stdDeviation="2"/>
<feComposite in2="hardAlpha" operator="out"/>
<feColorMatrix type="matrix" values="0 0 0 0 0 0 0 0 0 0 0 0 0 0 0 0 0 0 0.25 0"/>
<feBlend mode="normal" in2="BackgroundImageFix" result="effect1_dropShadow_69_261"/>
<feBlend mode="normal" in="SourceGraphic" in2="effect1_dropShadow_69_261" result="shape"/>
</filter>
<filter id="filter11_d_69_261" x="249.23" y="171.009" width="54.0693" height="44.9282" filterUnits="userSpaceOnUse" color-interpolation-filters="sRGB">
<feFlood flood-opacity="0" result="BackgroundImageFix"/>
<feColorMatrix in="SourceAlpha" type="matrix" values="0 0 0 0 0 0 0 0 0 0 0 0 0 0 0 0 0 0 127 0" result="hardAlpha"/>
<feOffset dy="4"/>
<feGaussianBlur stdDeviation="2"/>
<feComposite in2="hardAlpha" operator="out"/>
<feColorMatrix type="matrix" values="0 0 0 0 0 0 0 0 0 0 0 0 0 0 0 0 0 0 0.25 0"/>
<feBlend mode="normal" in2="BackgroundImageFix" result="effect1_dropShadow_69_261"/>
<feBlend mode="normal" in="SourceGraphic" in2="effect1_dropShadow_69_261" result="shape"/>
</filter>
<filter id="filter12_d_69_261" x="54.3721" y="181.359" width="46.2861" height="38.4653" filterUnits="userSpaceOnUse" color-interpolation-filters="sRGB">
<feFlood flood-opacity="0" result="BackgroundImageFix"/>
<feColorMatrix in="SourceAlpha" type="matrix" values="0 0 0 0 0 0 0 0 0 0 0 0 0 0 0 0 0 0 127 0" result="hardAlpha"/>
<feOffset dy="4"/>
<feGaussianBlur stdDeviation="2"/>
<feComposite in2="hardAlpha" operator="out"/>
<feColorMatrix type="matrix" values="0 0 0 0 0 0 0 0 0 0 0 0 0 0 0 0 0 0 0.25 0"/>
<feBlend mode="normal" in2="BackgroundImageFix" result="effect1_dropShadow_69_261"/>
<feBlend mode="normal" in="SourceGraphic" in2="effect1_dropShadow_69_261" result="shape"/>
</filter>
<filter id="filter13_d_69_261" x="66.5381" y="199.578" width="44.6177" height="44.6309" filterUnits="userSpaceOnUse" color-interpolation-filters="sRGB">
<feFlood flood-opacity="0" result="BackgroundImageFix"/>
<feColorMatrix in="SourceAlpha" type="matrix" values="0 0 0 0 0 0 0 0 0 0 0 0 0 0 0 0 0 0 127 0" result="hardAlpha"/>
<feOffset dy="4"/>
<feGaussianBlur stdDeviation="2"/>
<feComposite in2="hardAlpha" operator="out"/>
<feColorMatrix type="matrix" values="0 0 0 0 0 0 0 0 0 0 0 0 0 0 0 0 0 0 0.25 0"/>
<feBlend mode="normal" in2="BackgroundImageFix" result="effect1_dropShadow_69_261"/>
<feBlend mode="normal" in="SourceGraphic" in2="effect1_dropShadow_69_261" result="shape"/>
</filter>
<filter id="filter14_d_69_261" x="300.866" y="336.966" width="62.6143" height="59.7241" filterUnits="userSpaceOnUse" color-interpolation-filters="sRGB">
<feFlood flood-opacity="0" result="BackgroundImageFix"/>
<feColorMatrix in="SourceAlpha" type="matrix" values="0 0 0 0 0 0 0 0 0 0 0 0 0 0 0 0 0 0 127 0" result="hardAlpha"/>
<feOffset dy="4"/>
<feGaussianBlur stdDeviation="2"/>
<feComposite in2="hardAlpha" operator="out"/>
<feColorMatrix type="matrix" values="0 0 0 0 0 0 0 0 0 0 0 0 0 0 0 0 0 0 0.25 0"/>
<feBlend mode="normal" in2="BackgroundImageFix" result="effect1_dropShadow_69_261"/>
<feBlend mode="normal" in="SourceGraphic" in2="effect1_dropShadow_69_261" result="shape"/>
</filter>
<filter id="filter15_d_69_261" x="383.627" y="292.713" width="96.165" height="97.0803" filterUnits="userSpaceOnUse" color-interpolation-filters="sRGB">
<feFlood flood-opacity="0" result="BackgroundImageFix"/>
<feColorMatrix in="SourceAlpha" type="matrix" values="0 0 0 0 0 0 0 0 0 0 0 0 0 0 0 0 0 0 127 0" result="hardAlpha"/>
<feOffset dy="4"/>
<feGaussianBlur stdDeviation="2"/>
<feComposite in2="hardAlpha" operator="out"/>
<feColorMatrix type="matrix" values="0 0 0 0 0 0 0 0 0 0 0 0 0 0 0 0 0 0 0.25 0"/>
<feBlend mode="normal" in2="BackgroundImageFix" result="effect1_dropShadow_69_261"/>
<feBlend mode="normal" in="SourceGraphic" in2="effect1_dropShadow_69_261" result="shape"/>
</filter>
</defs>
</svg>
