<svg width="177" height="176" viewBox="0 0 177 176" fill="none" xmlns="http://www.w3.org/2000/svg">
<path d="M114.676 43.9633C113.075 43.0444 112.621 41.047 113.501 39.5672L117.629 32.6306C118.565 31.0583 120.598 30.6121 122.106 31.4774C123.706 32.3957 124.16 34.3937 123.28 35.8735L119.152 42.8101C118.272 44.2899 116.276 44.8815 114.676 43.9633ZM83.2968 37.2462C81.5221 37.4684 79.8036 36.11 79.7265 34.3288L78.8838 26.4009C78.6575 24.658 80.0417 22.971 81.8556 22.8952C83.6294 22.6725 85.3479 24.0309 85.4259 25.8127L86.2667 33.7395C86.493 35.4823 85.1647 37.0774 83.2968 37.2462ZM54.7939 50.8809C53.4197 52.0055 51.2267 51.7694 50.1857 50.3084L45.133 44.0712C43.9869 42.7212 44.2283 40.5681 45.715 39.5453C47.0892 38.4208 49.2817 38.6579 50.3232 40.1178L55.3759 46.3551C56.5226 47.7042 56.2765 49.7504 54.7939 50.8809ZM37.7239 77.0993C37.3142 78.8493 35.531 79.9352 33.8431 79.5869L25.8904 77.8767C24.1084 77.4744 23.0017 75.7226 23.3563 74.0651C23.766 72.315 25.5502 71.2297 27.2381 71.578L35.1898 73.2877C37.0279 73.598 38.1336 75.3492 37.7239 77.0993ZM40.9182 108.462C41.5922 110.089 40.8291 112.009 39.265 112.724L31.8198 115.896C30.1625 116.557 28.207 115.807 27.479 114.273C26.805 112.645 27.5682 110.726 29.1303 110.01L36.5774 106.839C38.2897 106.085 40.2443 106.834 40.9182 108.462ZM62.2803 132.011C63.8804 132.93 64.3352 134.928 63.4546 136.408L59.3268 143.344C58.3912 144.916 56.3572 145.362 54.8503 144.497C53.2492 143.578 52.7954 141.581 53.676 140.101L57.8038 133.165C58.7394 131.592 60.6793 131.093 62.2803 132.011ZM93.6591 138.729C95.4338 138.506 97.1523 139.865 97.2285 141.645L98.0711 149.573C98.2975 151.316 96.9142 153.004 95.0994 153.079C93.3256 153.302 91.6071 151.943 91.5291 150.161L90.6883 142.235C90.462 140.492 91.7902 138.897 93.6591 138.729ZM123.051 126.067C124.403 124.857 126.499 124.944 127.676 126.363L133.096 132.327C134.328 133.655 134.239 135.713 132.795 136.869C131.443 138.079 129.346 137.992 128.17 136.573L122.748 130.608C121.517 129.281 121.7 127.276 123.051 126.067ZM139.232 98.8754C139.642 97.1254 141.424 96.039 143.112 96.3873L151.065 98.098C152.847 98.4998 153.953 100.252 153.599 101.909C153.189 103.659 151.405 104.744 149.717 104.396L141.765 102.687C139.983 102.284 138.822 100.625 139.232 98.8754ZM136.038 67.5131C135.363 65.885 136.126 63.9656 137.69 63.2502L145.135 60.0786C146.792 59.4167 148.748 60.1667 149.476 61.7012C150.15 63.3287 149.388 65.2486 147.825 65.9645L140.378 69.1351C138.72 69.797 136.712 69.1406 136.038 67.5131Z" fill="#ECA914"/>
<path d="M48.0473 87.9814C48.0375 109.931 66.1495 127.732 88.4994 127.742C110.85 127.752 128.977 109.966 128.986 88.0168V87.9814C128.99 66.0321 110.874 48.237 88.5234 48.2338C66.1724 48.2295 48.0505 66.0192 48.0473 87.9686V87.9814Z" fill="#ECA914"/>
</svg>
